<?xml version="1.0" encoding="UTF-8"?><svg id="flags" xmlns="http://www.w3.org/2000/svg" viewBox="0 0 162 116"><defs><style>.cls-1{stroke-width:.03px;}.cls-1,.cls-2,.cls-3,.cls-4,.cls-5,.cls-6,.cls-7,.cls-8,.cls-9,.cls-10,.cls-11,.cls-12,.cls-13,.cls-14,.cls-15,.cls-16,.cls-17,.cls-18,.cls-19,.cls-20,.cls-21,.cls-22,.cls-23,.cls-24,.cls-25,.cls-26,.cls-27,.cls-28,.cls-29,.cls-30,.cls-31,.cls-32,.cls-33,.cls-34,.cls-35,.cls-36,.cls-37,.cls-38,.cls-39,.cls-40,.cls-41,.cls-42{stroke:#000;}.cls-1,.cls-4,.cls-7,.cls-14,.cls-15,.cls-17,.cls-25{fill:#999;}.cls-2{stroke-width:.11px;}.cls-2,.cls-3,.cls-20{fill:#e3e4e5;}.cls-3{stroke-width:.05px;}.cls-43{stroke:#010101;stroke-miterlimit:4.1;stroke-width:.03px;}.cls-43,.cls-44,.cls-12,.cls-13,.cls-16,.cls-21,.cls-22,.cls-23,.cls-26,.cls-33,.cls-34,.cls-37,.cls-38,.cls-45,.cls-40{fill:none;}.cls-43,.cls-12,.cls-13,.cls-38{stroke-linecap:round;}.cls-4{stroke-width:0px;}.cls-5{stroke-width:.04px;}.cls-44,.cls-27,.cls-29,.cls-30,.cls-31{stroke-width:.04px;}.cls-44,.cls-45{stroke:#2d3235;}.cls-6{stroke-linejoin:round;stroke-width:.05px;}.cls-6,.cls-31,.cls-46{fill:#ed1c24;}.cls-7,.cls-26{stroke-width:.06px;}.cls-8{stroke-width:.04px;}.cls-8,.cls-9,.cls-10,.cls-11{stroke-linecap:square;}.cls-8,.cls-9,.cls-10,.cls-11,.cls-19,.cls-24,.cls-27,.cls-36,.cls-47{fill:#008f4c;}.cls-9{stroke-width:.04px;}.cls-10{stroke-width:.04px;}.cls-11{stroke-width:.04px;}.cls-12{stroke-width:.03px;}.cls-13,.cls-34{stroke-width:.03px;}.cls-14{stroke-width:.06px;}.cls-15,.cls-33{stroke-width:.03px;}.cls-16{stroke-width:.04px;}.cls-17,.cls-18,.cls-45,.cls-40{stroke-width:.05px;}.cls-18,.cls-28,.cls-29,.cls-32,.cls-35,.cls-41{fill:#eac102;}.cls-19{stroke-width:.04px;}.cls-20,.cls-37{stroke-width:.04px;}.cls-21{stroke-width:.04px;}.cls-22{stroke-width:.04px;}.cls-23{stroke-width:.04px;}.cls-24{stroke-width:.03px;}.cls-25{stroke-width:.32px;}.cls-28{stroke-width:.04px;}.cls-30{fill:#e4d8cc;}.cls-32{stroke-width:.04px;}.cls-35{stroke-width:.06px;}.cls-36{stroke-width:.04px;}.cls-38{stroke-width:.03px;}.cls-48,.cls-49,.cls-46,.cls-50,.cls-51,.cls-47{stroke-width:0px;}.cls-39{fill:#784421;stroke-width:.04px;}.cls-41{stroke-width:.05px;}.cls-49{fill:#da121a;}.cls-50{fill:#fbea0e;}.cls-51{fill:#fcdd09;}.cls-42{fill:#0071bc;stroke-width:.05px;}</style></defs><g id="aragon"><rect id="rect1933" class="cls-51" y="4.33" width="162" height="108"/><rect id="rect1935" class="cls-49" y="88.33" width="162" height="12"/><rect id="rect1937" class="cls-50" y="76.33" width="162" height="12"/><rect id="rect1939" class="cls-49" y="64.33" width="162" height="12"/><rect id="rect1941" class="cls-50" y="52.33" width="162" height="12"/><rect id="rect1943" class="cls-49" y="40.33" width="162" height="12"/><rect id="rect1945" class="cls-50" y="28.33" width="162" height="12"/><rect id="rect1947" class="cls-49" y="16.33" width="162" height="12"/><g id="g8765"><path id="path3435" class="cls-41" d="m36.06,64.13l-.02-18.18h16.14l.04,18.22"/><path id="path1763" class="cls-42" d="m52.14,64.13l-.02-18.18h16.04l.04,18.22"/><path id="path1765" class="cls-18" d="m36.05,64.07l32.16.07s.07,6.83-.13,9.2c-.02,2.75-3.39,15.1-16.28,15.1-13.11.07-15.73-11.12-15.75-15.75-.02-1.45,0-8.62,0-8.62Z"/><path id="path1767" class="cls-3" d="m52.13,88.43c-3,.09-5.75-.38-7.54-1.36-1.48-.81-2.87-1.52-4.09-2.89-.92-1.04-1.84-2.26-2.51-3.54-.21-.4-.4-.82-.56-1.24-.5-1.37-1.3-3.6-1.35-6.01-.08-3.7-.04-7.85-.01-9.31,2.82,0,16.07.03,16.07.03"/><path id="path1684" class="cls-14" d="m50.42,85.86c-.16-.06-.13-.43-.02-.41.3,0,.26.41.28.49-.09.03-.16-.01-.25-.08Z"/><path id="path1675" class="cls-14" d="m49,84.87c-.1-.1-.33.07-.43-.09-.11-.17.62-1.02.67-1.1.11-.19.06-.53.08-.62.17-.25.44-.55.6-.68.24.13.42.23.52.31.06.29-.29.73-.31.82-.04.26-.23.45-.42.68-.2.23-.52.41-.71.7Z"/><g id="g1661"><path id="path1663" class="cls-25" d="m49.84,79.26c.04.09.08.21.1.35.01.14.07.35.26.42.15.06.29.15.31.28.02.13.03.29.03.29l.29-.32s.01-.16.03-.29c.02-.19-.12-.26-.26-.33-.14-.07-.29-.15-.32-.24-.04-.08-.13-.23-.19-.29-.06-.06-.24.14-.24.14h0Z"/><path id="path1665" class="cls-25" d="m49.92,80.94c.11.26.09.6.12.84.13.02.3-.31.48-.4.03-.18.1-.43.17-.51.3-.35.14-.58.14-.58-.29.27-.32.49-.9.64h0Z"/></g><path id="path5136" class="cls-29" d="m35.13,39.38c-.47,0-.47,1.67.3,1.65.38-.01,8.48-.82,16.68-.81,8.33,0,16.84.6,17.03.59.35-.02.69-1.44.41-1.45-.04,0-2.47,2.1-4.47-.28-1.95,1.42-2.64.92-4.34-.09-1.84.84-2.2,1.32-4.27-.19-2.19,1.27-2.58,1.16-4.39-.18-1.35,1.42-2.88,1.03-4.04.2-2.13,1.29-3.06,1.11-4.59.21-1.91,1-2.14,1.36-4.2.04-2.32,2.24-4.02.33-4.12.33Z"/><path id="path1635" class="cls-29" d="m35.38,40.78c-.47,0-.69.59.08.56.38-.01,8.51-.67,16.71-.67,8.33,0,16.74.67,16.92.66.35-.02.36-.53.09-.55-.14,0-8.59-.78-17.03-.77-8.27,0-16.54.77-16.77.77Z"/><path id="path15218" class="cls-47" d="m44.21,50.75c-.56-.01-.9-.36-4.08-.36-1.94,0-2.24,2.38-1.39,2.95.3.2,1.51.5,2.39.91.77.36,1.21.85,1.7.76.79-.15,1.08-.21,1.85-.1,1.34.19,3.02-.3,3.69-.98.19-.2-.02-2.28-.11-2.52-.08-.23-.91-.52-1.19-.64-.84-.37-2.34-.22-2.85,0Z"/><path id="path15324" class="cls-19" d="m44.38,52.76s-.35,0-.72,0c-.23,0-.22.27-.18.4.04.12.56.15.69.12.25-.05.24-.17.36-.31.11-.12.05-.11-.14-.22Z"/><path id="path1778" class="cls-39" d="m43.66,54.83l.71-1.08s.14,2.71.14,4.07-.26,1.43-.03,2.41c.06.24.23.69.67.87.63.25,1.65.28,2.26.58.61.3.7.84.57,1.01-.2-.15-.37-.44-.85-.52-.35-.06-.42-.01-.85-.03-.18,0-.16.27-.06.72-.61-.47-1.19-.72-1.36-.66-.16.05.1.74.09,1.01-.19-.4-.51-.59-.6-.58-.09.01-.24.62-.31.7-.16-.17-.18-.89-.26-.89-.18,0-.31.07-.91.55.03-.42.32-.9.17-.9-.17,0-.79.53-1.19.75,0-.32.45-.73.29-.73-.13,0-.36-.08-.64-.04-.41.07-.93.3-1.45.49,0-.25.48-.69.86-.88.41-.21.89-.08,1.46-.44.57-.37.69-.84.89-2.04.2-1.2-.29-1.04-.16-2.41.13-1.36.56-1.97.56-1.97Z"/><path id="path5138" class="cls-29" d="m35.24,41.33c-.1.79.57,3.44.78,4.03,1.39.07,9.39-.56,16.37-.55,8.33,0,15.58.49,15.77.48.35-.02,1.12-3.97.85-3.99-.14,0-8.04-.7-16.48-.7-8.27,0-17.05.74-17.28.74Z"/><path id="path1781" class="cls-6" d="m42.71,42.73c0-.48.42-.87.93-.87s.94.39.94.87-.42.87-.94.87-.93-.39-.93-.87Z"/><path id="path1783" class="cls-2" d="m54.9,48.31h2.05s-.22,2.15-.22,2.15l1.95-.54v2.56l-1.97-.53s.04,1.62.07,2.5c.04.88.15.99.15.99l-.63-.15-.38,2.55-.41-2.56-.63.16s.11-.16.17-1.01c.06-.85.17-2.47.17-2.47l-1.88.58v-2.61s1.74.52,1.74.52l-.19-2.13Z"/><path id="use4298" class="cls-6" d="m51.27,42.41c0-.48.42-.87.93-.87s.94.39.94.87-.42.87-.94.87c-.52,0-.93-.39-.93-.87Z"/><path id="use4300" class="cls-6" d="m59.69,42.52c0-.48.42-.87.93-.87s.94.39.94.87-.42.87-.94.87c-.52,0-.93-.39-.93-.87Z"/><rect id="rect4312" class="cls-9" x="38.65" y="42.13" width="1.48" height="1.48" transform="translate(-18.69 46.83) rotate(-51.32)"/><rect id="rect5187" class="cls-10" x="64.1" y="42.07" width="1.48" height="1.48" transform="translate(-12.3 52.08) rotate(-40.29)"/><rect id="rect5189" class="cls-11" x="55.67" y="41.73" width="1.48" height="1.48" transform="translate(-13.99 47.84) rotate(-41.34)"/><rect id="rect5191" class="cls-8" x="47.13" y="41.73" width="1.48" height="1.48" transform="translate(-15.95 47.09) rotate(-45.72)"/><path id="path1600" class="cls-30" d="m38.56,69.59c-.08-.15-.17-.62-.27-.85-.26-.07-.7-.01-1.01-.19-.35-.22.13-.64.1-.8-.02-.01-.09-.09-.11-.12-.01-.06.05-.17.09-.19h0c-.05-.04-.12-.25.11-.24.08-.03.09-.08.12-.13-.03-.02-.1-.06-.11-.06-.19-.11-.1-.21.03-.31.08-.06.38-.28.54-.37.07-.04.08-.06.09-.14,0-.07.06-.16.12-.22.06-.06.27-.21.25-.26-.01-.04.05-.13.07-.15s.05-.06.06-.08c.01-.02.05-.06.08-.06.04,0,.09-.06.09-.09,0-.03.09-.14.13-.14.03,0,.1.02.16-.03.05-.09.18-.16.25-.18l.17-.06s.13-.05.21-.03c.08.02.27.03.27.03l.23.04s.09.01.16.04c.07.03.31.12.31.13,0,0,.11,0,.23.09.13.08.24.22.3.23.06,0,.07.09.07.09,0,0,.06.11.14.15l.11.15s.11.13.16.19l.18.34s.09.08.06.19l.02.45s0,.04.02.1l-.04.22s-.01.02-.03.07c-.02.05-.06.26-.18.3,0,.05-.05.11-.13.19-.09.07-.29.17-.26.2.03.03-.03.01-.07,0-.03-.03-.08-.05-.09.02-.01.09,0,.14-.1.14s-.26.13-.25.2l-.2.08s-.03.02,0,.09c.02.07-.06.24-.08.25,0,.02,0,.53-.02.55-.52-.02-1.46.04-1.95.15Z"/><path id="path1673" class="cls-48" d="m39.96,68.34c-.28-.22.56-.73.58-.64,0,.04.55.41.54.45-.02.06-.15.17-.45.62-.09.07-.29-.17-.67-.44Z"/><path id="path9583" class="cls-48" d="m38.64,65.44c.11-.05.05.01.15-.09.03-.12,0-.06.06-.1.15-.11.44-.26.65-.33.22-.07.44-.01.68.04.14.03.42.08.69.25.12.08.24.15.36.26.15.14.28.32.39.46.03.03.17.3.3.54.06.1.02.28.02.4,0,.18.06.34-.06.59-.07.17-.08.24-.14.26-.06.26-.4.34-.55.42h-.09c-.06-.11-.27-.34-.35-.43-.26-.28-.33-.58-.67-.69-.29-.35-1.12-.86-1.47-1.15-.17-.17-.12-.11-.1-.21l.14-.22Z"/><path id="path1602" class="cls-1" d="m38.95,65.23c-.09.01-.15.03-.12.11.04.1.09.19.09.19,0,0-.14-.13-.18-.09-.05.03-.14.07-.1.11.03.04.14.18.14.18,0,0-.22-.16-.18-.12-.06.05-.1.17,0,.29.1.12.41.47.46.55.05.08.19.19.27.23.08.04.36.22.31.19l-.2-.05s.28.33.35.35c.07-.05.67-.2.63.37-.03.11-.04.19-.04.19,0,0,.11.05.13.13.02.07.14.14.21.17.07.03.21.07.17.05-.04-.02.11.13.15.16.04.03.17-.09.05-.28-.04-.11-.21-.33-.22-.42-.01-.09-.24-.42-.33-.52-.01-.06,0-.09-.07-.16-.08-.06-.21-.22-.28-.3-.07-.08-.14-.12-.23-.17-.09-.05-.63-.55-.73-.73-.1-.1.47.47.54.52.12.09.18.09.02-.14-.06-.11-.4-.61-.69-.89l-.16.08Z"/><path id="path1604" class="cls-43" d="m40.01,67.48s.01.01.02.02c0,.02,0,.03,0,.04,0,.02,0,.03-.02.04-.01.01-.02.02-.04.02-.02,0-.03,0-.04.01-.02,0-.03,0-.05,0,0,0-.02,0-.03,0-.01,0-.02,0-.03.02-.01.01-.02.03-.03.04-.01.01-.02.03-.03.04-.01,0-.02.01-.04,0-.01,0-.03-.01-.04-.02,0-.01-.01-.03-.02-.04,0,0,0-.01.01-.02"/><path id="path1606" class="cls-48" d="m39.82,67.3c.13-.07.66-.03.34.29-.05.03-.01.07.02.05.36-.4-.21-.47-.35-.39-.06.03-.01.05,0,.04h0Z"/><path id="path1608" class="cls-13" d="m38.67,65.8c.16.08.32.19.4.34.08.15.18.24.32.32.14.08.21.12.21.12h0"/><path id="path1610" class="cls-34" d="m40.48,67.12c.21.25.24.31.31.44.07.13.11.17.17.28.05.08.06.15.06.15.03.08-.16-.33-.39-.4-.08-.04-.09-.05-.11-.17-.03-.12-.07-.23-.16-.34-.09-.11-.25-.31-.25-.31"/><path id="path1612" class="cls-12" d="m39.46,67.84s.07.11.09.13c.02.02.05.03.12.03.1-.03.28-.19.37-.21.15.02.27-.04.33-.07"/><path id="path1614" class="cls-5" d="m38.46,66.3c.07.2.13.34.27.47-.03.04-.35-.1-.5-.1,0,0,0-.11.06-.2.06-.09.16-.17.16-.17Z"/><g id="g1624"><g id="g1628"><g id="g1632"><path id="path1634" class="cls-25" d="m41,68.38c0,.1,0,.22-.05.36-.05.14-.08.35.07.49.12.12.21.25.18.38-.03.13-.08.28-.08.28l.39-.19s.07-.14.14-.26c.09-.17-.01-.28-.11-.4-.1-.12-.21-.25-.21-.34,0-.09-.03-.27-.06-.35-.03-.08-.27.03-.27.03h0Z"/><path id="path1636" class="cls-25" d="m38.47,70.4c.11.32.21.92.14,1.16.18-.12,1.03-.36,1.24-.44.62-.24,1.21-.87,1.3-.92.41-.2.36-.48.36-.48-.37.14-.6.32-1.08.46l-.66.21-.56.06-.74-.04Z"/><path id="path1638" class="cls-25" d="m38.08,70.93c-.04.05,0,.48.13.56.12.07.25.18.38.09,0,0,.07-.13.05-.46-.01-.18-.05-.26-.05-.26l-.5.07Z"/></g><path id="path1630" class="cls-25" d="m42.48,68.58c-.12-.33-.6-.32-1.02-.39-.11-.05-.14-.09-.14-.09l-.06.19c.07.25.2.18.36.38.17.21.33,1.29.04,1.67-.3.38-1.58.52-1.93.55.18.26.36.71.37,1.03.5.03,1.33-.24,1.82-.64.11-.09.25-.52.35-.71.33-.64.32-1.74.22-2Z"/></g></g><path id="path1640" class="cls-15" d="m41.17,68.1c.01-.08.05-.06.1,0,.07.13-.1.25-.24.22-.08,0-.08-.11.04-.09.1.03.11-.15.1-.14h0s0,0,0,0h0Z"/><path id="path1642" class="cls-37" d="m41.37,69.57s0,0,0,0c.01-.02,0-.01-.01.04-.02.04-.04.08-.06.13-.02.03-.04.06-.06.09"/><path id="path1644" class="cls-37" d="m41.29,69.58s0,0,0,.01c.02-.03.01-.02,0,.03-.02.04-.02.07-.05.11-.02.04-.05.07-.07.11"/><path id="path1646" class="cls-37" d="m39.46,71.1s0,0,0,0c0,0-.02.04-.03.06-.02.03-.04.06-.05.08"/><path id="path1648" class="cls-37" d="m39.35,71.13s0,0,0,.01h0s0,0,0,0h0s-.03.06-.06.11c0,.01-.01.03-.02.03"/><path id="path1650" class="cls-37" d="m39.24,71.12s-.03.09-.06.14c-.01.02-.02.02-.03.05"/><path id="path1652" class="cls-37" d="m39.13,71.16s0,0,0,0c.01-.02,0-.01-.01.03-.02.04-.03.06-.05.1-.02.04-.04.05-.06.08"/><path id="path1654" class="cls-37" d="m39,71.22s-.03.05-.04.08c-.02.03-.03.06-.05.08-.02.03-.04.05-.06.07,0,0,0,.01,0,.02"/><path id="path1656" class="cls-37" d="m41.43,69.61s-.02.06-.05.08c-.01.02-.02.04-.04.05"/><path id="path1658" class="cls-7" d="m41.31,68.19c.07.06.28.15.39.14h.11"/><path id="path1660" class="cls-26" d="m41.29,68.23c.06.07.25.2.36.2h.11"/><path id="path1662" class="cls-33" d="m41.23,68.33c.01.07.03.11,0,.19l-.02.07"/><path id="path1664" class="cls-33" d="m41.16,68.33c.01.1.03.14,0,.22l-.02.08"/><path id="path1666" class="cls-26" d="m41.1,68.35c-.04.12-.07.37-.04.47l.03.1"/><path id="path1668" class="cls-16" d="m38.53,71.2s-.08-.14-.09-.18c0-.03,0-.05,0-.05"/><path id="path1670" class="cls-16" d="m38.43,71.22s-.09-.16-.09-.19c0-.04,0-.04,0-.04"/><path id="path1672" class="cls-22" d="m38.35,71.3s-.1-.16-.11-.2v-.04"/><path id="path1674" class="cls-33" d="m41.78,71.23s.11-.13.13-.2l.02-.07"/><path id="path1676" class="cls-33" d="m41.4,68.42s.08.08.11.09h.03"/><path id="path1678" class="cls-23" d="m42.17,68.56c.1.14.13.64.12.69v.06"/><path id="path1843" class="cls-29" d="m39.52,35.2c-.23-.13-.45-.13-.78,0-.13-.2-.91-1.11-1.22-1.43.05-.47,1.03-1.23,1.51-1.22.48,0,1.4.43,1.61,1.24-.41.5-.95,1.16-1.11,1.41Z"/><path id="path2718" class="cls-29" d="m38.75,36.22c.42.2.48.12.8-.02.13.2.85,1.05,1.16,1.38-.06.26-.64,1.07-1.39,1.09-.37.01-1.41-.28-1.61-1.09.41-.5.88-1.11,1.04-1.36Z"/><path id="path2720" class="cls-29" d="m39.55,36.18c.15-.19.26-.61,0-.97.13-.19.77-1.1,1.11-1.38.26.07.66,1.01.63,1.77-.01.37.02,1.41-.57,1.98-.47-.44-.94-1.17-1.17-1.39Z"/><path id="path2722" class="cls-29" d="m38.75,35.2c-.14.19-.3.65-.02,1-.13.19-.71,1.07-1.05,1.36-.26-.07-.68-1-.68-1.75,0-.37-.06-1.41.51-1.99.48.43,1,1.17,1.24,1.39Z"/><path id="path2724" class="cls-35" d="m39.49,36.48c-.42.16-.9-.04-1.06-.44-.17-.4.04-.86.46-1.02.42-.16.9.04,1.06.44.17.4-.04.86-.45,1.02"/><path id="path2735" class="cls-29" d="m48.16,34.86c-.23-.13-.45-.13-.78,0-.13-.19-.91-1.11-1.22-1.43.05-.47,1.03-1.23,1.51-1.22.48,0,1.4.43,1.61,1.24-.41.5-.95,1.16-1.11,1.41Z"/><path id="path2737" class="cls-29" d="m47.38,35.88c.42.2.48.12.8-.02.13.2.85,1.05,1.16,1.38-.06.26-.64,1.07-1.39,1.09-.37.01-1.41-.28-1.61-1.09.41-.5.88-1.11,1.04-1.36Z"/><path id="path2739" class="cls-29" d="m48.18,35.84c.15-.19.26-.61,0-.97.13-.19.77-1.1,1.11-1.38.26.07.66,1.01.63,1.77-.01.37.02,1.41-.57,1.98-.47-.44-.94-1.17-1.17-1.39Z"/><path id="path2741" class="cls-29" d="m47.39,34.86c-.14.19-.3.65-.02,1-.13.19-.71,1.07-1.05,1.36-.26-.07-.68-1-.68-1.75,0-.37-.06-1.41.51-1.99.48.43,1,1.17,1.24,1.39Z"/><path id="path2743" class="cls-35" d="m48.13,36.14c-.42.16-.9-.04-1.06-.44-.17-.4.04-.86.46-1.02.42-.16.9.04,1.06.44.17.4-.04.86-.45,1.02"/><path id="path2747" class="cls-28" d="m56.87,34.87c-.23-.14-.45-.15-.78-.03-.12-.2-.86-1.15-1.16-1.48.07-.47,1.08-1.18,1.56-1.15.47.03,1.38.49,1.55,1.3-.43.48-1,1.11-1.17,1.36Z"/><path id="path2749" class="cls-28" d="m56.05,35.86c.41.22.47.14.8.01.12.2.8,1.09,1.09,1.43-.07.26-.68,1.04-1.44,1.03-.37,0-1.39-.34-1.56-1.15.43-.48.92-1.07,1.1-1.32Z"/><path id="path2751" class="cls-28" d="m56.85,35.85c.16-.18.29-.6.04-.97.14-.18.81-1.07,1.17-1.33.26.08.61,1.04.55,1.8-.03.36-.04,1.41-.65,1.95-.45-.46-.89-1.21-1.11-1.44Z"/><path id="path2753" class="cls-28" d="m56.1,34.84c-.15.18-.33.63-.07,1-.13.18-.75,1.03-1.1,1.31-.26-.08-.64-1.02-.6-1.78.02-.37,0-1.41.6-1.97.46.45.95,1.21,1.17,1.44Z"/><path id="path2755" class="cls-35" d="m56.76,36.18c-.43.14-.89-.07-1.04-.48-.15-.41.07-.86.5-1,.43-.14.89.07,1.04.48.15.41-.07.86-.5,1"/><path id="path2759" class="cls-32" d="m65.61,35.2c-.22-.15-.44-.17-.78-.05-.11-.2-.82-1.18-1.1-1.52.08-.47,1.12-1.14,1.6-1.1.47.04,1.36.54,1.5,1.36-.45.47-1.04,1.08-1.22,1.32Z"/><path id="path2761" class="cls-32" d="m64.76,36.15c.4.23.47.16.8.04.11.21.76,1.12,1.04,1.46-.08.26-.72,1.02-1.47.98-.37-.02-1.38-.39-1.52-1.21.45-.46.96-1.04,1.15-1.28Z"/><path id="path2763" class="cls-32" d="m65.56,36.17c.16-.17.31-.59.07-.97.15-.18.85-1.04,1.22-1.29.25.09.58,1.06.49,1.81-.04.36-.08,1.41-.72,1.93-.43-.48-.84-1.24-1.06-1.48Z"/><path id="path2765" class="cls-32" d="m64.84,35.14c-.16.18-.35.62-.1.99-.14.18-.79,1.01-1.15,1.27-.25-.09-.6-1.05-.54-1.8.03-.36.05-1.41.66-1.95.44.47.9,1.24,1.12,1.48Z"/><path id="path2767" class="cls-35" d="m65.44,36.51c-.43.13-.89-.11-1.03-.52-.14-.42.1-.86.54-.98.43-.13.89.11,1.03.52.13.41-.1.85-.53.98"/><path id="path5414" class="cls-29" d="m42.78,33.31c.39-.02.65-.02,1.04-.02.11,0,.75.09,1.07.7.33.17.38.18.7.48,0,.4,0,1.4-.24,2.05-.02.08-.2.25-.4.3-.02,1.02-1.06,1.95-1.51,1.99-.51,0-1.7-1.03-1.51-2.05-.26-.1-.39-.32-.42-.47-.1-.45-.32-1.26-.28-1.85.34-.29.49-.23.69-.38.28-.41.54-.74.87-.75Z"/><path id="path2781" class="cls-29" d="m44.92,30.22c-.33.26-1,.84-1.01,1.32s0,.67.02,1.08c.02.41.21,1.36.21,1.63,0,.27.05.62.06.92,0,.3-.08.65-.33.81-.26.17-.77.13-.97-.04-.22-.17-.26-.55-.3-.81-.04-.27.03-.51.03-.79s.14-1.34.22-1.72c.08-.38.02-.69.01-1.07,0-.47-.5-.82-1.06-1.26.22-.21.38-.36.76-.47.14-.49.46-.77.82-1.15.35.34.65.77.71,1.16.27-.01.6.21.82.38Z"/><path id="path6289" class="cls-29" d="m51.44,33.1c.39-.02.65-.02,1.04-.02.11,0,.75.09,1.07.7.33.17.38.18.7.48,0,.4,0,1.4-.24,2.05-.02.08-.2.25-.4.3-.02,1.02-1.06,1.95-1.51,1.99-.51,0-1.7-1.03-1.51-2.05-.26-.1-.39-.32-.42-.47-.1-.45-.32-1.26-.28-1.85.34-.29.49-.23.69-.38.28-.41.54-.74.86-.75Z"/><path id="path5402" class="cls-29" d="m53.55,29.92c-.33.26-1,.84-1.01,1.32,0,.47,0,.67.02,1.08.02.41.21,1.36.21,1.63,0,.27.05.62.06.92,0,.3-.08.65-.33.81-.27.17-.77.13-.97-.04-.22-.17-.26-.55-.3-.81-.04-.27.03-.51.03-.79,0-.28.14-1.34.22-1.72.08-.38.02-.69.01-1.07,0-.47-.5-.82-1.06-1.26.22-.21.38-.36.76-.47.14-.49.46-.77.82-1.15.35.34.65.77.71,1.16.27-.01.6.21.82.38Z"/><path id="path6291" class="cls-29" d="m60.23,33.32c.39-.02.65-.02,1.04-.02.11,0,.75.09,1.07.7.33.17.38.18.7.48,0,.4,0,1.4-.24,2.05-.02.08-.2.25-.4.3-.02,1.02-1.06,1.95-1.51,1.99-.51,0-1.7-1.03-1.51-2.05-.26-.1-.39-.32-.42-.47-.1-.45-.32-1.26-.28-1.85.34-.29.49-.23.69-.38.28-.41.54-.74.87-.75Z"/><path id="path5404" class="cls-29" d="m62.23,30.35c-.33.26-1,.84-1.01,1.32,0,.47,0,.67.02,1.08.02.41.21,1.36.21,1.63,0,.27.05.62.06.92,0,.3-.08.65-.33.81-.26.17-.77.13-.97-.04-.22-.17-.26-.55-.3-.81-.04-.27.03-.51.03-.79,0-.28.14-1.34.22-1.72.08-.38.02-.69.01-1.07,0-.47-.5-.82-1.06-1.26.22-.21.38-.36.76-.47.14-.49.46-.77.82-1.15.35.34.65.77.71,1.16.27-.01.6.21.82.38Z"/><path id="path4343" class="cls-48" d="m38.42,67.68c.08,0,.15,0,.23,0,.33,0-.08,0,0,0,.08,0,.16,0,.23-.04l.29-.07c-.07.05-.18.14-.27.14-.17.03-.34,0-.5.01-.08,0-.15,0-.23,0l.25-.04Z"/><path id="path9585" class="cls-4" d="m39.78,64.9c-.09.01-.15.01-.29.05-.12.03-.38.13-.34.16-.06.05.21.27.31.39.1.12.33.49.38.57.05.08.15.32.23.36l.23.19s.2.25.26.27c.09.2.05.12.21.33.14.2.17.39.17.39,0,0,.24.46.2.43-.04-.02.1.02.15.05s.31-.17.4-.31c.02-.05.18-.17.23-.48.05-.29,0-.77,0-.81-.01-.09-.24-.52-.33-.58-.09-.06-.28-.3-.35-.38-.07-.08-.22-.19-.31-.24-.09-.05-.13-.08-.35-.17-.21-.1-.4-.12-.52-.16l-.27-.05Z"/><path id="path9587" class="cls-13" d="m40.41,66.42c.14.11.29.24.34.4.06.17.14.27.26.37.12.1.18.15.18.15h0"/><path id="path9589" class="cls-13" d="m39.67,65.49c.14.11.42.17.5.4.06.17.14.27.26.37.12.1.18.15.18.15h0"/><path id="path9591" class="cls-13" d="m39.61,65.09c.14.11.51.27.57.43"/><path id="path9593" class="cls-38" d="m40.74,65.76c.11.11.21.24.24.39.03.15.09.25.18.35.09.1.14.15.14.15h0"/><path id="path10468" class="cls-48" d="m37.18,68.15s.16.2.21.24c.08.07.1.08.19.11.27.05.28.04.5.02.18,0,.24.02.42-.03.14-.04.37-.12.42-.17.03-.02.12-.14.15-.17.03-.05.54-1.21.56-1.12,0,.04.16.1.14.14-.02.06-.5,1.07-.54,1.13-.03.03-.06.07-.09.09-.06.04-.12.09-.17.13-.13.09-.53.22-.67.25-.33.02-.88.08-1.22,0-.02-.26.11-.61.11-.61Z"/><path id="path10471" class="cls-30" d="m47.36,69.74c-.08-.15-.17-.62-.27-.85-.26-.07-.7-.01-1.01-.19-.35-.22.13-.64.1-.8-.02-.01-.09-.09-.11-.12-.01-.06.05-.17.09-.18h0c-.05-.04-.12-.25.11-.25.08-.03.09-.08.12-.13-.03-.02-.1-.06-.11-.06-.19-.11-.1-.21.03-.31.08-.06.38-.28.54-.37.07-.04.08-.06.09-.14,0-.07.06-.16.12-.22.06-.06.27-.21.25-.26-.01-.04.05-.13.07-.15.02-.01.05-.06.06-.08.01-.02.05-.06.08-.06.04,0,.09-.06.09-.09,0-.03.09-.14.13-.14.03,0,.1.02.16-.03.05-.09.18-.16.25-.18l.17-.06s.13-.05.21-.03c.08.02.27.03.27.03l.23.04s.09.01.16.04c.07.03.31.12.31.13,0,0,.11,0,.23.09.13.08.24.22.3.23.06,0,.07.09.07.09,0,0,.06.11.14.15l.11.15s.11.13.16.19l.18.34s.09.08.06.19l.02.45s0,.04.02.1l-.04.22s-.01.02-.03.07c-.02.05-.06.26-.18.3,0,.05-.05.11-.13.19-.09.07-.29.17-.26.2.03.03-.03.01-.07,0-.03-.03-.08-.05-.09.02-.01.09,0,.14-.1.14-.1,0-.26.13-.25.2l-.2.08s-.03.02,0,.09-.06.24-.08.25c0,.02,0,.53-.02.55-.52-.02-1.46.04-1.95.15Z"/><path id="path10609" class="cls-48" d="m47.45,65.6c.11-.05.05.01.15-.09.03-.12,0-.06.06-.1.15-.11.44-.26.65-.33.22-.07.44-.01.68.04.14.03.42.08.69.25.12.08.24.15.36.26.15.14.28.32.39.46.03.03.17.3.3.54.06.1.02.28.02.4,0,.18.06.34-.06.59-.07.17-.08.24-.14.26-.06.26-.4.34-.55.42h-.09c-.06-.11-.27-.34-.35-.43-.26-.28-.33-.58-.67-.69-.29-.35-1.12-.86-1.47-1.15-.17-.17-.12-.11-.1-.21l.14-.22Z"/><path id="path1671" class="cls-48" d="m48.79,68.45c-.28-.22.56-.73.58-.64,0,.04.55.41.54.45-.02.06-.15.17-.45.62-.09.07-.29-.17-.67-.44Z"/><path id="path10603" class="cls-4" d="m48.58,65.05c-.09.01-.15.01-.29.05-.12.03-.38.13-.34.16-.06.05.21.27.31.39.1.12.33.49.38.57.05.08.15.32.23.36l.23.19s.2.25.26.27c.09.2.05.12.21.33.14.2.17.39.17.39,0,0,.24.46.2.43-.04-.02.1.02.15.05.04.03.31-.17.4-.31.02-.05.18-.17.23-.48.05-.29,0-.77,0-.81-.01-.09-.24-.52-.33-.58-.09-.06-.28-.3-.35-.38-.07-.08-.22-.19-.31-.24-.09-.05-.13-.08-.35-.17-.21-.1-.4-.12-.52-.16l-.27-.05Z"/><path id="path10473" class="cls-1" d="m47.75,65.38c-.09.01-.15.03-.12.11.04.1.09.19.09.19,0,0-.13-.13-.18-.09-.05.03-.14.07-.1.11.03.05.14.18.14.18,0,0-.22-.16-.18-.12-.06.05-.1.17,0,.29.1.12.41.47.46.55.05.08.19.19.27.23.08.04.36.22.31.19l-.2-.05s.28.33.35.35c.07-.05.67-.2.63.37-.03.11-.04.19-.04.19,0,0,.11.05.13.13.02.07.14.14.21.17.07.03.21.07.17.05-.04-.02.11.12.15.15.04.03.2-.04.05-.27-.04-.11-.21-.33-.22-.42-.01-.09-.24-.42-.33-.52-.01-.06,0-.09-.07-.16-.08-.06-.21-.22-.28-.3-.07-.08-.14-.12-.23-.17-.09-.05-.63-.55-.73-.73-.1-.1.47.47.54.52.12.09.18.09.02-.14-.06-.11-.4-.61-.69-.89l-.16.08Z"/><path id="path10475" class="cls-13" d="m47.47,65.95c.16.08.32.19.4.34.08.15.18.24.32.32.14.08.21.12.21.12h0"/><path id="path10477" class="cls-5" d="m47.26,66.45c.07.2.13.34.27.47-.03.04-.35-.1-.5-.1,0,0,0-.11.06-.2.06-.09.16-.17.16-.17Z"/><path id="path4303" class="cls-17" d="m50.78,71.25c-.04.16-.25-.5-.08-.53.16.03.3.31.3.42-.13-.01-.12-.07-.22.1Z"/><g id="g10479"><path id="path10481" class="cls-25" d="m51.3,70.92s-.21.05-.21.03c-.03-.09-.05-.16-.15-.23-.09-.07-.26-.24-.08-.37.1-.07.17.06.18.12.01.07.08.16.12.27.04.11.12.14.11.15l.03.02h0Z"/><g id="g10483"><path id="path10485" class="cls-25" d="m50.94,71.41s.11.07.22.02c.07-.06-.05.25-.15.2-.07-.07-.09-.22-.08-.22h0Z"/><g id="g10487"><path id="path10489" class="cls-25" d="m51.21,70.66s.18-.03.21-.03c.02.05.06.21.02.26-.17.15-.32-.2-.29-.21h.06Z"/><g id="g10491"><path id="path10493" class="cls-25" d="m50.79,70.41l-.76.34s-.55.21-.75-.16c-.03-.12-.09-.25-.09-.25l-.11.15c-.16.2-.1.3-.01.44.08.14.09.15.14.22.06.07.32.15.39.15.19,0,.56.07,1.38.31,0-.06-.1-.46-.11-.49-.02-.01-.14-.06-.19-.15-.06-.1.05-.28.17-.13.06.07.04.33.17.31.12-.02.08-.19.06-.26-.02-.07-.11-.16-.16-.19-.11-.08-.15-.22-.12-.28h0Z"/><g id="g10495"><path id="path10497" class="cls-25" d="m48.53,70.51c-.14.05-.32.15-.35.36-.02.17-.07.32-.19.37-.12.05-.27.1-.27.1l.38.2s.16-.03.29-.05c.19-.03.22-.18.25-.33.03-.15.08-.32.15-.37.07-.06.19-.19.24-.26.02-.04-.05-.11-.1-.16-.05-.04-.27.09-.4.14Z"/><path id="path10499" class="cls-25" d="m46.44,71.22c.2.07.39.15.52.3.19-.02.45,0,.53.03.41.2.6,0,.6,0-.34-.21-.71-.28-.88-.72-.2.11-.55.3-.78.39Z"/><path id="path10501" class="cls-25" d="m46.3,70.52c-.06,0-.23.28-.22.42.01.14.19.27.31.28l.55-.25-.56-.35-.09-.09Z"/></g></g></g></g></g><path id="path10505" class="cls-13" d="m49.22,66.57c.14.11.29.24.34.4.06.17.14.27.26.37.12.1.18.15.18.15h0"/><path id="path10507" class="cls-13" d="m48.47,65.64c.14.11.42.17.5.4.06.17.14.27.26.37.12.1.18.15.18.15h0"/><path id="path10509" class="cls-13" d="m48.41,65.25c.14.11.51.27.57.43"/><path id="path10511" class="cls-38" d="m49.54,65.91c.11.11.21.24.24.39.03.15.09.25.18.35.09.1.14.15.14.15h0"/><path id="path10513" class="cls-48" d="m45.99,68.3s.16.2.21.24c.08.07.1.08.19.11.27.05.28.04.5.02.18,0,.24.02.42-.03.14-.04.37-.12.42-.17.03-.02.12-.14.15-.17.03-.05.54-1.21.56-1.12,0,.04.16.1.14.14-.02.06-.5,1.07-.54,1.13-.03.03-.06.06-.09.09-.06.04-.12.09-.17.13-.13.09-.53.22-.67.25-.33.02-.64.3-1.14.01-.22-.3.03-.63.03-.63Z"/><path id="path10515" class="cls-30" d="m47.36,80.48c-.08-.15-.17-.62-.27-.85-.26-.07-.7-.01-1.01-.19-.35-.22.13-.64.1-.8-.02-.01-.09-.09-.11-.12-.01-.06.05-.17.09-.18h0c-.05-.04-.12-.25.11-.24.08-.03.09-.08.12-.13-.03-.02-.1-.06-.11-.06-.19-.11-.1-.21.03-.31.08-.06.38-.28.54-.37.07-.04.08-.06.09-.14,0-.07.06-.16.12-.22s.27-.21.25-.26c-.01-.04.05-.13.07-.15.02-.01.05-.06.06-.08.01-.02.05-.06.08-.06.04,0,.09-.06.09-.09,0-.03.09-.14.13-.14.03,0,.1.02.16-.03.05-.09.18-.16.25-.18l.17-.06s.13-.05.21-.03c.08.02.27.03.27.03l.23.04s.09.01.16.04.31.12.31.13c0,0,.11,0,.23.09.13.08.24.22.3.23.06,0,.07.09.07.09,0,0,.06.11.14.15l.11.15s.11.13.16.19l.18.34s.09.08.06.19l.02.45s0,.04.02.1l-.04.22s-.01.02-.03.07c-.02.05-.06.26-.18.3,0,.05-.05.11-.13.19-.09.07-.29.17-.26.2.03.03-.03.01-.07,0-.03-.03-.08-.05-.09.02-.01.09,0,.14-.1.14-.1,0-.26.13-.25.2l-.2.08s-.03.02,0,.09c.02.07-.06.24-.08.25,0,.02,0,.53-.02.55-.52-.02-1.46.04-1.95.15Z"/><path id="path10611" class="cls-48" d="m47.45,76.34c.11-.05.05.01.15-.09.03-.12,0-.06.06-.1.15-.11.44-.26.65-.33.22-.07.44-.01.68.04.14.03.42.08.69.25.12.08.24.15.36.26.15.14.28.32.39.46.03.03.17.3.3.54.06.1.02.28.02.4,0,.18.06.34-.06.59-.07.17-.08.24-.14.26-.06.26-.4.34-.55.42h-.09c-.06-.11-.27-.34-.35-.43-.26-.28-.33-.58-.67-.69-.29-.35-1.12-.86-1.47-1.15-.17-.17-.12-.11-.1-.21l.14-.22Z"/><path id="path1667" class="cls-48" d="m48.81,79.17c-.28-.22.56-.73.58-.64,0,.04.55.41.54.45-.02.06-.15.17-.45.62-.09.07-.29-.17-.67-.44Z"/><path id="path10618" class="cls-4" d="m48.57,75.8c-.09.01-.15.01-.29.05-.12.03-.38.13-.34.16-.06.05.21.27.31.39.1.12.33.49.38.57.05.08.15.32.23.36l.23.19s.2.25.26.27c.09.2.05.12.21.33.14.2.17.39.17.39,0,0,.24.46.2.43-.04-.02.1.02.15.05.04.03.31-.17.4-.31.02-.05.18-.17.23-.48.05-.29,0-.77,0-.81-.01-.09-.24-.52-.33-.58-.09-.06-.28-.3-.35-.38-.07-.08-.22-.19-.31-.24-.09-.05-.13-.08-.35-.17-.21-.1-.4-.12-.52-.16l-.27-.05Z"/><path id="path10517" class="cls-1" d="m47.75,76.12c-.09.01-.15.03-.12.11.04.1.09.19.09.19,0,0-.13-.13-.18-.09-.05.03-.14.07-.1.11.03.05.14.18.14.18,0,0-.22-.16-.18-.12-.06.05-.1.17,0,.29.1.12.41.47.46.55.05.08.19.19.27.23.08.04.36.22.31.19l-.2-.05s.28.33.35.35c.07-.05.67-.2.63.37-.03.11-.04.19-.04.19,0,0,.11.05.13.13.02.07.14.14.21.17.07.03.21.07.17.05-.04-.02.11.14.15.17.04.03.19-.07.05-.29-.04-.11-.21-.33-.22-.42s-.24-.42-.33-.52c-.01-.06,0-.09-.07-.16-.08-.06-.21-.22-.28-.3-.07-.08-.14-.12-.23-.17-.09-.05-.63-.55-.73-.73-.1-.1.47.47.54.52.12.09.18.09.02-.14-.06-.11-.4-.61-.69-.89l-.16.08Z"/><path id="path10519" class="cls-13" d="m47.47,76.69c.16.09.32.19.4.34.08.15.18.24.32.32.14.08.21.12.21.12h0"/><path id="path10521" class="cls-5" d="m47.26,77.19c.07.2.13.34.27.47-.03.04-.35-.1-.5-.1,0,0,0-.11.06-.2.06-.09.16-.17.16-.17Z"/><path id="path10525" class="cls-14" d="m50.96,85.83s-.21-.02-.21-.04c0-.1,0-.17-.06-.26-.07-.1-.17-.31.04-.38.12-.03.14.11.13.18-.01.07.02.18.03.29,0,.11.07.17.05.18l.02.03h0Z"/><path id="path10529" class="cls-14" d="m50.46,86.18s.09.1.21.09c.09-.04-.13.22-.21.14-.05-.09-.02-.24,0-.23h0Z"/><path id="path10533" class="cls-14" d="m50.96,85.56s.18.03.21.04c0,.06,0,.22-.07.25-.21.09-.24-.29-.21-.3h.06Z"/><path id="path10537" class="cls-14" d="m50.72,85.16l-.91.11s-.54-.06-.62-.31c0-.1.07-.21,0-.23-.07-.02-.17-.05-.17-.05l-.2-.04c-.05.03,0,.36.03.48.03.16,0,.17.03.25.03.09.26.24.32.27.18.07.51.25,1.2.74.02-.06.05-.47.06-.5-.02-.02-.11-.1-.13-.21-.02-.12.13-.25.2-.07.03.09-.07.33.06.35.12.02.14-.16.14-.23,0-.07-.06-.18-.09-.24-.08-.12-.07-.26-.02-.3h0l.08-.04Z"/><g id="g10539"><path id="path10541" class="cls-25" d="m48.03,83.92c-.13.07-.41.12-.57,0-.14-.1-.29-.25-.41-.2-.12.05-.26.13-.26.13l.12-.41s.13-.1.23-.18c.15-.12.28-.04.41.04.13.08.28.16.37.14.09-.02.13-.13.22-.12l.42.12s-.4.42-.53.49Z"/><path id="path10543" class="cls-25" d="m46.84,84.55c-.28.05-.55.23-.77.33.08-.19.09-.4.07-.59.14-.12.31-.32.34-.42.13-.44.41-.43.41-.43-.07.39-.24.54-.05,1.11h0Z"/><path id="path10545" class="cls-25" d="m46.4,85.22s-.26.12-.36.01c-.09-.1-.06-.23.02-.33l.36-.21-.03.52h0Z"/></g><path id="path10549" class="cls-13" d="m49.22,77.31c.14.11.29.24.34.4.06.17.14.27.26.37.12.1.18.15.18.15h0"/><path id="path10551" class="cls-13" d="m48.47,76.38c.14.11.42.17.5.4.06.17.14.27.26.37.12.1.18.15.18.15h0"/><path id="path10553" class="cls-13" d="m48.41,75.99c.14.11.51.27.57.43"/><path id="path10555" class="cls-38" d="m49.54,76.65c.11.11.21.24.24.39.03.15.09.25.18.35.09.1.14.15.14.15h0"/><path id="path10557" class="cls-48" d="m45.99,79.04s.16.2.21.24c.08.07.1.08.19.11.27.05.28.04.5.02.18,0,.24.02.42-.03.14-.04.37-.12.42-.17.03-.02.12-.14.15-.17.03-.05.54-1.21.56-1.12,0,.04.16.1.14.14-.02.06-.5,1.07-.54,1.13-.03.03-.06.06-.09.09-.06.04-.12.09-.17.13-.13.09-.53.22-.67.25-.33.02-.88.08-1.22,0-.02-.26.11-.61.11-.61Z"/><path id="path10559" class="cls-30" d="m39.6,79.85c-.08-.15-.17-.62-.27-.85-.26-.07-.7-.01-1.01-.19-.35-.22.13-.64.1-.8-.02-.01-.09-.09-.11-.12-.01-.06.05-.17.09-.18h0c-.05-.04-.12-.25.11-.24.08-.03.09-.08.12-.13-.03-.02-.1-.06-.11-.06-.19-.11-.1-.21.03-.31.08-.06.38-.28.54-.37.07-.04.08-.06.09-.14,0-.07.06-.16.12-.22.06-.06.27-.21.25-.26-.01-.04.05-.13.07-.15.02-.01.05-.06.06-.08.01-.02.05-.06.08-.06.04,0,.09-.06.09-.09,0-.03.09-.14.13-.14.03,0,.1.02.16-.03.05-.09.18-.16.25-.18l.17-.06s.13-.05.21-.03c.08.02.27.03.27.03l.23.04s.09.01.16.04c.07.03.31.12.31.13,0,0,.11,0,.23.09.13.08.24.22.3.23.06,0,.07.09.07.09,0,0,.06.11.14.15l.11.15s.11.13.16.19l.18.34s.09.08.06.19l.02.45s0,.04.02.1l-.04.22s-.01.02-.03.07c-.02.05-.06.26-.18.3,0,.05-.05.11-.13.19-.09.07-.29.17-.26.2.03.03-.03.01-.07,0-.03-.03-.08-.05-.09.02-.01.09,0,.14-.1.14-.1,0-.26.13-.25.2l-.2.08s-.03.02,0,.09c.02.07-.06.24-.08.25,0,.02,0,.53-.02.55-.52-.02-1.46.04-1.95.15Z"/><path id="path3433" class="cls-48" d="m41.02,78.59c-.28-.22.56-.73.58-.64,0,.04.55.41.54.45-.02.06-.15.17-.45.62-.09.07-.29-.17-.67-.44Z"/><path id="path10613" class="cls-48" d="m39.69,75.7c.11-.05.05.01.15-.09.03-.12,0-.06.06-.1.15-.11.44-.26.65-.33.22-.07.44-.01.68.04.14.03.42.08.69.25.12.08.24.15.36.26.15.14.28.32.39.46.03.03.17.3.3.54.06.1.02.28.02.4,0,.18.06.34-.06.59-.07.17-.08.24-.14.26-.06.26-.4.34-.55.42h-.09c-.06-.11-.27-.34-.35-.43-.26-.28-.33-.58-.67-.69-.29-.35-1.12-.86-1.47-1.15-.17-.17-.12-.11-.1-.21l.14-.22Z"/><path id="path10616" class="cls-4" d="m40.83,75.17c-.09.01-.15.01-.29.05-.12.03-.38.13-.34.16-.06.05.21.27.31.39.1.12.33.49.38.57.05.08.15.32.23.36l.23.19s.2.25.26.27c.09.2.05.12.21.33.14.2.17.39.17.39,0,0,.24.46.2.43-.04-.02.1.02.15.05.04.03.31-.17.4-.31.02-.05.18-.17.23-.48.05-.29,0-.77,0-.81-.01-.09-.24-.52-.33-.58s-.28-.3-.35-.38c-.07-.08-.22-.19-.31-.24-.09-.05-.13-.08-.35-.17-.21-.1-.4-.12-.52-.16l-.27-.05Z"/><path id="path10561" class="cls-1" d="m39.99,75.49c-.09.01-.15.03-.12.11.04.1.09.19.09.19,0,0-.14-.13-.18-.09-.05.03-.14.07-.1.11.03.05.14.18.14.18,0,0-.22-.16-.18-.12-.06.05-.1.17,0,.29.1.12.41.47.46.55.05.08.19.19.27.23.08.04.36.22.31.19l-.2-.05s.28.33.35.35c.07-.05.67-.2.63.37-.03.11-.04.19-.04.19,0,0,.11.05.13.13.02.07.14.14.21.17.07.03.21.07.17.05-.04-.02.15.13.19.16.04.03.14-.11.02-.28-.04-.11-.21-.33-.22-.42-.01-.09-.24-.42-.33-.52-.01-.06,0-.09-.07-.16-.08-.06-.21-.22-.28-.3-.07-.08-.14-.12-.23-.17-.09-.05-.63-.55-.73-.73-.1-.1.47.47.54.52.12.09.18.09.02-.14-.06-.11-.4-.61-.69-.89l-.16.08Z"/><path id="path10563" class="cls-13" d="m39.71,76.06c.16.09.32.19.4.34.08.15.18.24.32.32.14.08.21.12.21.12h0"/><path id="path10565" class="cls-5" d="m39.51,76.56c.07.2.13.34.27.47-.03.04-.35-.1-.5-.1,0,0,0-.11.06-.2.06-.09.16-.17.16-.17Z"/><path id="path10569" class="cls-14" d="m39.92,80.59s.21.01.21,0c.01-.1.03-.16.11-.25.08-.08.22-.28.02-.38-.11-.05-.16.08-.16.15,0,.07-.05.18-.07.29-.02.11-.09.16-.08.17l-.03.03h0Z"/><path id="path10573" class="cls-14" d="m40.41,80.93s-.09.1-.21.09c-.09-.04.13.22.21.14.05-.09.02-.24,0-.23h0Z"/><path id="path10577" class="cls-14" d="m39.96,80.32s-.18,0-.22,0c0,.06-.04.22.02.26.19.13.29-.24.27-.25h-.07Z"/><path id="path1692" class="cls-14" d="m40.55,80.6c.01-.05.18-.3.03-.39-.18-.15-.32.5-.29.51,0,0,.23-.12.26-.12Z"/><path id="path10581" class="cls-14" d="m40.31,79.96l.82.15s.58.07.69-.34c0-.13.13-.5.13-.5l.17.18c.07.18-.05.19-.04.26.01.07.08.19.03.35-.05.16-.05.16-.09.25-.04.08-.28.22-.35.24-.18.05-.53.2-1.26.63-.01-.06-.01-.47-.01-.5.02-.02.12-.09.15-.19.03-.11-.11-.26-.2-.09-.04.08.04.33-.09.34-.12,0-.12-.17-.12-.24,0-.07.07-.18.11-.23.09-.11.09-.25.05-.3h0Z"/><path id="path1694" class="cls-14" d="m42.3,78.42c-.23.04.12.32-.05.52,0,0,.15.22.2.2.3-.12,0-.71-.15-.72Z"/><g id="g10583"><path id="path10585" class="cls-25" d="m42.04,78.64c0,.1,0,.22-.05.36-.05.14-.08.35.07.49.12.12.21.25.18.38s-.08.28-.08.28l.39-.19s.07-.14.14-.26c.09-.17-.01-.28-.11-.4-.1-.12-.21-.25-.21-.34,0-.09-.03-.27-.06-.35-.03-.08-.27.03-.27.03h0Z"/><path id="path10587" class="cls-25" d="m41.46,80.21c0,.28-.13.58-.19.81.18-.12.38-.16.57-.17.1-.16.27-.36.35-.4.41-.2.36-.48.36-.48-.37.14-.49.32-1.08.24h0Z"/><path id="path10589" class="cls-25" d="m40.88,80.76c-.04.05-.07.28.05.35.12.07.24.02.32-.07l.14-.39-.51.12h0Z"/></g><path id="path10593" class="cls-13" d="m41.46,76.68c.14.11.29.24.34.4.06.17.14.27.26.37.12.1.18.15.18.15h0"/><path id="path10595" class="cls-13" d="m40.72,75.75c.14.11.42.17.5.4.06.17.14.27.26.37.12.1.18.15.18.15h0"/><path id="path10597" class="cls-13" d="m40.65,75.36c.14.11.51.27.57.43"/><path id="path10599" class="cls-38" d="m41.79,76.02c.11.11.21.24.24.39.03.15.09.25.18.35.09.1.14.15.14.15h0"/><path id="path10601" class="cls-48" d="m38.23,78.41s.16.2.21.24c.08.07.1.08.19.11.27.05.28.04.5.02.18,0,.24.02.42-.03.14-.04.37-.12.42-.17.03-.02.12-.14.15-.17.03-.05.54-1.21.56-1.12,0,.04.16.1.14.14-.02.06-.5,1.07-.54,1.13-.03.03-.06.06-.09.09-.06.04-.12.09-.17.13-.13.09-.53.22-.67.25-.33.02-.88.08-1.22,0-.02-.26.11-.61.11-.61Z"/><path id="path10620" class="cls-12" d="m48.28,68.01s.07.11.09.13c.02.02.05.03.12.03.1-.03.28-.19.37-.21.15.02.27-.04.33-.07"/><path id="path10622" class="cls-12" d="m48.24,78.75s.07.11.09.13c.02.02.05.03.12.03.1-.03.28-.19.37-.21.15.02.27-.04.33-.07"/><path id="path10624" class="cls-12" d="m40.52,78.12s.07.11.09.13c.02.02.05.03.12.03.1-.03.28-.19.37-.21.15.02.27-.04.33-.07"/><path id="path10632" class="cls-43" d="m48.81,67.66s.01.01.02.02c0,.02,0,.03,0,.04,0,.02,0,.03-.02.04-.01.01-.02.02-.04.02-.02,0-.03,0-.04.01-.02,0-.03,0-.05,0,0,0-.02,0-.03,0-.01,0-.02,0-.03.02-.01.01-.02.03-.03.04-.01.01-.02.03-.03.04-.01,0-.02.01-.04,0-.01,0-.03-.01-.04-.02,0-.01-.01-.03-.02-.04,0,0,0-.01.01-.02"/><path id="path10634" class="cls-48" d="m48.62,67.47c.13-.07.66-.03.34.29-.05.03-.01.07.02.05.36-.4-.21-.46-.35-.39-.06.03-.01.05,0,.04h0Z"/><path id="path10636" class="cls-43" d="m48.83,78.38s.01.01.02.02c0,.02,0,.03,0,.04,0,.02,0,.03-.02.04-.01.01-.02.02-.04.02-.02,0-.03,0-.04.01-.02,0-.03,0-.05,0,0,0-.02,0-.03,0-.01,0-.02,0-.03.02-.01.01-.02.03-.03.04-.01.01-.02.03-.03.04-.01,0-.02.01-.04,0-.01,0-.03-.01-.04-.02,0-.01-.01-.03-.02-.04,0,0,0-.01.01-.02"/><path id="path10638" class="cls-48" d="m48.64,78.2c.13-.07.66-.04.34.29-.05.03-.01.07.02.05.36-.4-.21-.47-.35-.39-.06.03-.01.05,0,.04h0Z"/><path id="path10640" class="cls-43" d="m41.07,77.78s.01.01.02.02c0,.02,0,.03,0,.04,0,.02,0,.03-.02.04-.01.01-.02.02-.04.02-.02,0-.03,0-.04.01-.02,0-.03,0-.05,0,0,0-.02,0-.03,0-.01,0-.02,0-.03.02-.01.01-.02.03-.03.04-.01.01-.02.03-.03.04-.01,0-.02.01-.04,0-.01,0-.03-.01-.04-.02,0-.01-.01-.03-.02-.04,0,0,0-.01.01-.02"/><path id="path10642" class="cls-48" d="m40.88,77.6c.13-.07.66-.04.34.29-.05.03-.01.07.02.05.36-.4-.21-.47-.35-.39-.06.03-.01.05,0,.04h0Z"/><path id="path3400" class="cls-17" d="m49.02,70.31s-.04.2.01.22c.08.03.27.29.42.23.16-.06.76-.31.76-.44,0-.08.57-.54.78-.92.09-.18.24-.83-.07-.99-.3-.16-.79-.22-.82-.16-.04.07-.02-.01-.23.45-.13.3-.5,1.21-.61,1.3-.14.13-.21.25-.25.31Z"/><path id="path4298" class="cls-21" d="m50.24,68.7c-.01-.09-.1-.3-.19-.36l-.09-.06"/><path id="path10644" class="cls-15" d="m50,68.26c.01-.08.05-.06.1,0,.07.13-.1.25-.24.22-.08,0-.08-.1.04-.09.1.03.11-.15.1-.14h0s0,0,0,0h0Z"/><g id="g1689"><path id="path1691" class="cls-25" d="m49.9,79.24c.08.06.17.14.25.26.08.12.23.28.43.24.17-.02.32-.01.41.09.08.1.17.24.17.24l.09-.42s-.07-.15-.12-.27c-.08-.18-.23-.17-.38-.16-.15,0-.33,0-.4-.05-.07-.06-.23-.14-.31-.17-.08-.03-.14.23-.14.23h0Z"/><path id="path1693" class="cls-25" d="m51.3,81.35c.12-.05.12-.42.22-.58-.06-.18-.12-.43-.1-.53.09-.45-.16-.58-.16-.58-.07.21-.5,1.01-.5,1.16-.01.32.47.43.54.52Z"/></g><path id="path10646" class="cls-15" d="m49.98,79.01c.01-.08.05-.06.1,0,.07.13-.1.25-.24.22-.08,0-.08-.11.04-.09.1.03.11-.15.1-.14h0s0,0,0,0h0Z"/><path id="path10648" class="cls-15" d="m42.23,78.38c.01-.08.05-.06.1,0,.07.13-.1.25-.24.22-.08,0-.08-.11.04-.09.1.03.11-.15.1-.14h0s0,0,0,0h0Z"/><path id="path10650" class="cls-48" d="m47.02,67.83c.08,0,.15,0,.23,0,.33,0-.08,0,0,0,.08,0,.15-.04.22-.07l.29-.1c-.07.05-.17.2-.26.2-.17.03-.34,0-.5.01-.08,0-.15,0-.23,0l.25-.04Z"/><path id="path10652" class="cls-48" d="m39.35,77.96c.08,0,.15,0,.23,0,.33,0-.08,0,0,0,.08,0,.16,0,.23-.04l.29-.07c-.07.05-.18.14-.27.14-.17.03-.34,0-.5.01-.08,0-.15,0-.23,0l.25-.04Z"/><path id="path10654" class="cls-48" d="m47.07,78.68c.08,0,.15,0,.23,0,.33,0-.08,0,0,0,.08,0,.16,0,.23-.04l.29-.07c-.07.05-.18.14-.27.14-.17.03-.34,0-.5.01-.08,0-.15,0-.23,0l.25-.04Z"/><path id="path12441" class="cls-27" d="m41.77,51.59c-.12-.04-.24-.07-.36-.11-.18-.05-.37-.03-.51,0-.17.04-.11.36-.11.51,0,.22.52.22.69.22.25,0,.32,0,.43-.11.12-.12-.11-.46-.14-.51Z"/><path id="path12443" class="cls-27" d="m42.44,52.91s-.35,0-.72,0c-.23,0-.22.32-.18.47.04.14.56.18.69.14.25-.06.24-.2.36-.36.11-.15.05-.13-.14-.25Z"/><path id="path12449" class="cls-27" d="m41.17,51.47c-.07-.07-.09-.22-.05-.34.03-.1.14-.11.24-.11.17,0,.35,0,.51.04.14.03.31.01.42.04.09.02.12.05.16.13.05.09.04.23.04.34,0,.09,0,.19-.02.25,0,.04-.24.02-.27.02-.1,0-.2,0-.29-.02-.05-.01-.11-.11-.13-.14-.03-.06-.12-.08-.18-.11-.07-.03-.17-.04-.24-.07-.05-.02-.11-.02-.18-.02Z"/><path id="path12451" class="cls-27" d="m44.74,53.26c-.06-.03-.33.01-.49.05-.18.05-.17.23-.14.38.02.11.25.12.33.14.12.03.21.02.31.09.11.09.26.16.43.16.31,0,.24-.07.36-.27.04-.06.2-.13.25-.18.11-.11-.02-.22-.07-.27-.07-.07-.24-.09-.31-.11-.11-.03-.23-.02-.34-.02s-.22,0-.33.02Z"/><path id="path12455" class="cls-27" d="m47.74,52.6c-.18-.04-.56-.02-.81-.02-.12,0-.22.07-.22.18,0,.18.06.21.24.25.14.04.24.03.36.09.09.05.24.05.34.05.12,0,.19-.06.27-.14.08-.08,0-.21-.02-.29-.02-.09-.07-.11-.16-.13Z"/><path id="path12457" class="cls-27" d="m48.1,52.46c-.02-.11-.54.28-.81.07-.12-.09-.12-.23-.23-.34-.08-.08.13-.23.16-.25.08-.04.17-.08.25-.13.07-.03.33-.09.4-.07.11.03.26.17.36.22.13.06.05.25.05.36,0,.06-.11.12-.18.14Z"/><path id="path12459" class="cls-27" d="m48.34,51.85s-.39-.2-.45-.24c-.11-.05-.07-.16-.04-.24.07-.17.17-.16.4-.16.18,0,.25.07.31-.11.06-.17.11-.18.29-.25.07-.03.23,0,.31,0,.13,0,.13.2.11.29-.03.14-.07.21-.16.31-.06.06-.13.11-.16.18-.03.07-.15.11-.22.13-.15.04-.24.04-.38.09Z"/><path id="path12461" class="cls-27" d="m48.73,51.85c-.1.02.19-.1.29-.07.1.03.16.08.22.14.07.07.07.2.09.29.02.08.09.11.07.22-.02.1-.18.09-.27.09-.14,0-.26-.02-.4-.02-.09,0-.2-.04-.27-.05-.09-.02-.13-.11-.13-.2,0-.12-.03-.22.04-.31.02-.02.39-.08.36-.09Z"/><path id="path12465" class="cls-27" d="m48.32,53.07s.56.1.69.13c.11.02.22.08.27.18.06.13-.05.25-.14.25-.2,0-.26-.03-.45-.07-.12-.02-.24-.05-.36-.09-.2-.07-.17-.06-.13-.25,0-.04.12-.14.13-.14Z"/><path id="path13340" class="cls-36" d="m43.38,53.03c.05-.05-.35,0-.72,0-.23,0-.22.33-.18.48.04.14.56.18.69.15.25-.07.24-.2.36-.37.11-.15.05-.14-.14-.26Z"/><path id="path13342" class="cls-27" d="m42.5,53.42s-.35,0-.72,0c-.23,0-.22.32-.18.47.04.14.56.18.69.14.25-.06.24-.2.36-.36.11-.15.05-.13-.14-.25Z"/><path id="path13344" class="cls-27" d="m41.48,53.86s-.35,0-.72,0c-.23,0-.22.32-.18.47.04.14.56.18.69.14.25-.06.24-.2.36-.36.11-.15.05-.13-.14-.25Z"/><path id="path13346" class="cls-27" d="m45.71,51.47s-.35,0-.72,0c-.23,0-.22.32-.18.47.04.14.56.18.69.14.25-.06.24-.2.36-.36.11-.15.05-.13-.14-.25Z"/><path id="path13348" class="cls-27" d="m43.53,50.48s-.35,0-.72,0c-.23,0-.22.32-.18.47.04.14.56.18.69.14.25-.06.24-.2.36-.36.11-.15.05-.13-.14-.25Z"/><path id="path13350" class="cls-27" d="m47.61,53.35s-.35,0-.72,0c-.23,0-.22.32-.18.47.04.14.56.18.69.14.25-.06.24-.2.36-.36.11-.15.05-.13-.14-.25Z"/><path id="path13352" class="cls-27" d="m38.4,52.1c-.06-.02-.21,0-.31.02-.1.02-.14.06-.21.08-.08.02-.13.1-.16.14-.07.07-.08.03.13.11.1.04.16.08.21.09.08.02.13,0,.24,0,.09,0,.2,0,.25-.04.11-.05.11-.09.11-.22s-.03-.14-.13-.18c-.03-.01-.11,0-.14,0Z"/><path id="path15100" class="cls-27" d="m38.62,52.42c-.06-.02-.21,0-.31.02-.1.02-.14.06-.21.08-.08.02-.13.1-.16.14-.07.07-.08.03.13.11.1.04.16.08.21.09.08.02.13,0,.24,0,.09,0,.2,0,.25-.04.11-.05.11-.09.11-.22s-.03-.14-.13-.18c-.03-.01-.11,0-.14,0Z"/><path id="path15102" class="cls-27" d="m38.84,52.79c-.06-.02-.21,0-.31.02-.1.02-.14.06-.21.08-.08.02-.13.1-.16.14-.07.07-.08.03.13.11.1.04.16.08.21.09.08.02.13,0,.24,0,.09,0,.2,0,.25-.04.11-.05.11-.09.11-.22s-.03-.14-.13-.18c-.03-.01-.11,0-.14,0Z"/><path id="path15104" class="cls-27" d="m39.15,53.16c-.06-.02-.21,0-.31.02-.1.02-.14.06-.21.08-.08.02-.13.1-.16.14-.07.07-.08.03.13.11.1.04.16.08.21.09.08.02.13,0,.24,0,.09,0,.2,0,.25-.04.11-.05.11-.09.11-.22s-.03-.14-.13-.18c-.03-.01-.11,0-.14,0Z"/><path id="path15106" class="cls-27" d="m39.61,53.47c-.06,0-.2.03-.3.07-.09.04-.12.08-.19.11-.07.03-.11.12-.14.16-.06.08-.08.04.14.09.1.02.17.05.22.06.08,0,.13-.02.24-.04.09-.01.2-.04.24-.08.1-.07.09-.1.07-.23-.02-.12-.06-.13-.15-.16-.03,0-.1.02-.13.02Z"/><path id="path15108" class="cls-27" d="m48.68,51.47c.06-.02.21,0,.31.02.1.02.14.06.21.08.08.02.13.1.16.14.07.07.08.03-.13.11-.1.04-.16.08-.21.09-.08.02-.13,0-.24,0-.09,0-.2,0-.25-.04-.11-.05-.11-.09-.11-.22s.03-.14.13-.18c.03-.01.11,0,.14,0Z"/><path id="path15110" class="cls-27" d="m38.6,51.23c-.06-.02-.21,0-.31.02-.1.02-.14.06-.21.08-.08.02-.13.1-.16.14-.07.07-.08.03.13.11.1.04.16.08.21.09.08.02.13,0,.24,0,.09,0,.2,0,.25-.04.11-.05.11-.09.11-.22s-.03-.14-.13-.18c-.03-.01-.11,0-.14,0Z"/><path id="path15112" class="cls-27" d="m38.92,50.87c-.06-.03-.2-.04-.31-.03-.1,0-.14.04-.22.05-.08,0-.14.08-.18.11-.08.06-.09.02.11.13.09.05.14.1.19.12.08.03.13.02.24.04.09.01.2.02.26,0,.11-.04.12-.07.14-.2.02-.12-.01-.14-.1-.2-.02-.02-.1-.02-.13-.02Z"/><path id="path15114" class="cls-27" d="m39.46,50.57c-.06-.03-.2-.06-.3-.05-.1,0-.15.03-.22.03-.08,0-.15.07-.19.09-.08.05-.09.01.1.14.09.06.13.11.18.14.07.04.13.03.24.06.08.02.2.04.25.02.12-.03.13-.06.16-.19.03-.12,0-.14-.08-.21-.02-.02-.1-.02-.13-.03Z"/><path id="path15116" class="cls-27" d="m39.95,53.73c-.06,0-.2.04-.29.09-.09.05-.12.1-.18.13-.07.04-.1.13-.12.17-.05.09-.07.05.15.07.1.01.17.04.22.04.08,0,.13-.03.24-.06.08-.02.19-.06.24-.1.09-.08.08-.11.05-.24-.03-.12-.07-.12-.17-.14-.03,0-.1.03-.13.03Z"/><path id="path15118" class="cls-27" d="m40.05,54.05c-.06,0-.2.04-.29.09-.09.05-.12.1-.18.13-.07.04-.1.13-.12.17-.05.09-.07.05.15.07.1.01.17.04.22.04.08,0,.13-.03.24-.06.08-.02.19-.06.24-.1.09-.08.08-.11.05-.24-.03-.12-.07-.12-.17-.14-.03,0-.1.03-.13.03Z"/><path id="path15120" class="cls-27" d="m43.26,54.81c-.06,0-.2.04-.29.09-.09.05-.12.1-.18.13-.07.04-.1.13-.12.17-.05.09-.07.05.15.07.1.01.17.04.22.04.08,0,.13-.03.24-.06.08-.02.19-.06.24-.1.09-.08.08-.11.05-.24-.03-.12-.07-.12-.17-.14-.03,0-.1.03-.13.03Z"/><path id="path15122" class="cls-27" d="m42.61,54.7c-.06,0-.2.04-.29.09-.09.05-.12.1-.18.13-.07.04-.1.13-.12.17-.05.09-.07.05.15.07.1.01.17.04.22.04.08,0,.13-.03.24-.06.08-.02.19-.06.24-.1.09-.08.08-.11.05-.24-.03-.12-.07-.12-.17-.14-.03,0-.1.03-.13.03Z"/><path id="path15124" class="cls-27" d="m42,54.59c-.06,0-.2.04-.29.09-.09.05-.12.1-.18.13-.07.04-.1.13-.12.17-.05.09-.07.05.15.07.1.01.17.04.22.04.08,0,.13-.03.24-.06.08-.02.19-.06.24-.1.09-.08.08-.11.05-.24-.03-.12-.07-.12-.17-.14-.03,0-.1.03-.13.03Z"/><path id="path15126" class="cls-27" d="m41.62,54.27c-.06,0-.2.04-.29.09-.09.05-.12.1-.18.13-.07.04-.1.13-.12.17-.05.09-.07.05.15.07.1.01.17.04.22.04.08,0,.13-.03.24-.06.08-.02.19-.06.24-.1.09-.08.08-.11.05-.24-.03-.12-.07-.12-.17-.14-.03,0-.1.03-.13.03Z"/><path id="path15128" class="cls-27" d="m40.47,54.1c-.06.03-.16.13-.22.21-.06.08-.06.14-.1.2-.04.06-.03.16-.03.21,0,.1-.04.08.17,0,.1-.04.17-.04.22-.07.07-.04.1-.09.18-.16.07-.06.15-.14.17-.19.05-.11.02-.14-.06-.24-.08-.09-.11-.08-.21-.05-.03,0-.08.07-.1.09Z"/><path id="path15132" class="cls-27" d="m48.83,52.93c.06-.02.21,0,.31.02.1.02.14.06.21.08.08.02.13.1.16.14.07.07.08.03-.13.11-.1.04-.16.08-.21.09-.08.02-.13,0-.24,0-.09,0-.2,0-.25-.04-.11-.05-.11-.09-.11-.22s.03-.14.13-.18c.03-.01.11,0,.14,0Z"/><path id="path15134" class="cls-27" d="m48.78,53.37c.06,0,.2.06.29.12.08.05.11.1.17.14.07.04.09.13.11.18.04.09.07.06-.15.06-.1,0-.17.02-.23.02-.08,0-.12-.04-.23-.08-.08-.03-.19-.07-.23-.12-.08-.08-.07-.12-.03-.24.04-.12.08-.12.18-.13.03,0,.1.03.13.04Z"/><path id="path15136" class="cls-27" d="m44.54,54.75c.06.01.19.09.26.16.07.07.09.12.15.17.06.05.06.15.08.2.03.09.06.07-.16.04-.1-.01-.17,0-.23-.02-.08-.02-.12-.06-.22-.11-.08-.04-.17-.1-.21-.15-.07-.1-.05-.13,0-.24.06-.11.09-.1.2-.1.03,0,.09.05.12.06Z"/><path id="path15138" class="cls-27" d="m48.52,53.76c.06-.02.21,0,.31.02.1.02.14.06.21.08.08.02.13.1.16.14.07.07.08.03-.13.11-.1.04-.16.08-.21.09-.08.02-.13,0-.24,0-.09,0-.2,0-.25-.04-.11-.05-.11-.09-.11-.22s.03-.14.13-.18c.03-.01.11,0,.14,0Z"/><path id="path15140" class="cls-27" d="m48.01,53.94c.06,0,.2.06.28.12.08.05.11.1.17.14.06.04.09.13.11.18.04.09.07.06-.16.06-.1,0-.17.02-.23.02-.08,0-.12-.04-.23-.08-.08-.03-.19-.08-.23-.12-.08-.09-.07-.12-.03-.24.04-.12.08-.12.18-.13.03,0,.1.03.13.04Z"/><path id="path15144" class="cls-27" d="m47.65,54.21c.06,0,.2.06.28.12.08.05.11.1.17.14.06.04.09.13.11.18.04.09.07.06-.16.06-.1,0-.17.02-.23.02-.08,0-.12-.04-.23-.08-.08-.03-.19-.08-.23-.12-.08-.09-.07-.12-.03-.24.04-.12.08-.12.18-.13.03,0,.1.03.13.04Z"/><path id="path15146" class="cls-27" d="m47,54.26c.06,0,.2.06.28.12.08.05.11.1.17.14.06.04.09.13.11.18.04.09.07.06-.16.06-.1,0-.17.02-.23.02-.08,0-.12-.04-.23-.08-.08-.03-.19-.08-.23-.12-.08-.09-.07-.12-.03-.24.04-.12.08-.12.18-.13.03,0,.1.03.13.04Z"/><path id="path15148" class="cls-27" d="m46.65,54.54c.06,0,.2.06.28.12.08.05.11.1.17.15.06.04.09.13.11.18.04.09.07.06-.16.06-.1,0-.17.02-.23.02-.08,0-.12-.04-.23-.08-.08-.03-.19-.07-.23-.12-.08-.09-.07-.12-.03-.24.04-.12.08-.12.18-.13.03,0,.1.03.13.04Z"/><path id="path15150" class="cls-27" d="m45.19,54.75c.06,0,.2.06.28.12.08.05.11.1.17.14.06.04.09.13.11.18.04.09.07.06-.16.06-.1,0-.17.02-.23.02-.08,0-.12-.04-.23-.08-.08-.03-.19-.08-.23-.12-.08-.09-.07-.12-.03-.24.04-.12.08-.12.18-.13.03,0,.1.03.13.04Z"/><path id="path15152" class="cls-27" d="m46.07,54.36c.06.03.16.13.21.22.05.08.06.14.1.2.04.07.02.16.03.21,0,.1.04.08-.17,0-.1-.04-.17-.05-.21-.08-.07-.04-.1-.09-.18-.17-.06-.06-.14-.14-.16-.2-.04-.11-.02-.14.07-.23.08-.09.12-.07.22-.05.03,0,.08.07.1.09Z"/><path id="path15154" class="cls-27" d="m45.68,54.5c.06.03.16.13.21.22.05.08.06.14.1.2.04.06.03.16.03.21,0,.1.04.08-.17,0-.1-.04-.17-.05-.21-.07-.07-.04-.1-.09-.18-.17-.06-.06-.14-.14-.16-.2-.04-.11-.02-.14.07-.23.08-.09.12-.08.22-.05.03,0,.08.07.1.09Z"/><path id="path15156" class="cls-27" d="m48.94,52.51c.06-.02.21,0,.31.02.1.02.14.06.21.08.08.02.13.1.16.14.07.07.08.03-.13.11-.1.04-.16.08-.21.09-.08.02-.13,0-.24,0-.09,0-.2,0-.25-.04-.11-.05-.11-.09-.11-.22s.03-.13.13-.18c.03-.01.11,0,.14,0Z"/><path id="path15158" class="cls-27" d="m38.15,51.66c-.06-.02-.21,0-.31.02-.1.02-.14.06-.21.08-.08.02-.13.1-.16.14-.07.07-.08.03.13.11.1.04.16.08.21.09.08.02.13,0,.24,0,.09,0,.2,0,.25-.04.11-.05.11-.09.11-.22s-.03-.13-.13-.18c-.03-.01-.11,0-.14,0Z"/><path id="path15160" class="cls-27" d="m38.69,51.66c-.06-.02-.21,0-.31.02-.1.02-.14.06-.21.08-.08.02-.13.1-.16.14-.07.07-.08.03.13.11.1.04.16.08.21.09.08.02.13,0,.24,0,.09,0,.2,0,.25-.04.11-.05.11-.09.11-.22s-.03-.13-.13-.18c-.03-.01-.11,0-.14,0Z"/><path id="path15170" class="cls-24" d="m43,51.26s-.27,0-.57,0c-.18,0-.17.26-.14.38.03.12.44.14.54.12.2-.05.19-.16.28-.3.09-.12.04-.11-.11-.21Z"/><path id="path15162" class="cls-27" d="m43.45,51.41c-.06-.02-.21,0-.31.02-.1.02-.14.06-.21.08-.08.02-.13.1-.16.14-.07.07-.08.03.13.11.1.04.16.08.21.09.08.02.13,0,.24,0,.09,0,.2,0,.25-.04.11-.05.11-.09.11-.22s-.03-.13-.13-.18c-.03-.01-.11,0-.14,0Z"/><path id="path15164" class="cls-27" d="m43.43,50.98c-.06-.02-.21,0-.31.02-.1.02-.14.06-.21.08-.08.02-.13.1-.16.14-.07.07-.08.03.13.11.1.04.16.08.21.09.08.02.13,0,.24,0,.09,0,.2,0,.25-.04.11-.05.11-.09.11-.22s-.03-.14-.13-.18c-.03-.01-.11,0-.14,0Z"/><path id="path15168" class="cls-24" d="m43.19,53.63s-.27,0-.57,0c-.18,0-.17.26-.14.38.03.12.44.14.54.12.2-.05.19-.16.28-.3.09-.12.04-.11-.11-.21Z"/><path id="path15172" class="cls-24" d="m42.83,50.79s-.27,0-.57,0c-.18,0-.17.26-.14.38.03.12.44.14.54.12.2-.05.19-.16.28-.3.09-.12.04-.11-.11-.21Z"/><path id="path15174" class="cls-24" d="m41.4,52.11s-.27,0-.57,0c-.18,0-.17.26-.14.38.03.12.44.14.54.12.2-.05.19-.16.28-.3.09-.12.04-.11-.11-.21Z"/><path id="path15176" class="cls-24" d="m42.13,52.07s-.27,0-.57,0c-.18,0-.17.26-.14.38.03.12.44.14.54.12.2-.05.19-.16.28-.3.09-.12.04-.11-.11-.21Z"/><path id="path15178" class="cls-24" d="m42.51,51.64s-.27,0-.57,0c-.18,0-.17.26-.14.38.03.12.44.14.54.12.2-.05.19-.16.28-.3.09-.12.04-.11-.11-.21Z"/><path id="path15180" class="cls-24" d="m41.59,52.47s-.27,0-.57,0c-.18,0-.17.26-.14.38.03.12.44.14.54.12.2-.05.19-.16.28-.3.09-.12.04-.11-.11-.21Z"/><path id="path15182" class="cls-24" d="m40.75,53.64s-.27,0-.57,0c-.18,0-.17.26-.14.38.03.12.44.14.54.12.2-.05.19-.16.28-.3.09-.12.04-.11-.11-.21Z"/><path id="path15186" class="cls-27" d="m48.41,51.67s-.35,0-.72,0c-.23,0-.22.32-.18.47.04.14.56.18.69.14.25-.06.24-.2.36-.36.11-.15.05-.13-.14-.25Z"/><path id="path15188" class="cls-27" d="m40.67,52.34c-.06-.02-.21,0-.31.02-.1.02-.14.06-.21.08-.08.02-.13.1-.16.14-.07.07-.08.03.13.11.1.04.16.08.21.09.08.02.13,0,.24,0,.09,0,.2,0,.25-.04.11-.05.11-.09.11-.22s-.03-.13-.13-.18c-.03-.01-.11,0-.14,0Z"/><path id="path15190" class="cls-27" d="m39.63,50.89c-.06-.02-.21,0-.31.02-.1.02-.14.06-.21.08-.08.02-.13.1-.16.14-.07.07-.08.03.13.11.1.04.16.08.21.09.08.02.13,0,.24,0,.09,0,.2,0,.25-.04.11-.05.11-.09.11-.22s-.03-.13-.13-.18c-.03-.01-.11,0-.14,0Z"/><path id="path15192" class="cls-27" d="m43.64,54.59c-.06-.02-.21,0-.31.02-.1.02-.14.06-.21.08-.08.02-.13.1-.16.14-.07.07-.08.03.13.11.1.04.16.08.21.09.08.02.13,0,.24,0,.09,0,.2,0,.25-.04.11-.05.11-.09.11-.22s-.03-.13-.13-.18c-.03-.01-.11,0-.14,0Z"/><path id="path15194" class="cls-27" d="m40.31,53.29c-.06-.02-.21,0-.31.02-.1.02-.14.06-.21.08-.08.02-.13.1-.16.14-.07.07-.08.03.13.11.1.04.16.08.21.09.08.02.13,0,.24,0,.09,0,.2-.01.25-.04.11-.05.11-.09.11-.22s-.03-.13-.13-.18c-.03-.01-.11,0-.14,0Z"/><path id="path15196" class="cls-24" d="m44,54.18s-.27,0-.57,0c-.18,0-.17.26-.14.38.03.12.44.14.54.12.2-.05.19-.16.28-.3.09-.12.04-.11-.11-.21Z"/><path id="path15198" class="cls-24" d="m45.02,54.23s-.27,0-.57,0c-.18,0-.17.26-.14.38.03.12.44.14.54.12.2-.05.19-.16.28-.3.09-.12.04-.11-.11-.21Z"/><path id="path15200" class="cls-24" d="m45.04,53.72s-.27,0-.57,0c-.18,0-.17.26-.14.38.03.12.44.14.54.12.2-.05.19-.16.28-.3.09-.12.04-.11-.11-.21Z"/><path id="path15202" class="cls-24" d="m44.25,53.72s-.27,0-.57,0c-.18,0-.17.26-.14.38.03.12.44.14.54.12.2-.05.19-.16.28-.3.09-.12.04-.11-.11-.21Z"/><path id="path15204" class="cls-24" d="m44.97,49.96s-.27,0-.57,0c-.18,0-.17.26-.14.38.03.12.44.14.54.12.2-.05.19-.16.28-.3.09-.12.04-.11-.11-.21Z"/><path id="path15256" class="cls-24" d="m45.8,50.5s-.27,0-.57,0c-.18,0-.17.26-.14.38.03.12.44.14.54.12.2-.05.19-.16.28-.3.09-.12.04-.11-.11-.21Z"/><path id="path15206" class="cls-24" d="m45.56,50.21s-.27,0-.57,0c-.18,0-.17.26-.14.38.03.12.44.14.54.12.2-.05.19-.16.28-.3.09-.12.04-.11-.11-.21Z"/><path id="path15208" class="cls-24" d="m46.32,50.42s-.27,0-.57,0c-.18,0-.17.26-.14.38.03.12.44.14.54.12.2-.05.19-.16.28-.3.09-.12.04-.11-.11-.21Z"/><path id="path15210" class="cls-24" d="m42.67,50.24s-.27,0-.57,0c-.18,0-.17.26-.14.38.03.12.44.14.54.12.2-.05.19-.16.28-.3.09-.12.04-.11-.11-.21Z"/><path id="path15212" class="cls-24" d="m41.82,50.19s-.27,0-.57,0c-.18,0-.17.26-.14.38.03.12.44.14.54.12.2-.05.19-.16.28-.3.09-.12.04-.11-.11-.21Z"/><path id="path15214" class="cls-24" d="m46.71,54.15s-.27,0-.57,0c-.18,0-.17.26-.14.38.03.12.44.14.54.12.2-.05.19-.16.28-.3.09-.12.04-.11-.11-.21Z"/><path id="path15216" class="cls-27" d="m41.13,50.23s-.35,0-.72,0c-.23,0-.22.32-.18.47.04.14.56.18.69.14.25-.06.24-.2.36-.36.11-.15.05-.13-.14-.25Z"/><path id="path15220" class="cls-27" d="m40.72,51.82s-.35,0-.72,0c-.23,0-.22.32-.18.47.04.14.56.18.69.14.25-.06.24-.2.36-.36.11-.15.05-.13-.14-.25Z"/><path id="path15222" class="cls-27" d="m43.46,52.13s-.35,0-.72,0c-.23,0-.22.32-.18.47.04.14.56.18.69.14.25-.06.24-.2.36-.36.11-.15.05-.13-.14-.25Z"/><path id="path15224" class="cls-27" d="m45.07,52.41s-.35,0-.72,0c-.23,0-.22.32-.18.47.04.14.56.18.69.14.25-.06.24-.2.36-.36.11-.15.05-.13-.14-.25Z"/><path id="path15226" class="cls-27" d="m45.35,50.77s-.35,0-.72,0c-.23,0-.22.32-.18.47.04.14.56.18.69.14.25-.06.24-.2.36-.36.11-.15.05-.13-.14-.25Z"/><path id="path15228" class="cls-27" d="m46.15,50.93s-.35,0-.72,0c-.23,0-.22.32-.18.47.04.14.56.18.69.14.25-.06.24-.2.36-.36.11-.15.05-.13-.14-.25Z"/><path id="path15230" class="cls-19" d="m45.58,52.04s-.35,0-.72,0c-.23,0-.22.27-.18.4.04.12.56.15.69.12.25-.05.24-.17.36-.31.11-.12.05-.11-.14-.22Z"/><path id="path15232" class="cls-27" d="m46.3,52.56s-.35,0-.72,0c-.23,0-.22.32-.18.47.04.14.56.18.69.14.25-.06.24-.2.36-.36.11-.15.05-.13-.14-.25Z"/><path id="path15234" class="cls-27" d="m44.58,50.37c.06-.02.21,0,.31.02.1.02.14.06.21.08.08.02.13.1.16.14.07.07.08.03-.13.11-.1.04-.16.08-.21.09-.08.02-.13,0-.24,0-.09,0-.2,0-.25-.04-.11-.05-.11-.09-.11-.22s.03-.14.13-.18c.03-.01.11,0,.14,0Z"/><path id="path15236" class="cls-27" d="m44.66,51.21c.06-.02.21,0,.31.02.1.02.14.06.21.08.08.02.13.1.16.14.07.07.08.03-.13.11-.1.04-.16.08-.21.09-.08.02-.13,0-.24,0-.09,0-.2,0-.25-.04-.11-.05-.11-.09-.11-.22s.03-.13.13-.18c.03-.01.11,0,.14,0Z"/><path id="path15238" class="cls-27" d="m48.29,52.26c.06-.02.21,0,.31.02.1.02.14.06.21.08.08.02.13.1.16.14.07.07.08.03-.13.11-.1.04-.16.08-.21.09-.08.02-.13,0-.24,0-.09,0-.2,0-.25-.04-.11-.05-.11-.09-.11-.22s.03-.13.13-.18c.03-.01.11,0,.14,0Z"/><path id="path15240" class="cls-27" d="m47.76,52.39c.06-.02.21,0,.31.02.1.02.14.06.21.08.08.02.13.1.16.14.07.07.08.03-.13.11-.1.04-.16.08-.21.09-.08.02-.13,0-.24,0-.09,0-.2,0-.25-.04-.11-.05-.11-.09-.11-.22s.03-.13.13-.18c.03-.01.11,0,.14,0Z"/><path id="path15242" class="cls-27" d="m47.72,53.71c.06-.02.21,0,.31.02.1.02.14.06.21.08.08.02.13.1.16.14.07.07.08.03-.13.11-.1.04-.16.08-.21.09-.08.02-.13,0-.24,0-.09,0-.2,0-.25-.04-.11-.05-.11-.09-.11-.22s.03-.13.13-.18c.03-.01.11,0,.14,0Z"/><path id="path15244" class="cls-27" d="m47.98,53.38c.06-.02.21,0,.31.02.1.02.14.06.21.08.08.02.13.1.16.14.07.07.08.03-.13.11-.1.04-.16.08-.21.09-.08.02-.13,0-.24,0-.09,0-.2-.01-.25-.04-.11-.05-.11-.09-.11-.22s.03-.14.13-.18c.03-.01.11,0,.14,0Z"/><path id="path15246" class="cls-27" d="m48.23,52.64c.06-.02.21,0,.31.02.1.02.14.06.21.08.08.02.13.1.16.14.07.07.08.03-.13.11-.1.04-.16.08-.21.09-.08.02-.13,0-.24,0-.09,0-.2,0-.25-.04-.11-.05-.11-.09-.11-.22s.03-.13.13-.18c.03-.01.11,0,.14,0Z"/><path id="path15248" class="cls-27" d="m47.72,52.98c.06-.02.21,0,.31.02.1.02.14.06.21.08.08.02.13.1.16.14.07.07.08.03-.13.11-.1.04-.16.08-.21.09-.08.02-.13,0-.24,0-.09,0-.2,0-.25-.04-.11-.05-.11-.09-.11-.22s.03-.13.13-.18c.03-.01.11,0,.14,0Z"/><path id="path15250" class="cls-27" d="m46.95,53.92c.06-.02.21,0,.31.02.1.02.14.06.21.08.08.02.13.1.16.14.07.07.08.03-.13.11-.1.04-.16.08-.21.09-.08.02-.13,0-.24,0-.09,0-.2,0-.25-.04-.11-.05-.11-.09-.11-.22s.03-.13.13-.18c.03-.01.11,0,.14,0Z"/><path id="path15252" class="cls-27" d="m48.01,50.87c.06-.02.21,0,.31.02.1.02.14.06.21.08.08.02.13.1.16.14.07.07.08.03-.13.11-.1.04-.16.08-.21.09-.08.02-.13,0-.24,0-.09,0-.2,0-.25-.04-.11-.05-.11-.09-.11-.22s.03-.14.13-.18c.03-.01.11,0,.14,0Z"/><path id="path15254" class="cls-27" d="m45.88,52.21c.06-.02.21,0,.31.02.1.02.14.06.21.08.08.02.13.1.16.14.07.07.08.03-.13.11-.1.04-.16.08-.21.09-.08.02-.13,0-.24,0-.09,0-.2,0-.25-.04-.11-.05-.11-.09-.11-.22s.03-.14.13-.18c.03-.01.11,0,.14,0Z"/><path id="path15258" class="cls-24" d="m46.83,51.54s-.27,0-.57,0c-.18,0-.17.26-.14.38.03.12.44.14.54.12.2-.05.19-.16.28-.3.09-.12.04-.11-.11-.21Z"/><path id="path15260" class="cls-24" d="m47.1,50.8s-.27,0-.57,0c-.18,0-.17.26-.14.38.03.12.44.14.54.12.2-.05.19-.16.28-.3.09-.12.04-.11-.11-.21Z"/><path id="path15262" class="cls-24" d="m47.72,51.26s-.27,0-.57,0c-.18,0-.17.26-.14.38.03.12.44.14.54.12.2-.05.19-.16.28-.3.09-.12.04-.11-.11-.21Z"/><path id="path15264" class="cls-24" d="m46.47,53.55s-.27,0-.57,0c-.18,0-.17.26-.14.38.03.12.44.14.54.12.2-.05.19-.16.28-.3.09-.12.04-.11-.11-.21Z"/><path id="path15266" class="cls-27" d="m46.57,52.51c.06-.02.21,0,.31.02.1.02.14.06.21.08.08.02.13.1.16.14.07.07.08.03-.13.11-.1.04-.16.08-.21.09-.08.02-.13,0-.24,0-.09,0-.2,0-.25-.04-.11-.05-.11-.09-.11-.22s.03-.13.13-.18c.03-.01.11,0,.14,0Z"/><path id="path15268" class="cls-27" d="m45.84,51.83c.06-.02.21,0,.31.02.1.02.14.06.21.08.08.02.13.1.16.14.07.07.08.03-.13.11-.1.04-.16.08-.21.09-.08.02-.13,0-.24,0-.09,0-.2,0-.25-.04-.11-.05-.11-.09-.11-.22s.03-.14.13-.18c.03-.01.11,0,.14,0Z"/><path id="path15270" class="cls-27" d="m46.33,51.18c.06-.02.21,0,.31.02.1.02.14.06.21.08.08.02.13.1.16.14.07.07.08.03-.13.11-.1.04-.16.08-.21.09-.08.02-.13,0-.24,0-.09,0-.2,0-.25-.04-.11-.05-.11-.09-.11-.22s.03-.13.13-.18c.03-.01.11,0,.14,0Z"/><path id="path15272" class="cls-27" d="m46.69,51.94c.06-.02.21,0,.31.02.1.02.14.06.21.08.08.02.13.1.16.14.07.07.08.03-.13.11-.1.04-.16.08-.21.09-.08.02-.13,0-.24,0-.09,0-.2-.01-.25-.04-.11-.05-.11-.09-.11-.22s.03-.14.13-.18c.03-.01.11,0,.14,0Z"/><path id="path15274" class="cls-27" d="m46.68,50.49c.06-.02.21,0,.31.02.1.02.14.06.21.08.08.02.13.1.16.14.07.07.08.03-.13.11-.1.04-.16.08-.21.09-.08.02-.13,0-.24,0-.09,0-.2,0-.25-.04-.11-.05-.11-.09-.11-.22s.03-.14.13-.18c.03-.01.11,0,.14,0Z"/><path id="path15276" class="cls-27" d="m47.45,50.58c.06-.02.21,0,.31.02.1.02.14.06.21.08.08.02.13.1.16.14.07.07.08.03-.13.11-.1.04-.16.08-.21.09-.08.02-.13,0-.24,0-.09,0-.2,0-.25-.04-.11-.05-.11-.09-.11-.22s.03-.13.13-.18c.03-.01.11,0,.14,0Z"/><path id="path15278" class="cls-27" d="m39.51,52.36c-.06-.03-.2-.06-.3-.05-.1,0-.15.03-.22.03-.08,0-.15.07-.19.09-.08.05-.09.01.1.14.09.06.13.11.18.14.07.04.13.03.24.06.08.02.2.04.25.02.12-.03.13-.06.16-.19.03-.12,0-.14-.08-.21-.02-.02-.1-.02-.13-.03Z"/><path id="path15280" class="cls-27" d="m40.09,50.43c-.06-.03-.2-.06-.3-.05-.1,0-.15.03-.22.03-.08,0-.15.07-.19.09-.08.05-.09.01.1.14.09.06.13.11.18.14.07.04.13.03.24.06.08.02.2.04.25.02.12-.03.13-.06.16-.19.03-.12,0-.14-.08-.21-.02-.02-.1-.02-.13-.03Z"/><path id="path15282" class="cls-27" d="m40.13,52.8c-.06-.03-.2-.06-.3-.05-.1,0-.15.03-.22.03-.08,0-.15.07-.19.09-.08.05-.09.01.1.14.09.06.13.11.18.14.07.04.13.03.24.06.08.02.2.04.25.02.12-.03.13-.06.16-.19.03-.12,0-.14-.08-.21-.02-.02-.1-.02-.13-.03Z"/><path id="path15284" class="cls-27" d="m41,52.76c-.06-.03-.2-.06-.3-.05-.1,0-.15.03-.22.03-.08,0-.15.07-.19.09-.08.05-.09.01.1.14.09.06.13.11.18.14.07.04.13.03.24.06.08.02.2.04.25.02.12-.03.13-.06.16-.19.03-.12,0-.14-.08-.21-.02-.02-.1-.02-.13-.03Z"/><path id="path15286" class="cls-27" d="m41.18,53.25c-.06-.03-.2-.06-.3-.05-.1,0-.15.03-.22.03-.08,0-.15.07-.19.09-.08.05-.09.01.1.14.09.06.13.11.18.14.07.04.13.03.24.06.08.02.2.04.25.02.12-.03.13-.06.16-.19.03-.12,0-.14-.08-.21-.02-.02-.1-.02-.13-.03Z"/><path id="path15288" class="cls-27" d="m40.91,51.19c-.06-.03-.2-.06-.3-.05-.1,0-.15.03-.22.03-.08,0-.15.07-.19.09-.08.05-.09.01.1.14.09.06.13.11.18.14.07.04.13.03.24.06.08.02.2.04.25.02.12-.03.13-.06.16-.19.03-.12,0-.14-.08-.21-.02-.02-.1-.02-.13-.03Z"/><path id="path15290" class="cls-27" d="m41.09,50.77c-.06-.03-.2-.06-.3-.05-.1,0-.15.03-.22.03-.08,0-.15.07-.19.09-.08.05-.09.01.1.14.09.06.13.11.18.14.07.04.13.03.24.06.08.02.2.04.25.02.12-.03.13-.06.16-.19.03-.12,0-.14-.08-.21-.02-.02-.1-.02-.13-.03Z"/><path id="path15292" class="cls-27" d="m39.6,51.77c-.06-.03-.2-.06-.3-.05-.1,0-.15.03-.22.03-.08,0-.15.07-.19.09-.08.05-.09.01.1.14.09.06.13.11.18.14.07.04.13.03.24.06.08.02.2.04.25.02.12-.03.13-.06.16-.19.03-.12,0-.14-.08-.21-.02-.02-.1-.02-.13-.03Z"/><path id="path15294" class="cls-27" d="m39.84,52.17c-.06-.03-.2-.06-.3-.05-.1,0-.15.03-.22.03-.08,0-.15.07-.19.09-.08.05-.09.01.1.14.09.06.13.11.18.14.07.04.13.03.24.06.08.02.2.04.25.02.12-.03.13-.06.16-.19.03-.12,0-.14-.08-.21-.02-.02-.1-.02-.13-.03Z"/><path id="path15296" class="cls-27" d="m43.84,53.42c-.06,0-.21.02-.3.06-.09.04-.13.08-.2.11-.07.03-.11.11-.14.15-.06.08-.08.04.14.09.1.02.16.06.22.06.08.01.13-.02.24-.03.09-.01.2-.03.25-.07.1-.07.1-.1.08-.23-.02-.12-.05-.13-.15-.16-.03,0-.1.01-.13.02Z"/><path id="path15298" class="cls-27" d="m43.67,53.12c-.06-.03-.2-.06-.3-.05-.1,0-.15.03-.22.03-.08,0-.15.07-.19.09-.08.05-.09.01.1.14.09.06.13.11.18.14.07.04.13.03.24.06.08.02.2.04.25.02.12-.03.13-.06.16-.19.03-.12,0-.14-.08-.21-.02-.02-.1-.02-.13-.03Z"/><path id="path2063" class="cls-46" d="m43.61,46.94v.92h-1.2v.67h1.16v3.24s.82.01.82.01l.04-3.25h1.17v-.67s-1.23,0-1.23,0v-.92s-.76,0-.76,0Z"/><path id="path15300" class="cls-27" d="m41.95,50.72c-.06-.03-.2-.06-.3-.05-.1,0-.15.03-.22.03-.08,0-.15.07-.19.09-.08.05-.09.01.1.14.09.06.13.11.18.14.07.04.13.03.24.06.08.02.2.04.25.02.12-.03.13-.06.16-.19.03-.12,0-.14-.08-.21-.02-.02-.1-.02-.13-.03Z"/><path id="path15302" class="cls-27" d="m39.64,52.98c-.06-.03-.2-.06-.3-.05-.1,0-.15.03-.22.03-.08,0-.15.07-.19.09-.08.05-.09.01.1.14.09.06.13.11.18.14.07.04.13.03.24.06.08.02.2.04.25.02.12-.03.13-.06.16-.19.03-.12,0-.14-.08-.21-.02-.02-.1-.02-.13-.03Z"/><path id="path15304" class="cls-27" d="m42.55,54.07c-.06,0-.2.03-.3.08-.09.04-.12.09-.19.12-.07.03-.1.12-.13.17-.05.08-.07.05.15.08.1.02.17.04.22.05.08,0,.13-.03.24-.05.08-.02.19-.05.24-.09.09-.07.09-.11.06-.23-.02-.12-.06-.13-.16-.15-.03,0-.1.02-.13.03Z"/><path id="path15306" class="cls-27" d="m43.11,54.35c-.06-.03-.2-.06-.3-.05-.1,0-.15.03-.22.03-.08,0-.15.07-.19.09-.08.05-.09.01.1.14.09.06.13.11.18.14.07.04.13.03.24.06.08.02.2.04.25.02.12-.03.13-.06.16-.19.03-.12,0-.14-.08-.21-.02-.02-.1-.02-.13-.03Z"/><path id="path15308" class="cls-27" d="m43.27,52.71c-.06-.03-.2-.06-.3-.05-.1,0-.15.03-.22.03-.08,0-.15.07-.19.09-.08.05-.09.01.1.14.09.06.13.11.18.14.07.04.13.03.24.06.08.02.2.04.25.02.12-.03.13-.06.16-.19.03-.12,0-.14-.08-.21-.02-.02-.1-.02-.13-.03Z"/><path id="path15310" class="cls-27" d="m42.32,52.38c-.06-.03-.2-.06-.3-.05-.1,0-.15.03-.22.03-.08,0-.15.07-.19.09-.08.05-.09.01.1.14.09.06.13.11.18.14.07.04.13.03.24.06.08.02.2.04.25.02.12-.03.13-.06.16-.19.03-.12,0-.14-.08-.21-.02-.02-.1-.02-.13-.03Z"/><path id="path15312" class="cls-27" d="m44.73,53.28c.06.03.2.04.31.03.1,0,.14-.04.22-.05.08,0,.14-.08.18-.11.08-.06.09-.02-.11-.13-.09-.05-.14-.1-.19-.12-.08-.03-.13-.02-.24-.04-.09-.01-.2-.02-.26,0-.11.04-.12.07-.14.2-.02.12.01.14.1.2.02.02.1.02.13.02Z"/><path id="path15314" class="cls-27" d="m43.13,51.71c-.06-.03-.2-.06-.3-.05-.1,0-.15.03-.22.03-.08,0-.15.07-.19.09-.08.05-.09.01.1.14.09.06.13.11.18.14.07.04.13.03.24.06.08.02.2.04.25.02.12-.03.13-.06.16-.19.03-.12,0-.14-.08-.21-.02-.02-.1-.02-.13-.03Z"/><path id="path15316" class="cls-27" d="m45.38,54.34c.06.03.2.04.31.03.1,0,.14-.04.22-.05.08,0,.14-.08.18-.11.08-.06.09-.02-.11-.13-.09-.05-.14-.1-.19-.12-.08-.03-.13-.02-.24-.04-.09-.01-.2-.02-.26,0-.11.04-.12.07-.14.2-.02.12.01.14.1.2.02.02.1.02.13.02Z"/><path id="path15318" class="cls-27" d="m46.26,53.49c.06.03.2.04.31.03.1,0,.14-.04.22-.05.08,0,.14-.08.18-.11.08-.06.09-.02-.11-.13-.09-.05-.14-.1-.19-.12-.08-.03-.13-.02-.24-.04-.09-.01-.2-.02-.26,0-.11.04-.12.07-.14.2-.02.12.01.14.1.2.02.02.1.02.13.02Z"/><path id="path15320" class="cls-27" d="m43.72,52.77c.06.03.2.04.31.03.1,0,.14-.04.22-.05.08,0,.14-.08.18-.11.08-.06.09-.02-.11-.13-.09-.05-.14-.1-.19-.12-.08-.03-.13-.02-.24-.04-.09-.01-.2-.02-.26,0-.11.04-.12.07-.14.2-.02.12.01.14.1.2.02.02.1.02.13.02Z"/><path id="path15322" class="cls-27" d="m44.2,52.51c.06.03.2.04.31.03.1,0,.14-.04.22-.05.08,0,.14-.08.18-.11.08-.06.09-.02-.11-.13-.09-.05-.14-.1-.19-.12-.08-.03-.13-.02-.24-.04-.09-.01-.2-.02-.26,0-.11.04-.12.07-.14.2-.02.12.01.14.1.2.02.02.1.02.13.02Z"/><path id="path17945" class="cls-27" d="m40.29,50.83c-.06-.03-.2-.06-.3-.05-.1,0-.15.03-.22.03-.08,0-.15.07-.19.09-.08.05-.09.01.1.14.09.06.13.11.18.14.07.04.13.03.24.06.08.02.2.04.25.02.12-.03.13-.06.16-.19.03-.12,0-.14-.08-.21-.02-.02-.1-.02-.13-.03Z"/><path id="path17947" class="cls-27" d="m39.48,51.37c-.06-.03-.2-.06-.3-.05-.1,0-.15.03-.22.03-.08,0-.15.07-.19.09-.08.05-.09.01.1.14.09.06.13.11.18.14.07.04.13.03.24.06.08.02.2.04.25.02.12-.03.13-.06.16-.19.03-.12,0-.14-.08-.21-.02-.02-.1-.02-.13-.03Z"/><path id="path17949" class="cls-27" d="m40.27,51.41c-.06-.03-.2-.06-.3-.05-.1,0-.15.03-.22.03-.08,0-.15.07-.19.09-.08.05-.09.01.1.14.09.06.13.11.18.14.07.04.13.03.24.06.08.02.2.04.25.02.12-.03.13-.06.16-.19.03-.12,0-.14-.08-.21-.02-.02-.1-.02-.13-.03Z"/><path id="path17951" class="cls-27" d="m47.89,51.3c.06-.02.21,0,.31.02.1.02.14.06.21.08.08.02.13.1.16.14.07.07.08.03-.13.11-.1.04-.16.08-.21.09-.08.02-.13,0-.24,0-.09,0-.2,0-.25-.04-.11-.05-.11-.09-.11-.22s.03-.13.13-.18c.03-.01.11,0,.14,0Z"/><path id="path15166" class="cls-27" d="m44.53,51.52c-.24.02-.19-.11-.51.09-.08.05-.13.23-.09.38.04.14.56.18.69.14.25-.06.24-.2.36-.36.11-.15-.18-.17-.45-.25Z"/><path id="path17955" class="cls-44" d="m44.47,62.6c-.15-.09-.14-.34-.14-.61,0-.17,0-.39-.04-.51-.02-.09-.04-.08-.07-.14"/><path id="path17957" class="cls-45" d="m43.53,62.5c-.05-.18.38-.16.47-.33.05-.11-.05-.37-.07-.47-.02-.07-.07-.1-.07-.22"/><path id="path21452" class="cls-44" d="m43.72,58.03c-.15-.09-.14-.34-.14-.61,0-.17,0-.39-.04-.51-.02-.09-.04-.08-.07-.14"/><path id="path21454" class="cls-44" d="m40.59,62.29c.05-.17.3-.22.57-.28.17-.04.38-.09.49-.15.09-.04.07-.05.12-.1"/><path id="path21456" class="cls-44" d="m44.16,59.95c-.15-.09-.14-.34-.14-.61,0-.17,0-.39-.04-.51-.02-.09-.04-.08-.07-.14"/><path id="path21458" class="cls-44" d="m44.3,56.29c-.15-.09-.14-.34-.14-.61,0-.17,0-.39-.04-.51-.02-.09-.04-.08-.07-.14"/><path id="path22337" class="cls-29" d="m47.95,38.16c-.57.44-1.85,1.44-2.46,1.46-.61.02-1.39-.64-2.02-1.07-1.04.71-1.8,1.33-2.28,1.31-.47-.02-1.35-.8-1.92-1.23-.69.49-1.66,1.6-2.13,1.54-.48-.06-.91-.34-1.72-.94l-.43.33c.21.13,1.46,1.1,2.16,1.07.75-.04,1.59-.99,2.15-1.35.47.31,1.13,1.11,1.99,1.1.55,0,1.52-.79,2.18-1.28.4.25,1.64,1.09,2.07,1.08.74-.01,1.89-1,2.41-1.32.33.38,1.6,1.16,2.13,1.16.64,0,1.49-.73,1.99-1.14.46.49,1.55,1.17,2.2,1.17.52,0,1.79-.9,2.12-1.15.34.33,1.79,1.2,2.07,1.22.56.04,1.84-.8,2.26-1.1.39.36,1.64,1.3,2.23,1.3.59,0,1.8-.84,2.11-1.19.4.34,1.46,1.47,2.12,1.49.84.03,2.13-1.15,2.42-1.3l-.55-.12c-.31.16-1.1.95-1.83.96-.46,0-1.86-1.3-2.1-1.66-.26.33-1.63,1.36-2.17,1.36-.45,0-1.84-1.08-2.17-1.36-.38.26-1.72,1.1-2.24,1.1-.44,0-1.75-.97-2.08-1.31-.28.27-1.67,1.24-2.19,1.23-.51,0-1.68-.93-2.19-1.27-.42.29-1.47,1.25-1.97,1.24-.57,0-1.8-1.01-2.13-1.33Z"/><path id="path1545" class="cls-29" d="m69.21,33.82c-.39-.02-.26-.18-.75.01-.56.29-.66.9-.67,1.17-.2.24-.33.14-.34,1.05.02.64.84,1.04,1.04,1.1.01.68-.17,2.12.67,2.22.68.08.81-.37.86-.89.01-.56.02-1.8-.09-2.58-.17-1.28-.52-2.07-.72-2.07Z"/><path id="path5406" class="cls-29" d="m72.03,29.36c-.33.25-1.8,1.53-1.94,2.07-.12.46-.15.9-.21,1.46-.05.4.08,1.36.08,1.64,0,.27.04.62.04.92,0,.3-.09.65-.34.81-.27.17-.77.11-.97-.05-.21-.17-.33-.56-.29-.82.07-.4.3-.68.38-.94.08-.28.33-1.22.3-1.61-.02-.25-.2-.63-.43-.99-.31-.5-.74-.68-1.24-1.31.76-.1,1.09,0,1.63-.14.63-.31,2.77-1.19,2.99-1.02Z"/><path id="path1543" class="cls-29" d="m35.01,33.96c.39-.02.26-.18.75.01.56.29.66.9.67,1.17.2.24.33.14.34,1.05-.02.64-.84,1.04-1.04,1.1-.01.68.17,2.12-.67,2.22-.68.08-.81-.37-.86-.89-.01-.56-.02-1.8.09-2.58.17-1.28.52-2.07.72-2.07Z"/><path id="path5410" class="cls-29" d="m32.35,29.4c.33.25,1.62,1.53,1.76,2.07.12.46.15.9.21,1.46.05.4-.08,1.36-.08,1.64s-.04.62-.04.92c0,.3.09.78.34.93.27.17.79.04,1-.13.21-.17.31-.61.26-.87-.07-.4-.3-.68-.38-.94-.08-.28-.33-1.22-.3-1.61.02-.25.19-.63.43-.99.26-.4.84-.5,1.34-1.13-.76-.1-1.78-.52-2.3-.96-.55-.36-2.02-.55-2.24-.38Z"/><path id="path1637" class="cls-29" d="m36.11,45.24c-.47,0-.69.74.08.72.38-.01,7.85-.62,16.05-.62,8.33,0,15.35.56,15.85.56.53,0,.59-.79.14-.81-.43-.02-7.61-.47-16.05-.47-8.27,0-15.83.62-16.06.62Z"/><path id="path1639" class="cls-31" d="m68.21,43.38c-.06.3-.05.95.23,1.02.28.08.75-.51.83-.9.08-.37,0-1.02-.29-1.07-.3-.06-.71.65-.77.95Z"/><path id="path3387" class="cls-31" d="m36.11,43.42c.04.3,0,.95-.28,1.01-.29.06-.72-.55-.78-.94-.06-.38.05-1.02.35-1.06.3-.04.68.69.72.98Z"/><path id="path2096" class="cls-46" d="m53.97,64.14h1.76s0,23.86,0,23.86c-.51.09-1.16.26-1.77.3v-24.16Z"/><path id="path1645" class="cls-14" d="m39.5,71.35c-.04.05.03.32.15.44.1.1.17.2.42.14,0,0,.04-.09-.12-.6l-.45.02Z"/><path id="path1647" class="cls-40" d="m41.33,70.55c.11-.03.39-.06.62-.14.25-.08.4-.22.49-.31"/><path id="path2522" class="cls-37" d="m41.87,70.19s0,0,0,.02c.02-.03.01-.02,0,.03-.02.04-.02.07-.05.11-.02.04-.05.07-.07.11"/><path id="path2524" class="cls-37" d="m41.95,70.19s0,0,0,.02c.02-.03.01-.02,0,.03-.02.04-.02.07-.05.11-.02.04-.05.07-.07.11"/><path id="path2526" class="cls-37" d="m42.07,70.13s0,0,0,.01c.02-.03.01-.02,0,.03-.02.04-.02.07-.05.11-.02.04-.05.07-.07.11"/><path id="path2528" class="cls-37" d="m40.34,71.65s0,0,0,.01c.02-.03.01-.02,0,.03-.02.04-.02.07-.05.11-.02.04-.05.07-.07.11"/><path id="path2530" class="cls-37" d="m40.45,71.63s0,0,0,.01c.02-.03.01-.02,0,.03-.02.04-.02.07-.05.11-.02.04-.05.07-.07.11"/><path id="path2532" class="cls-22" d="m39.81,71.73s-.1-.16-.11-.2v-.04"/><path id="path2525" class="cls-17" d="m48.7,70.42s.18-.07.23-.05c.08.03.12.2.15.1.05-.17.33-.19.33-.32,0-.08.49-.5.46-.58-.01-.03.18-1.14.08-1.08-.05.03-.07-.05-.15-.04-.08,0-.14.66-.35,1.12-.13.3-.41.45-.51.54-.14.13-.21.25-.25.31Z"/><path id="path4276" class="cls-37" d="m48.35,71.25s0,0,0,.01c.02-.03.01-.02,0,.03-.02.04-.02.07-.05.11-.02.04-.05.07-.07.11"/><path id="path4278" class="cls-37" d="m48.26,71.26s0,.01,0,.01c.02-.03.01-.02,0,.03-.02.04-.02.07-.05.11-.02.04-.05.07-.07.11"/><path id="path4280" class="cls-37" d="m48.44,71.25s0,0,0,.01c.02-.03.01-.02,0,.03-.02.04-.02.07-.05.11-.02.04-.05.07-.07.11"/><path id="path4282" class="cls-37" d="m46.27,70.7s.04-.07.07-.11"/><path id="path4284" class="cls-37" d="m46.31,70.78s.07-.12.1-.16"/><path id="path4286" class="cls-37" d="m46.4,70.77s.04-.07.07-.11"/><path id="path4288" class="cls-37" d="m49.2,70.8s0,0,0-.01c.02.03.01.02-.02-.02-.03-.04-.05-.06-.07-.09-.02-.04-.04-.07-.06-.11"/><path id="path4290" class="cls-37" d="m49.34,70.41s-.01,0-.02,0c.03,0,.02,0-.02.01-.05.01-.07.03-.11.04-.05.01-.08.02-.13.03"/><path id="path4292" class="cls-37" d="m50.03,68.45s0,.01,0,.02c0-.03,0-.02.01.02.01.05.03.07.04.11.01.05.02.08.03.13"/><path id="path4294" class="cls-37" d="m49.88,68.49s0,.01,0,.02c0-.03,0-.02,0,.03,0,.05,0,.07,0,.12,0,.05-.02.08-.03.12"/><path id="path4296" class="cls-21" d="m50.52,68.57c-.05-.08-.21-.24-.32-.26l-.11-.02"/><path id="path4300" class="cls-23" d="m50.7,68.99c.01.17-.22.61-.26.65l-.04.04"/><path id="path5181" class="cls-48" d="m47.98,67.37s.09,0,.14,0c.2,0-.05,0,0,0,.05,0,.09-.04.13-.07l.18-.1s-.1.2-.16.2c-.1.03-.21,0-.31.01-.05,0-.09,0-.14,0l.16-.04Z"/><path id="path1696" class="cls-37" d="m41.63,80.68s-.03.05-.04.08c-.02.03-.03.06-.05.08-.02.03-.04.05-.06.07,0,0,0,.01,0,.02"/><path id="path1698" class="cls-37" d="m41.72,80.66s-.03.05-.04.08c-.02.03-.03.06-.05.08-.02.03-.04.05-.06.07,0,0,0,.01,0,.02"/><path id="path1700" class="cls-37" d="m42.12,78.6s0,.06,0,.09c0,.03,0,.06,0,.1,0,.03,0,.07-.02.09,0,0,0,.01,0,.02"/><path id="path1704" class="cls-37" d="m42.18,78.61s.03.05.04.08c.01.03.03.06.04.09,0,.03.02.07.02.09,0,0,0,.01,0,.02"/><path id="path1706" class="cls-37" d="m41.29,80.26s-.06,0-.09,0c-.03,0-.06,0-.1,0-.03,0-.07-.01-.09-.02,0,0-.01,0-.02,0"/><path id="path1708" class="cls-37" d="m41.36,80.46s-.2.04-.23.04c-.03,0-.06,0-.1.01-.03,0-.07,0-.09,0,0,0-.01,0-.02,0"/><path id="path1710" class="cls-16" d="m40.96,81s0-.16,0-.2c0-.03.01-.04.01-.04"/><path id="path1712" class="cls-16" d="m41.06,80.98s0-.16,0-.2c0-.03.01-.04.01-.04"/><g id="g3435"><path id="path3437" class="cls-25" d="m49.97,81.65c-.14-.1-.2-.2-.32-.15-.12.05-.12.1-.12.1,0,0,0-.31-.09-.52.07-.15.22-.24.42-.23.09-.02.28.93.11.8Z"/><path id="path3439" class="cls-25" d="m48.72,83.47c-.21.09-.26-.08-.5-.13.08-.19.61-.89.67-.98.11-.19.12-.62.15-.71.13-.44.25-.27.41-.3.13-.08.13-.17.19-.09.05.07.22.76.21.84-.04.26-.23.45-.42.68-.2.23-.5.61-.71.7Z"/></g><path id="path1669" class="cls-14" d="m49.42,81.32s.09-.1.04-.21c-.06-.07.23.05.18.14-.07.07-.23.09-.22.07h0Z"/><path id="path1677" class="cls-14" d="m48.84,84.93c-.01-.06.05-.16.03-.27-.18-.11-.32.12-.29.14,0,0,.22.13.26.13Z"/><path id="path1683" class="cls-14" d="m50.86,82.38c-.15.06-.18.2-.2.33-.02.13-.05.27-.2.3-.18-.06-.42-.41-.42-.41,0-.05.13-.17.11-.3-.02-.19.11-.26.25-.33.13-.07.65.33.46.41Z"/><g id="g1695"><path id="path1697" class="cls-25" d="m51.47,81.37c0,.15-.12.41-.31.48-.15.07-.14.45-.16.57-.02.13-.53-.3-.54-.43-.02-.19.09-.48.22-.55.13-.07.28-.16.32-.24.03-.09-.04-.18.01-.24,0,0,.47.27.46.41Z"/></g><path id="path1681" class="cls-14" d="m50.78,80.94c-.06-.07.26-.09.26.13,0,.18-.23.33-.22.29.04-.1,0-.36-.04-.42Z"/><path id="path1685" class="cls-14" d="m50.14,82.41c0,.18-.13.22-.17.11-.06-.17-.08-.15-.01-.17.05-.01.14.04.18.06Z"/><path id="path4312" class="cls-40" d="m52.15,64.1v24.35"/><path id="path2139" class="cls-46" d="m43.12,64.12l-.02,8.34h-7.02c.02.71,0,1.23.09,2.02h6.93s0,11.74,0,11.74c.67.4,1.32.75,2.07,1.12v-12.87h6.95v-2.02h-6.95s0-8.33,0-8.33h-2.03Z"/><path id="path5260" class="cls-46" d="m57.51,64.15h1.77v22.56c-.48.24-1.17.57-1.76.77v-23.33Z"/><path id="path5262" class="cls-46" d="m61.05,64.16h1.77v20c-.33.32-1.16,1.09-1.76,1.48v-21.48Z"/><path id="path5264" class="cls-46" d="m64.59,64.17h1.77v15.02c-.21.54-1.26,2.35-1.77,2.93v-17.95h0Z"/><path id="path5266" class="cls-37" d="m50.09,79.15s.05.03.08.05c.03.02.05.04.08.05.02.02.05.05.06.07,0,0,.01,0,.02.01"/><path id="path5268" class="cls-37" d="m50.11,79.61s-.03-.05-.04-.08c-.01-.03-.03-.06-.04-.09,0-.03-.02-.07-.02-.09,0,0,0-.01,0-.02"/><path id="path5270" class="cls-37" d="m46.4,84.9s-.06.02-.08.03c-.03.01-.06.02-.09.03-.03,0-.07.01-.09,0,0,0-.01,0-.02,0"/><path id="path5272" class="cls-37" d="m46.42,84.99s-.03.02-.05.03c-.03.01-.06.02-.09.03-.03,0-.07.01-.09,0,0,0-.01,0-.02,0"/><path id="path5274" class="cls-37" d="m48.11,83.61s-.21.12-.23.13c-.03.01-.06.02-.09.03-.03,0-.07.01-.09,0,0,0-.11-.02-.11-.02"/><path id="path5276" class="cls-37" d="m49.42,85.59s-.2-.12-.23-.14c-.02-.02-.05-.04-.07-.07-.02-.02-.04-.05-.05-.08,0,0-.04-.1-.04-.11"/><path id="path5278" class="cls-37" d="m49.16,81.94s0,.24-.01.27c0,.03-.01.06-.02.09-.01.03-.03.06-.04.08,0,0-.07.08-.08.09"/><path id="path5280" class="cls-20" d="m49.67,81.06s.05-.03.08-.04c.03-.01.06-.03.09-.04.03,0,.07-.02.09-.02,0,0,.01,0,.02,0"/><path id="path5284" class="cls-37" d="m49.67,81.17s.05-.03.08-.04c.03-.01.06-.03.09-.04.03,0,.07-.02.09-.02,0,0,.01,0,.02,0"/></g></g></svg>