<svg xmlns="http://www.w3.org/2000/svg" xmlns:xlink="http://www.w3.org/1999/xlink" id="flags" viewBox="0 0 162 116"><defs><style>.cls-1{clip-path:url(#clippath);}.cls-2{fill:none;}.cls-2,.cls-3,.cls-4,.cls-5,.cls-6{stroke-width:0px;}.cls-3{fill:#009b3a;}.cls-4{fill:#fedf00;}.cls-5{fill:#fff;}.cls-6{fill:#002776;}</style><clipPath id="clippath"><circle class="cls-2" cx="81" cy="58" r="28.35"></circle></clipPath></defs><g id="BRASIL"><rect id="_48" class="cls-3" y="1.3" width="162" height="113.4"></rect><path id="_47" class="cls-4" d="m13.77,58l67.23,42.93,67.23-42.93L81,15.07,13.77,58Z"></path><circle id="_46" class="cls-6" cx="81" cy="58" r="28.35"></circle><g id="_45"><g class="cls-1"><path class="cls-5" d="m-4.05,114.7c0-38.02,30.83-68.85,68.85-68.85s68.85,30.83,68.85,68.85h-4.05c0-35.79-29.01-64.8-64.8-64.8S0,78.91,0,114.7h-4.05Z"></path></g></g><path id="_44" class="cls-3" d="m65.87,49.22l2.43.08.02-.5-1.97-.07.02-.69,1.54.05.02-.46-1.54-.05.02-.54,1.85.06.02-.5-2.31-.08-.09,2.7Z"></path><path id="_43" class="cls-3" d="m69.3,49.37l.46.04.16-1.84.38,1.89.42.04.7-1.8-.16,1.84.46.04.24-2.69-.67-.06-.7,1.8-.38-1.89-.67-.06-.24,2.69Z"></path><path id="_42" class="cls-3" d="m74.89,50l2,.34.08-.46-1.54-.26.1-.61,1.25.22.08-.46-1.25-.22.07-.42,1.49.26.08-.46-1.95-.33-.41,2.39Z"></path><rect id="_41" class="cls-3" x="91.82" y="53.36" width=".39" height="1.02" transform="translate(5.92 116.78) rotate(-66.51)"></rect><rect id="_40" class="cls-3" x="91.44" y="54.25" width="1.35" height=".39" transform="translate(5.46 117.21) rotate(-66.5)"></rect><path id="_39" class="cls-3" d="m99.92,58.44c-.15.23,0,.48.33.69.33.21.55.2.64.05.3-.46-1.41-1.14-.89-1.95.45-.69,1.23-.15,1.52.03.29.19.76.67.4,1.22l-.5-.32c.16-.24-.02-.48-.28-.64-.25-.16-.46-.23-.61,0-.25.38,1.42,1.09.91,1.89-.38.59-1.04.33-1.48.05-.37-.24-.93-.8-.57-1.37l.51.33Z"></path><path id="_38" class="cls-3" d="m95.98,57.12l2.11,1.2.25-.44-1.71-.97.34-.6,1.34.76.23-.4-1.34-.76.27-.47,1.61.91.25-.44-2.01-1.14-1.33,2.35Z"></path><path id="_37" class="cls-3" d="m102.82,60.35c-.16.22-.02.48.29.7.31.22.54.23.64.09.32-.45-1.35-1.21-.78-1.99.49-.67,1.24-.09,1.52.11.28.2.73.71.33,1.24l-.48-.34c.17-.24,0-.48-.24-.66-.24-.17-.44-.26-.61-.03-.27.36,1.36,1.16.81,1.94-.41.57-1.05.28-1.48-.02-.36-.26-.89-.85-.5-1.4l.49.35Z"></path><path id="_36" class="cls-3" d="m57.86,48.23c-.09-.74-.7-1.27-1.37-1.19-.67.08-1.13.75-1.04,1.49.09.74.7,1.27,1.37,1.19.67-.08,1.13-.75,1.04-1.49Zm-1.21-.67c.92,0,.92,1.65,0,1.65s-.92-1.65,0-1.65Z"></path><path id="_35" class="cls-3" d="m107.61,63.03c.34-.66.14-1.45-.46-1.76-.6-.31-1.36-.02-1.7.64-.34.66-.14,1.45.46,1.76.6.31,1.36.02,1.7-.64Zm-.61-1.24c.76.52-.17,1.88-.93,1.36-.76-.52.17-1.88.93-1.36Z"></path><path id="_34" class="cls-3" d="m64.64,47.04c-.3-.48-.9-.5-.9-.5l-1.35.02.05,2.7s1.07,0,1.36-.03.62-.19.84-.48c.22-.29.22-.63.21-.84,0-.21.03-.49-.21-.88Zm-1.1,1.71c-.21,0-.61,0-.61,0,0,0-.02-1.36-.03-1.7.56,0,.58,0,.79,0,.4,0,.57.31.65.5.03.22.03.3.04.49-.02.2-.08.37-.25.52-.28.19-.42.19-.6.19Z"></path><path id="_33" class="cls-3" d="m60.96,48.21s.28-.24.35-.58c.07-.34-.14-.62-.23-.7-.09-.08-.28-.27-.56-.26-.28.01-1.65.11-1.65.11l.15,2.7.5-.03-.07-1,.87-.06h.21s.27.43.29.7c.02.16.01.3.01.3h.49s.01-.48-.13-.77c-.14-.29-.24-.39-.24-.39Zm-.3-.42c-.11.09-.4.09-.4.09l-.83.06s-.03-.47-.05-.69c.13,0,.79-.05.8-.06.13,0,.28-.02.28-.02,0,0,.11,0,.22.1.02.01.11.09.11.23,0,.14-.08.26-.13.29Z"></path><path id="_32" class="cls-3" d="m89.47,52.31c.1-.74-.35-1.41-1.02-1.5-.66-.09-1.29.43-1.39,1.17-.1.74.35,1.41,1.02,1.5.66.09,1.29-.43,1.39-1.17Zm-.99-.96c.89.24.46,1.83-.42,1.59-.89-.24-.46-1.83.42-1.59Z"></path><path id="_31" class="cls-3" d="m85.59,51.27s.34-.13.53-.43c.18-.3.07-.63.01-.74-.06-.11-.17-.35-.44-.43-.27-.08-1.6-.44-1.6-.44l-.74,2.6.48.13.26-.97.84.23.2.05s.11.5.05.77c-.04.16-.08.28-.08.28l.46.16s.17-.45.13-.77c-.04-.32-.1-.45-.1-.45Zm-.15-.5c-.13.05-.41-.04-.41-.04l-.81-.22s.12-.46.18-.67c.12.04.76.21.78.21.13.04.27.08.27.08,0,0,.1.04.17.16.02.02.08.13.03.25-.05.13-.16.22-.22.23Z"></path><path id="_30" class="cls-3" d="m95.4,55.24s.35-.1.56-.39c.2-.28.13-.62.08-.73-.05-.11-.14-.36-.4-.46-.26-.1-1.56-.57-1.56-.57l-.96,2.52.47.17.34-.94.82.3.2.07s.07.51-.02.77c-.05.15-.11.28-.11.28l.45.2s.21-.43.2-.75c-.01-.32-.06-.46-.06-.46Zm-.11-.51c-.13.04-.4-.08-.4-.08l-.79-.29s.16-.44.24-.65c.12.05.74.27.76.28.12.05.27.1.27.1,0,0,.1.05.16.18.01.02.06.13,0,.26-.06.12-.18.21-.24.21Z"></path><path id="_29" class="cls-3" d="m82.27,50.36s.34-.14.51-.45c.17-.3.06-.63,0-.74-.06-.1-.18-.34-.45-.42-.27-.07-1.61-.4-1.61-.4l-.68,2.61.49.12.24-.97.85.21.2.05m.29-.51c-.13.05-.41-.03-.41-.03l-.81-.2s.11-.46.16-.67c.12.04.77.19.78.19.13.04.28.07.28.07,0,0,.1.04.18.16.02.02.08.12.03.25-.05.13-.16.22-.21.24Z"></path><path id="_28" class="cls-3" d="m92.31,53.78c-.07-.03-.14-.05-.21-.08-.21.4-.68.68-1.1.4-.76-.52.17-1.88.93-1.36.18.13.27.3.28.48.11.05.24.07.35.12.05.02.1.05.14.07.04-.5-.19-.97-.62-1.2-.6-.31-1.36-.02-1.7.64-.34.66-.14,1.45.46,1.76.6.31,1.36.02,1.7-.64.01-.03.02-.05.04-.08-.09-.04-.18-.08-.27-.12Z"></path><polygon id="_27" class="cls-5" points="90.86 48.84 90.26 49.27 90.49 49.98 89.89 49.54 89.29 49.98 89.52 49.27 88.92 48.84 89.66 48.84 89.89 48.13 90.12 48.84 90.86 48.84"></polygon><polygon id="_26" class="cls-5" points="56.7 52.53 57.42 53.05 57.14 53.89 57.86 53.37 58.57 53.89 58.3 53.05 59.01 52.53 58.13 52.53 57.86 51.69 57.58 52.53 56.7 52.53"></polygon><polygon id="_25" class="cls-5" points="87.96 56.32 88.46 56.68 88.27 57.26 88.76 56.9 89.26 57.26 89.07 56.68 89.56 56.32 88.95 56.32 88.76 55.74 88.58 56.32 87.96 56.32"></polygon><polygon id="_24" class="cls-5" points="62.63 62.97 62.93 63.19 62.82 63.55 63.12 63.33 63.42 63.55 63.3 63.19 63.6 62.97 63.23 62.97 63.12 62.62 63 62.97 62.63 62.97"></polygon><polyline id="_23" class="cls-5" points="60.36 63.61 60.09 64.45 59.21 64.45 59.92 64.97 59.65 65.81 60.36 65.29 61.08 65.81 60.81 64.97 61.52 64.45 60.64 64.45 60.36 63.61"></polyline><polygon id="_22" class="cls-5" points="55.93 67.06 56.53 67.49 56.3 68.19 56.89 67.76 57.49 68.19 57.26 67.49 57.86 67.06 57.12 67.06 56.89 66.36 56.67 67.06 55.93 67.06"></polygon><polygon id="_21" class="cls-5" points="69.27 58.83 69.86 59.25 69.63 59.93 70.22 59.51 70.8 59.93 70.58 59.25 71.16 58.83 70.44 58.83 70.22 58.14 69.99 58.83 69.27 58.83"></polygon><polygon id="_20" class="cls-5" points="65.46 67.29 66 67.68 65.79 68.32 66.33 67.92 66.87 68.32 66.66 67.68 67.2 67.29 66.54 67.29 66.33 66.66 66.13 67.29 65.46 67.29"></polygon><polygon id="_19" class="cls-5" points="64.66 70.26 65.16 70.62 64.97 71.2 65.46 70.84 65.96 71.2 65.77 70.62 66.26 70.26 65.65 70.26 65.46 69.68 65.28 70.26 64.66 70.26"></polygon><polygon id="_18" class="cls-5" points="68.49 72.52 69.2 73.04 68.93 73.88 69.65 73.36 70.36 73.88 70.09 73.04 70.8 72.52 69.92 72.52 69.65 71.68 69.37 72.52 68.49 72.52"></polygon><polygon id="_17" class="cls-5" points="80.03 62.34 80.63 62.78 80.4 63.48 81 63.04 81.6 63.48 81.37 62.78 81.97 62.34 81.23 62.34 81 61.63 80.77 62.34 80.03 62.34"></polygon><polygon id="_16" class="cls-5" points="77.33 64.89 77.83 65.25 77.64 65.83 78.13 65.47 78.63 65.83 78.44 65.25 78.93 64.89 78.32 64.89 78.13 64.31 77.95 64.89 77.33 64.89"></polygon><polygon id="_15" class="cls-5" points="79.07 66.85 79.37 67.07 79.25 67.42 79.55 67.2 79.85 67.42 79.74 67.07 80.04 66.85 79.67 66.85 79.55 66.49 79.44 66.85 79.07 66.85"></polygon><polygon id="_14" class="cls-5" points="83.31 64.82 83.91 65.25 83.68 65.96 84.28 65.52 84.88 65.96 84.65 65.25 85.25 64.82 84.51 64.82 84.28 64.11 84.05 64.82 83.31 64.82"></polygon><polygon id="_13" class="cls-5" points="79.84 70.48 80.56 71 80.29 71.84 81 71.32 81.71 71.84 81.44 71 82.16 70.48 81.27 70.48 81 69.64 80.73 70.48 79.84 70.48"></polygon><polygon id="_12" class="cls-5" points="80.61 80.06 80.84 80.22 80.75 80.49 80.98 80.33 81.21 80.49 81.12 80.22 81.35 80.06 81.07 80.06 80.98 79.79 80.9 80.06 80.61 80.06"></polygon><polygon id="_11" class="cls-5" points="86.44 73.65 86.94 74.01 86.75 74.59 87.24 74.23 87.74 74.59 87.55 74.01 88.04 73.65 87.43 73.65 87.24 73.07 87.06 73.65 86.44 73.65"></polygon><polygon id="_10" class="cls-5" points="88.5 76.77 89.1 77.2 88.87 77.91 89.47 77.47 90.07 77.91 89.84 77.2 90.44 76.77 89.7 76.77 89.47 76.06 89.24 76.77 88.5 76.77"></polygon><polygon id="_9" class="cls-5" points="92.23 74.66 92.73 74.3 92.12 74.3 91.93 73.72 91.74 74.3 91.13 74.3 91.62 74.66 91.43 75.24 91.93 74.88 92.42 75.24 92.23 74.66"></polygon><polygon id="_8" class="cls-5" points="94.28 73.36 94.77 73.72 94.59 74.3 95.08 73.94 95.57 74.3 95.39 73.72 95.88 73.36 95.27 73.36 95.08 72.78 94.89 73.36 94.28 73.36"></polygon><polygon id="_7" class="cls-5" points="94.18 76.04 94.78 76.47 94.55 77.18 95.15 76.74 95.75 77.18 95.52 76.47 96.12 76.04 95.38 76.04 95.15 75.33 94.92 76.04 94.18 76.04"></polygon><polygon id="_6" class="cls-5" points="94.42 79 94.92 79.36 94.73 79.94 95.22 79.58 95.71 79.94 95.53 79.36 96.02 79 95.41 79 95.22 78.42 95.03 79 94.42 79"></polygon><polygon id="_5" class="cls-5" points="97.24 73.86 97.74 74.22 97.55 74.8 98.04 74.44 98.54 74.8 98.35 74.22 98.84 73.86 98.23 73.86 98.04 73.28 97.85 73.86 97.24 73.86"></polygon><polyline id="_4" class="cls-5" points="99.34 72.4 99.94 72.83 99.71 73.54 100.31 73.1 100.91 73.54 100.68 72.83 101.28 72.4 100.54 72.4 100.31 71.69 100.09 72.4 99.36 72.39"></polyline><polygon id="_3" class="cls-5" points="101.04 70.18 101.64 70.62 101.42 71.32 102.02 70.89 102.62 71.32 102.39 70.62 102.99 70.18 102.24 70.18 102.02 69.48 101.79 70.18 101.04 70.18"></polygon><polygon id="_2" class="cls-5" points="99.7 67.56 100.42 68.07 100.15 68.91 100.86 68.39 101.57 68.91 101.3 68.07 102.02 67.56 101.13 67.56 100.86 66.72 100.59 67.56 99.7 67.56"></polygon><polygon id="_1" class="cls-5" points="104.03 67.98 104.52 68.34 104.34 68.92 104.83 68.56 105.32 68.92 105.13 68.34 105.63 67.98 105.02 67.98 104.83 67.4 104.64 67.98 104.03 67.98"></polygon></g></svg>