<svg xmlns="http://www.w3.org/2000/svg" id="flags" viewBox="0 0 162 116"><defs><style>.cls-1,.cls-2,.cls-3,.cls-4,.cls-5{stroke-width:0px;}.cls-2{fill:#cc0001;}.cls-3{fill:#fc0;}.cls-4{fill:#fff;}.cls-5{fill:#010066;}</style></defs><g id="MALASIA"><rect id="red" class="cls-2" y="17.5" width="162" height="81"></rect><rect id="white" class="cls-4" y="92.71" width="162" height="5.79"></rect><g id="use3035"><rect id="white-2" class="cls-4" y="81.14" width="162" height="5.79"></rect></g><g id="use3038"><rect id="white-3" class="cls-4" y="69.57" width="162" height="5.79"></rect></g><g id="use3062"><rect id="white-4" class="cls-4" y="58" width="162" height="5.79"></rect></g><g id="use3064"><rect id="white-5" class="cls-4" y="46.43" width="162" height="5.79"></rect></g><g id="use3066"><rect id="white-6" class="cls-4" y="34.86" width="162" height="5.79"></rect></g><g id="use3068"><rect id="white-7" class="cls-4" y="23.29" width="162" height="5.79"></rect></g><rect id="blue" class="cls-5" y="17.5" width="81" height="46.29"></rect><path id="path4945" class="cls-3" d="m33.33,23.29c-9.61,0-17.42,7.78-17.42,17.36s7.8,17.36,17.42,17.36c3.47,0,6.71-1.02,9.43-2.76-1.58.55-3.28.84-5.05.84-8.52,0-15.44-6.89-15.44-15.39s6.92-15.39,15.44-15.39c1.88,0,3.69.34,5.36.95-2.78-1.87-6.13-2.97-9.73-2.97Z"></path><path id="path4959" class="cls-3" d="m62.21,49.68l-7.34-3.83,2.17,7.83-4.91-6.55-1.53,7.98-1.51-7.98-4.93,6.54,2.19-7.83-7.35,3.81,5.46-6.12-8.31.32,7.64-3.21-7.63-3.23,8.31.34-5.44-6.14,7.34,3.83-2.17-7.83,4.91,6.55,1.53-7.98,1.51,7.98,4.93-6.54-2.19,7.83,7.35-3.81-5.46,6.12,8.31-.32-7.64,3.21,7.63,3.23-8.31-.34,5.44,6.14Z"></path><path class="cls-1" d="m162,98.5H0V17.36h162v81.14ZM.15,98.37h161.7V17.48H.15v80.89Z"></path></g></svg>