<svg xmlns="http://www.w3.org/2000/svg" id="flags" viewBox="0 0 162 116"><defs><style>.cls-1,.cls-2,.cls-3,.cls-4,.cls-5,.cls-6{stroke-width:0px;}.cls-2{fill:#078930;}.cls-3{fill:#da121a;}.cls-4{fill:#fff;}.cls-5{fill:#fcdd09;}.cls-6{fill:#0072bc;}</style></defs><g id="valencia"><rect class="cls-5" y="4.22" width="162" height="107.52"></rect><rect class="cls-6" y="4.22" width="54" height="107.52"></rect><polygon class="cls-3" points="162 28.12 162 16.17 54.08 16.17 54.08 4.22 42.12 4.22 42.12 111.73 54.08 111.73 54.08 99.78 162 99.78 162 87.83 54.08 87.83 54.08 75.9 162 75.9 162 63.95 54.08 63.95 54.08 52 162 52 162 40.05 54.08 40.05 54.08 28.12 162 28.12"></polygon><path class="cls-5" d="m24.65,102.25s-4.9,10.83-7.08,5.64c0,0,.62.24,1.1-.24.43-.43.38-.84-.11-1.43-.53-.65-2.07-.36-2.37.41-.7,1.78.96,4.13,2.48,4.01,3.99-.27,4.42-4.53,7.06-8.16.15-.24-1.07-.22-1.07-.22h0Z"></path><path class="cls-1" d="m18.55,110.7c-.65,0-1.35-.42-1.88-1.15-.54-.73-.96-1.89-.54-2.96.15-.38.62-.69,1.2-.78.54-.08,1.04.05,1.29.36.52.63.56,1.07.11,1.52-.37.37-.82.34-1.04.29.37.82.84,1.24,1.39,1.25,0,0,.01,0,.02,0,2.31,0,5.48-6.94,5.51-7.01l.02-.04h.04c.31,0,1.03,0,1.13.18.01.02.03.07,0,.13-.82,1.13-1.42,2.3-2,3.43-1.25,2.45-2.33,4.57-5.11,4.76-.04,0-.07,0-.11,0Zm-.92-4.78c-.1,0-.19,0-.29.02-.53.08-.96.36-1.1.7-.4,1.02,0,2.13.53,2.83.53.72,1.25,1.14,1.88,1.09,2.71-.18,3.77-2.27,5.01-4.69.58-1.14,1.18-2.31,2-3.45-.04-.07-.49-.12-.97-.12-.12.26-.88,1.9-1.89,3.51-1.47,2.36-2.73,3.55-3.74,3.54-.63,0-1.16-.5-1.56-1.45l-.06-.14.14.05s.59.22,1.04-.23c.4-.4.37-.76-.12-1.35-.18-.21-.5-.33-.87-.33Z"></path><path class="cls-5" d="m24.74,89.8s-4.9-10.83-7.08-5.64c0,0,.62-.24,1.1.24.43.43.38.84-.11,1.43-.53.65-2.07.36-2.37-.41-.7-1.78.96-4.1,2.48-4.01,3.99.27,4.42,4.53,7.06,8.16.14.22-1.07.22-1.07.22h0Z"></path><path class="cls-1" d="m24.74,89.86h-.04l-.02-.04c-.03-.07-3.2-7.01-5.51-7.01,0,0-.01,0-.02,0-.55,0-1.02.43-1.39,1.25.22-.05.67-.08,1.04.29.45.45.41.89-.11,1.52-.25.3-.74.44-1.29.36-.57-.09-1.04-.39-1.2-.78-.35-.88-.15-2,.52-2.92.56-.77,1.33-1.22,2.02-1.18,2.78.19,3.86,2.3,5.11,4.76.58,1.13,1.17,2.3,1.99,3.43.03.04.03.09,0,.12-.09.17-.82.19-1.13.19Zm-5.57-7.17c1.01,0,2.26,1.19,3.72,3.54,1,1.61,1.76,3.24,1.89,3.5.49,0,.93-.06.98-.13-.83-1.12-1.43-2.3-2.01-3.44-1.23-2.42-2.3-4.51-5.01-4.69-.64-.04-1.37.4-1.91,1.13-.5.69-.9,1.79-.5,2.79.14.34.57.62,1.1.7.5.08.95-.04,1.17-.31.49-.58.52-.95.12-1.35-.45-.45-1.01-.24-1.04-.23l-.14.05.06-.14c.4-.95.92-1.44,1.56-1.45,0,0,.01,0,.02,0Z"></path><path class="cls-5" d="m41.18,92.34c-.7,1.35-6.46,3.55-6.46,3.55,0,0,5.61,2.13,6.39,3.55l.08,2.08c-2.86-3.88-5.71-4.25-7.92-4.37-1.56-.08-1.42.84-1.13,1.21,2.56,3.26-.75,4.2-1.24,6.91-.03.14-.41-.46-.53-1.24-.08-.51.08-1.27.08-1.27-1.16,1.89-2.59.38-3.48,2.28,0,0-.19-.29-.29-.38-.27-.24-1.08-.11-1.21-2.26,0-.08-.94.17-.94.17.53-1.78,5.06-3.74,3.88-4.93-1.35-1.29-1.43,2.78-3.53,3.07-.11.03.32-1.18.32-1.18-.99.05-1.42,1.18-1.51,1.85l-.24-.62c-.94-.53.24-3.19-.19-3.64-.33-.36-1.46,1.1-1.94,1.35-.48.24-3.21.24-1.87,1.89.1.14-.27-.75.36-.86.7-.11.67.7.67.76,0,.33-.62,1.18-1.61.7-.05-.03-1.87-1.35.51-3.21,0,0-1.46.89-2.97-.7-.33-.33-.76-.76-1.29-1.1.53-.33.91-.72,1.24-1.08,1.54-1.59,2.97-.72,2.97-.72-2.37-1.87-.57-3.19-.51-3.21.96-.48,1.59.36,1.61.7,0,.08.03.89-.67.76-.62-.11-.27-.99-.36-.86-1.35,1.65,1.4,1.65,1.89,1.89.48.24,1.61,1.7,1.94,1.35.43-.46-.75-3.12.19-3.64l.22-.62c.11.67.55,1.8,1.54,1.85,0,0-.43-1.21-.32-1.18,2.08.27,2.21,4.37,3.53,3.05,1.18-1.16-3.36-3.12-3.88-4.9,0,0,.94.24.94.17.11-2.16.94-2.04,1.18-2.28.1-.1.27-.38.27-.38.89,1.89,2.35.36,3.48,2.26,0,0-.17-.76-.1-1.27.11-.79.51-1.37.53-1.24.53,2.72,3.83,3.62,1.27,6.89-.29.36-.43,1.29,1.16,1.21,2.21-.11,5.06-.51,7.9-4.39l.08,2.07h0Z"></path><path class="cls-1" d="m30.87,105.36h0c-.15,0-.47-.67-.58-1.32-.05-.32,0-.73.03-1-.55.74-1.16.84-1.7.92-.6.09-1.17.18-1.61,1.11l-.05.1-.06-.1c-.05-.08-.2-.3-.28-.37-.04-.04-.11-.07-.19-.11-.35-.16-.92-.42-1.03-2.15-.12,0-.52.09-.86.18l-.11.03.03-.11c.24-.81,1.26-1.63,2.24-2.42.93-.75,1.81-1.46,1.84-2.03,0-.16-.05-.29-.18-.42-.19-.18-.35-.26-.5-.23-.32.06-.59.57-.89,1.17-.45.89-1.01,2-2.08,2.15h-.03s-.03-.02-.03-.02c-.03-.03-.09-.1.28-1.15-.9.12-1.28,1.21-1.35,1.79h-.12s-.23-.59-.23-.59c-.57-.35-.39-1.39-.23-2.31.1-.6.2-1.17.04-1.33-.02-.02-.05-.03-.08-.04,0,0,0,0,0,0-.23,0-.69.43-1.05.78-.28.27-.54.52-.73.61-.11.06-.32.1-.58.15-.6.12-1.42.28-1.59.73-.07.2,0,.46.2.76-.02-.25,0-.65.42-.72.21-.03.38,0,.5.11.22.19.25.52.25.71,0,.21-.19.54-.51.74-.25.15-.65.28-1.19.02,0,0-.66-.45-.74-1.22-.06-.61.25-1.23.93-1.84-.55.16-1.6.26-2.67-.86-.34-.34-.76-.76-1.28-1.09l-.08-.05.09-.05c.52-.32.89-.7,1.23-1.07,1.09-1.12,2.14-1.04,2.68-.88-.71-.64-1.02-1.28-.93-1.91.1-.7.68-1.13.74-1.15.5-.25.89-.14,1.13,0,.33.19.55.53.57.76,0,.34-.08.59-.25.72-.13.11-.3.14-.5.1-.42-.08-.45-.46-.42-.72-.2.3-.27.55-.2.75.16.45,1,.61,1.61.73.27.05.47.09.59.15.18.09.45.34.73.61.37.35.83.79,1.06.78.03,0,.06-.01.08-.04.16-.17.06-.73-.04-1.34-.16-.92-.34-1.97.23-2.31l.21-.6h.12c.13.78.57,1.69,1.38,1.8-.37-1.05-.31-1.12-.28-1.15l.02-.03h.05c1.06.14,1.63,1.25,2.08,2.14.31.6.57,1.12.89,1.17.15.02.31-.05.49-.24.13-.12.18-.26.18-.41-.03-.55-.9-1.25-1.83-2-.99-.8-2.01-1.62-2.25-2.43l-.03-.11.11.03c.35.09.74.17.86.18.1-1.73.67-2.01,1.01-2.17.08-.04.14-.07.18-.11.09-.09.26-.37.26-.37l.06-.1.05.11c.43.92,1,1,1.61,1.09.55.08,1.16.17,1.7.9-.04-.27-.09-.67-.05-.98.1-.7.43-1.31.58-1.32.03,0,.07.02.08.07.18.94.7,1.65,1.2,2.34.9,1.25,1.76,2.44.06,4.61-.15.18-.23.48-.11.72.1.2.4.43,1.22.39,2.35-.12,5.08-.57,7.85-4.37l.11-.15.08,2.27h0c-.65,1.26-5.4,3.17-6.34,3.54.93.36,5.55,2.21,6.26,3.52h0s.08,2.32.08,2.32l-.12-.17c-2.77-3.77-5.52-4.22-7.87-4.34-.63-.03-1.05.1-1.19.38-.12.24-.03.54.11.72,1.69,2.15.84,3.35-.05,4.61-.49.69-1.01,1.41-1.18,2.35,0,.05-.05.07-.08.07Zm-.49-2.63l.12.05s-.15.76-.08,1.25c.09.56.31,1.02.42,1.16.19-.92.69-1.63,1.18-2.32.91-1.28,1.69-2.38.06-4.46-.17-.21-.28-.57-.13-.86.12-.23.44-.5,1.31-.45,2.35.12,5.08.56,7.85,4.23l-.07-1.86c-.78-1.39-6.29-3.49-6.34-3.51l-.16-.06.16-.06c.06-.02,5.71-2.2,6.42-3.51l-.07-1.87c-2.76,3.71-5.49,4.15-7.84,4.27-.89.05-1.22-.22-1.34-.46-.14-.28-.04-.64.13-.85,1.64-2.09.85-3.18-.07-4.45-.49-.68-1-1.39-1.2-2.31-.11.15-.34.6-.42,1.16-.06.49.1,1.24.1,1.25l-.12.05c-.55-.92-1.17-1.01-1.78-1.1-.59-.09-1.2-.18-1.65-1.06-.06.09-.15.23-.22.29-.05.05-.13.09-.22.13-.32.15-.86.41-.95,2.11v.03s-.03.03-.03.03c-.02.02-.08.07-.88-.13.28.74,1.24,1.51,2.17,2.26.95.76,1.84,1.48,1.87,2.09,0,.19-.06.36-.21.5-.21.21-.41.3-.6.27-.38-.06-.66-.61-.99-1.24-.43-.85-.97-1.9-1.94-2.06.02.16.17.65.33,1.09l.03.09h-.1c-.86-.05-1.36-.89-1.55-1.68l-.15.43h-.02c-.51.3-.34,1.31-.19,2.2.11.66.21,1.23.01,1.44-.04.05-.1.07-.17.08-.28,0-.72-.41-1.15-.82-.27-.26-.53-.51-.7-.59-.1-.05-.31-.09-.56-.14-.64-.12-1.51-.29-1.7-.81-.1-.28.01-.63.35-1.04.03-.04.07-.04.09-.03.05.02.04.07.03.14-.05.3-.06.66.3.73.17.03.3,0,.4-.08.13-.11.2-.33.2-.61-.01-.17-.19-.49-.5-.66-.21-.12-.56-.22-1.02.01-.08.04-.62.48-.67,1.13-.05.64.35,1.31,1.19,1.97l-.07.1c-.06-.03-1.41-.82-2.89.71-.33.35-.68.72-1.17,1.04.5.34.92.75,1.22,1.06,1.46,1.53,2.88.7,2.89.69l.07.1c-.83.65-1.23,1.31-1.19,1.94.05.72.67,1.16.68,1.17.49.24.85.12,1.07-.01.29-.18.45-.48.45-.63,0-.14-.02-.46-.2-.61-.1-.08-.23-.11-.4-.08-.35.06-.35.4-.29.72.01.08.02.13-.03.15-.02,0-.06.01-.09-.04-.33-.41-.45-.76-.34-1.04.19-.52,1.05-.69,1.68-.81.24-.05.45-.09.55-.14.17-.08.42-.33.7-.59.42-.4.86-.82,1.14-.82,0,0,0,0,0,0,.07,0,.13.03.17.08.2.21.1.78-.01,1.44-.15.89-.33,1.9.19,2.19h.02s.17.44.17.44c.15-.69.59-1.63,1.53-1.68h.1s-.03.08-.03.08c-.16.44-.31.93-.33,1.09.97-.17,1.51-1.22,1.93-2.07.32-.63.59-1.18.98-1.24.19-.03.39.05.61.26.15.15.22.33.21.52-.03.62-.93,1.35-1.89,2.12-.92.74-1.87,1.51-2.16,2.25.79-.2.85-.15.88-.13l.02.02v.04c.1,1.69.62,1.93.97,2.08.09.04.16.07.22.13.07.06.17.21.24.3.46-.9,1.04-.99,1.65-1.09.6-.09,1.22-.19,1.78-1.11Zm-4.99-.32s0,0,0,0c0,0,0,0,0,0Zm-.03-12.93s0,0,0,0c0,0,0,0,0,0Z"></path><path class="cls-1" d="m26.49,104.61c-.97-2.01.26-3.29,1.57-4.65,1.09-1.14,2.22-2.31,2.15-4.01h-4.21c0,.58-.41,1.08-.9,1.65-.63.74-1.42,1.67-1.6,3.14l-.13-.02c.18-1.51.98-2.45,1.63-3.21.49-.58.88-1.04.87-1.57h-10.79v-.13h10.78c-.07-.52-.5-1.07-.99-1.69-.66-.84-1.41-1.8-1.56-3.04l.13-.02c.15,1.2.88,2.14,1.54,2.97.51.64.95,1.21,1.02,1.77h4.22c-.12-1.5-1.16-2.64-2.16-3.74-1.33-1.46-2.58-2.84-1.57-4.85l.11.06c-.97,1.94.25,3.28,1.55,4.71,1.02,1.12,2.08,2.29,2.2,3.83h4.34v.13h-4.33c.07,1.75-1.08,2.94-2.18,4.1-1.27,1.32-2.47,2.58-1.54,4.51l-.11.06Z"></path><path class="cls-5" d="m32.88,75.71c-.62-1.7-2.42-2.18-3.45-2.21-1.16-.05-2.96,1.54-4.06,2.21-.99.6-2.75-.19-3.05-.89-.62-1.54.36-1.83.84-1.75,0,0-.57,1.1.38.96.6-.1.76-.99.67-1.35-.19-.72-1.22-.65-1.64-.53-1.32.38-1.1,2.23-.65,2.93.65,1.05,2.28,1.21,3.31,1.05,1.59-.24,2.86-1.85,3.8-1.8.24,0,.51.86.27.91-1.59.29-1.37,1.42-1.37,1.42v.03s-.22,1.1,1.37,1.42c.24.05-.08.94-.32.94-.94.05-2.16-1.61-3.74-1.83-1.03-.14-2.67,0-3.31,1.05-.43.7-.65,2.54.65,2.93.41.11,1.42.19,1.64-.53.1-.36-.05-1.27-.67-1.35-.96-.14-.38.96-.38.96-.48.1-1.46-.22-.84-1.75.29-.7,2.07-1.49,3.05-.89,1.1.7,2.91,2.26,4.06,2.21,1.03-.05,2.83-.51,3.45-2.21v-1.98h0v.03Z"></path><path class="cls-1" d="m23.14,81.35c-.24,0-.46-.04-.59-.07-.42-.13-.73-.42-.89-.85-.27-.7-.1-1.68.21-2.17.69-1.12,2.45-1.21,3.38-1.08.86.12,1.6.64,2.25,1.1.57.4,1.06.74,1.48.73.11,0,.31-.35.34-.65,0-.09,0-.16-.03-.16-1.63-.33-1.42-1.48-1.42-1.5h0s-.08-.42.2-.82c.23-.34.65-.57,1.23-.68.03,0,.05-.09.04-.2-.03-.28-.2-.59-.29-.59-.43-.02-.94.32-1.53.72-.66.45-1.41.95-2.26,1.08-.92.14-2.67.06-3.38-1.08-.32-.49-.5-1.45-.24-2.16.16-.44.48-.74.92-.87.28-.08.92-.15,1.34.09.19.11.32.28.38.49.06.26,0,.74-.21,1.06-.13.2-.31.33-.51.36-.27.04-.45-.01-.55-.15-.17-.23-.02-.65.06-.83-.24-.01-.54.07-.71.29-.23.29-.22.77.03,1.39.14.34.67.71,1.28.91.65.21,1.26.19,1.67-.06.29-.18.63-.42.99-.67,1.05-.74,2.24-1.58,3.11-1.55,1.25.03,2.92.64,3.51,2.25h0v2c-.57,1.56-2.19,2.18-3.51,2.25-.9.04-2.17-.87-3.2-1.6-.33-.23-.63-.45-.9-.62-.4-.25-1.01-.27-1.66-.06-.62.2-1.15.58-1.29.92-.26.63-.26,1.12-.02,1.41.18.22.47.29.7.27-.08-.17-.24-.59-.07-.83.1-.14.28-.19.55-.15.21.03.39.15.53.35.22.33.27.81.2,1.08-.15.52-.68.65-1.13.65Zm1.42-4.1c-.91,0-2.07.23-2.58,1.07-.29.47-.45,1.4-.2,2.06.15.4.42.66.81.78.34.1,1.35.21,1.56-.49.06-.2.03-.66-.18-.97-.11-.17-.26-.27-.44-.29-.22-.03-.37,0-.43.1-.14.19.04.62.12.77l.04.07-.08.02c-.27.06-.67-.01-.91-.3-.19-.23-.35-.69,0-1.54.16-.38.71-.77,1.37-.99.69-.22,1.33-.2,1.77.07.27.17.58.39.91.62,1.01.72,2.27,1.62,3.12,1.58.44-.02,2.68-.23,3.39-2.16v-1.93c-.36-.97-1.46-2.11-3.39-2.16-.83-.03-2.05.83-3.03,1.53-.36.26-.7.5-.99.67-.44.27-1.09.29-1.78.07-.66-.21-1.2-.61-1.36-.99-.34-.84-.19-1.29-.01-1.51.23-.29.63-.37.92-.33h.09s-.04.09-.04.09c-.08.15-.25.58-.11.78.07.1.21.13.43.1.17-.03.31-.13.43-.31.2-.31.24-.76.19-.96-.05-.18-.15-.31-.32-.41-.39-.22-.98-.15-1.24-.08-.4.12-.68.38-.83.79-.25.67-.08,1.59.22,2.05.58.95,2.09,1.2,3.25,1.03.82-.12,1.55-.62,2.21-1.06.61-.41,1.14-.77,1.6-.74h0c.22,0,.39.46.42.7.03.26-.08.32-.14.34-.54.1-.93.31-1.14.62-.24.35-.18.72-.18.73v.04c0,.05-.18,1.06,1.32,1.36.06.01.16.07.13.3-.03.26-.23.76-.46.76-.46.03-.97-.33-1.56-.75-.64-.45-1.37-.97-2.2-1.08-.19-.03-.42-.04-.67-.04Z"></path><path class="cls-5" d="m40.82,74.58c-.22,1.13-3.07,2.11-3.07,2.11,0,0,2.81,1.46,3.19,2.64l-.08,1.37c-.91-3.1-4.39-3.34-4.39-3.34.75,1.05,1.4,2.5-.38,3.94,0,0,.53-1.35.27-1.65,0,0-.24.84-1.24,1.61-.41.32-1.54.27-2.04.57l.43-1.37c-.53,1.1-2.02,1.24-2.02,1.24-.1-.38-.05-1.29.41-1.99.86-1.32.67-2.28.67-2.28-.75,1.65-3.69,1.8-4.25,1.4-.08-.05.65-.76.65-.76-.27.05-1-.48-.99-.62.03-.22.51-.67.6-.81,0,0-.55-.46-.57-.67-.03-.14.72-.67.99-.62,0,0-.75-.72-.65-.76.55-.41,3.5-.27,4.25,1.4,0,0,.22-.94-.65-2.28-.46-.7-.51-1.64-.43-1.99,0,0,1.51.14,2.02,1.24l-.43-1.37c.51.29,1.64.24,2.04.57,1,.76,1.24,1.61,1.24,1.61.27-.32-.27-1.65-.27-1.65,1.78,1.43,1.13,2.88.38,3.94,0,0,3.5-.24,4.39-3.34l-.06,1.89h0Z"></path><path class="cls-1" d="m32.96,81.97l.34-1.09c-.65.77-1.76.88-1.81.88h-.05s-.01-.05-.01-.05c-.11-.4-.05-1.33.41-2.04.61-.93.68-1.68.68-2.03-.35.58-1.02,1.02-1.91,1.25-1.01.27-2.02.2-2.33-.03l-.02-.02v-.04c-.02-.08.18-.32.56-.7-.25-.06-.59-.29-.75-.44-.15-.14-.17-.2-.16-.24.02-.16.21-.38.44-.64.05-.06.1-.12.14-.16-.14-.12-.52-.47-.55-.68,0-.05.03-.12.12-.21.16-.15.52-.41.79-.47-.6-.59-.58-.68-.57-.71,0-.02.02-.04.04-.05.31-.23,1.31-.29,2.31-.03.91.24,1.58.68,1.93,1.27.01-.34-.05-1.09-.66-2.03-.47-.71-.52-1.68-.44-2.04v-.06s.07,0,.07,0c.05,0,1.17.12,1.81.87l-.34-1.07.14.08c.23.13.61.19.97.25.44.07.85.14,1.08.32.76.58,1.09,1.2,1.21,1.49.05-.33-.16-1.02-.33-1.45l-.09-.23.19.15c1.78,1.44,1.16,2.9.47,3.91.65-.09,3.43-.61,4.2-3.28l.12.02-.06,1.9c-.2,1.02-2.4,1.89-2.98,2.11.56.3,2.75,1.55,3.09,2.61h0s-.08,1.39-.08,1.39h-.12c-.79-2.66-3.55-3.18-4.2-3.26.69,1.01,1.31,2.47-.47,3.91l-.19.15.09-.22c.17-.43.38-1.13.33-1.45-.12.28-.45.9-1.21,1.49-.22.17-.62.24-1.05.31-.38.06-.76.13-1,.27l-.14.09Zm.49-1.54l.12.05-.39,1.23c.25-.11.58-.16.91-.21.39-.06.8-.13.99-.28.97-.75,1.22-1.57,1.22-1.58l.03-.11.08.09c.22.25-.03,1.07-.17,1.49,1.52-1.36.9-2.68.19-3.69l-.08-.11h.13s3.29.27,4.34,3.08l.06-1.03c-.38-1.14-3.12-2.58-3.15-2.59l-.13-.07.14-.05s2.82-.98,3.03-2.05l.05-1.46c-1.07,2.72-4.28,2.97-4.31,2.97h-.13s.08-.1.08-.1c.72-1.01,1.33-2.34-.18-3.69.15.41.39,1.22.17,1.48l-.08.09-.03-.11s-.25-.84-1.22-1.58c-.2-.17-.62-.23-1.02-.3-.31-.05-.63-.1-.88-.2l.39,1.23-.12.05c-.43-.94-1.63-1.16-1.91-1.2-.06.38,0,1.24.43,1.89.87,1.35.67,2.29.66,2.33l-.04.18-.08-.17c-.39-.87-1.39-1.24-1.94-1.39-.93-.24-1.88-.19-2.19,0,.06.11.36.42.63.68l.15.15-.21-.04c-.11-.02-.36.09-.61.27-.22.15-.3.26-.31.29.02.14.35.46.55.63l.04.04-.03.05s-.1.12-.18.22c-.16.18-.39.44-.41.57,0,.03.11.15.34.31.24.17.47.27.58.25l.21-.04-.15.15c-.27.26-.56.58-.62.69.32.19,1.27.23,2.2-.01.55-.15,1.54-.52,1.93-1.38l.08-.18.04.19s.19,1.01-.68,2.33c-.41.62-.5,1.47-.41,1.89.27-.04,1.46-.26,1.91-1.2Zm-5.1-1.66s0,0,0,0c0,0,0,0,0,0Z"></path><path class="cls-5" d="m24.28,77.05c-.96.03-2.28.7-3.48.53-.86-.11-2.4-1.16-2.4-1.16,0,0,1.56-.81,2.35-.99,1.27-.29,2.54.81,3.5.84.2,0,.22.77.03.77h0Z"></path><path class="cls-1" d="m21.2,77.68c-.13,0-.27,0-.4-.03-.87-.11-2.36-1.12-2.43-1.17l-.09-.06.09-.05c.06-.03,1.58-.82,2.36-1,.78-.18,1.55.15,2.24.44.46.2.9.38,1.28.39.16,0,.22.26.22.48,0,.1-.01.2-.04.27-.04.13-.11.15-.16.15-.39.01-.84.13-1.31.25-.56.15-1.18.31-1.78.31Zm-2.66-1.24c.34.22,1.56.99,2.28,1.09.69.1,1.42-.09,2.13-.28.48-.13.94-.25,1.34-.26h0s.02-.01.04-.07c.02-.06.03-.14.03-.23,0-.23-.06-.35-.1-.35-.4-.01-.85-.2-1.33-.4-.67-.28-1.43-.61-2.16-.44-.66.15-1.89.76-2.24.94Z"></path><path class="cls-5" d="m24.31,75.14c.53-.11.43,1.54.43,1.54,0,.22.08,1.43-.43,1.54-.57-.08-.41-1.54-.41-1.54,0,0-.08-1.56.41-1.54h0Z"></path><path class="cls-1" d="m24.31,78.27h-.01c-.63-.08-.47-1.55-.46-1.61,0-.04-.06-1.19.26-1.51.06-.06.13-.09.2-.09.09-.02.17,0,.24.06.33.28.27,1.41.26,1.54,0,.01,0,.04,0,.07,0,.39.03,1.42-.48,1.52h-.01Zm-.01-3.07s-.08.02-.11.05c-.23.23-.24,1.1-.22,1.42-.04.4-.07,1.4.34,1.47.27-.06.39-.53.37-1.39,0-.03,0-.06,0-.08.02-.33.02-1.23-.22-1.44-.04-.03-.08-.04-.14-.03h0s0,0,0,0c0,0,0,0,0,0Z"></path><path class="cls-5" d="m27.89,76.62l9.94.08m-4.37,3.94l1.42-3.96m-.01,0l-1.4-3.88"></path><polygon class="cls-1" points="33.52 80.65 33.4 80.61 34.79 76.74 27.89 76.69 27.89 76.56 34.78 76.61 33.41 72.81 33.53 72.77 34.92 76.61 37.83 76.63 37.83 76.76 34.93 76.74 33.52 80.65"></polygon><path class="cls-5" d="m24.74,63.85s-4.9,10.83-7.08,5.64c0,0,.62.24,1.1-.24.43-.43.38-.84-.11-1.43-.53-.65-2.07-.36-2.37.41-.7,1.78.96,4.13,2.48,4.01,3.99-.27,4.42-4.53,7.06-8.16.14-.24-1.07-.22-1.07-.22h0Z"></path><path class="cls-1" d="m18.64,72.3c-.65,0-1.35-.42-1.88-1.15-.54-.73-.96-1.89-.54-2.96.15-.38.62-.69,1.2-.78.54-.08,1.04.05,1.29.36.52.63.56,1.07.11,1.52-.37.37-.82.34-1.04.29.37.82.84,1.24,1.39,1.25,0,0,.01,0,.02,0,2.31,0,5.48-6.94,5.51-7.01l.02-.04h.04c.24,0,1.01,0,1.13.18.02.04.02.09,0,.13-.82,1.13-1.42,2.3-2,3.44-1.25,2.45-2.33,4.57-5.11,4.76-.04,0-.07,0-.11,0Zm-.92-4.78c-.1,0-.19,0-.29.02-.53.08-.96.36-1.1.7-.4,1.02,0,2.13.53,2.83.53.72,1.25,1.14,1.88,1.09,2.71-.18,3.77-2.27,5.01-4.69.58-1.14,1.18-2.31,2-3.45-.04-.07-.48-.12-.97-.12-.12.26-.88,1.9-1.89,3.51-1.46,2.35-2.71,3.54-3.72,3.54,0,0-.01,0-.02,0-.63,0-1.16-.5-1.56-1.45l-.06-.14.14.05s.59.22,1.04-.23c.4-.4.37-.76-.12-1.35-.18-.21-.5-.33-.87-.33Z"></path><path class="cls-5" d="m24.82,51.4s-4.9-10.83-7.08-5.64c0,0,.62-.24,1.1.24.43.43.38.84-.11,1.43-.53.65-2.07.36-2.37-.41-.7-1.78.96-4.1,2.48-4.01,3.99.27,4.42,4.53,7.06,8.16.13.24-1.07.22-1.07.22h0Z"></path><path class="cls-1" d="m24.95,51.46c-.05,0-.1,0-.13,0h-.04s-.02-.04-.02-.04c-.03-.07-3.2-7.01-5.51-7.01,0,0-.01,0-.02,0-.55,0-1.02.43-1.39,1.25.22-.05.67-.08,1.04.29.45.45.41.89-.11,1.52-.25.3-.74.44-1.29.36-.57-.09-1.04-.39-1.2-.78-.35-.88-.15-2,.52-2.92.56-.77,1.33-1.22,2.02-1.18,2.78.19,3.86,2.3,5.11,4.76.58,1.13,1.17,2.3,1.99,3.43.03.05.03.1,0,.14-.1.16-.67.18-.99.18Zm-.09-.13c.49,0,.94-.05.97-.12-.82-1.13-1.42-2.31-2-3.44-1.23-2.42-2.3-4.51-5.01-4.69-.64-.04-1.37.4-1.91,1.13-.5.69-.9,1.79-.5,2.79.14.34.57.62,1.1.7.5.08.95-.04,1.17-.31.49-.58.52-.95.12-1.35-.45-.45-1.01-.24-1.04-.23l-.14.05.06-.14c.4-.95.92-1.44,1.56-1.45,0,0,.01,0,.02,0,1.01,0,2.26,1.19,3.72,3.54,1,1.61,1.76,3.24,1.89,3.51Z"></path><path class="cls-5" d="m41.26,53.94c-.7,1.35-6.46,3.55-6.46,3.55,0,0,5.61,2.13,6.39,3.55l.08,2.08c-2.86-3.88-5.71-4.25-7.92-4.37-1.56-.08-1.42.84-1.13,1.21,2.56,3.26-.75,4.2-1.24,6.91-.03.14-.41-.46-.53-1.24-.08-.51.08-1.27.08-1.27-1.16,1.89-2.59.38-3.48,2.28,0,0-.19-.29-.29-.38-.27-.24-1.08-.11-1.21-2.26,0-.08-.94.17-.94.17.53-1.78,5.06-3.74,3.88-4.93-1.35-1.29-1.43,2.78-3.53,3.07-.11.03.32-1.18.32-1.18-.99.05-1.42,1.18-1.51,1.85l-.24-.62c-.94-.53.24-3.19-.19-3.64-.33-.36-1.46,1.1-1.94,1.35s-3.21.24-1.87,1.89c.1.14-.27-.75.36-.86.7-.11.67.7.67.76,0,.33-.62,1.18-1.61.7-.05-.03-1.87-1.35.51-3.24,0,0-1.46.89-2.97-.7-.33-.33-.76-.76-1.29-1.1.53-.33.91-.72,1.24-1.08,1.54-1.61,2.97-.72,2.97-.72-2.37-1.87-.57-3.19-.51-3.21.96-.48,1.59.36,1.61.7,0,.08.03.89-.67.76-.62-.11-.27-.99-.36-.86-1.35,1.65,1.4,1.65,1.89,1.89.48.24,1.61,1.7,1.94,1.35.43-.46-.76-3.12.19-3.64l.22-.62c.11.67.55,1.8,1.54,1.85,0,0-.43-1.21-.32-1.18,2.08.27,2.21,4.37,3.53,3.05,1.18-1.16-3.36-3.12-3.88-4.9,0,0,.94.24.94.17.11-2.16.94-2.04,1.18-2.28.1-.1.27-.38.27-.38.89,1.89,2.35.36,3.48,2.26,0,0-.17-.76-.1-1.27.11-.79.51-1.37.53-1.24.53,2.72,3.83,3.62,1.27,6.89-.29.36-.43,1.27,1.16,1.21,2.21-.11,5.06-.51,7.9-4.39l.08,2.09h0Z"></path><path class="cls-1" d="m30.94,66.96h0c-.15,0-.47-.67-.58-1.32-.05-.32,0-.73.03-1-.55.74-1.16.84-1.7.92-.6.09-1.17.18-1.61,1.11l-.05.1-.06-.1c-.05-.08-.2-.3-.28-.37-.04-.04-.11-.07-.19-.11-.35-.16-.92-.42-1.03-2.15-.12,0-.52.09-.86.18l-.11.03.03-.11c.24-.81,1.26-1.63,2.24-2.42.93-.75,1.81-1.46,1.84-2.03,0-.16-.05-.29-.18-.42-.19-.18-.35-.26-.5-.23-.32.06-.59.57-.89,1.17-.45.89-1.01,2-2.08,2.15h-.03s-.03-.02-.03-.02c-.03-.03-.09-.1.28-1.15-.9.12-1.28,1.21-1.35,1.79h-.12s-.23-.59-.23-.59c-.57-.35-.39-1.39-.23-2.31.1-.6.2-1.17.04-1.33-.02-.02-.05-.03-.08-.04-.23,0-.69.43-1.06.78-.28.27-.54.52-.73.61-.11.06-.32.1-.58.15-.6.12-1.42.28-1.59.73-.07.2,0,.46.2.76-.02-.25,0-.65.42-.72.21-.03.38,0,.5.11.22.19.25.52.25.71,0,.21-.19.54-.51.74-.25.15-.65.28-1.19.02,0,0-.66-.44-.74-1.22-.07-.62.25-1.24.93-1.87-.54.16-1.6.26-2.67-.86-.34-.34-.76-.76-1.28-1.09l-.08-.05.09-.05c.52-.32.89-.7,1.23-1.07,1.08-1.13,2.13-1.05,2.67-.89-.7-.64-1.01-1.28-.92-1.9.1-.7.68-1.13.74-1.15.5-.25.89-.14,1.13,0,.33.19.55.54.57.76,0,.34-.08.59-.25.72-.13.11-.3.14-.5.1-.42-.08-.45-.46-.42-.72-.2.3-.27.55-.2.75.16.45,1,.61,1.61.73.27.05.47.09.59.15.18.09.45.34.73.61.37.35.83.79,1.06.78.03,0,.06-.01.08-.04.16-.17.06-.73-.05-1.33-.16-.92-.34-1.97.23-2.31l.21-.6h.12c.13.78.57,1.69,1.38,1.8-.37-1.05-.31-1.12-.28-1.15l.02-.03h.05c1.06.14,1.63,1.25,2.08,2.14.31.6.57,1.12.89,1.17.15.02.31-.05.49-.24.13-.12.18-.26.18-.41-.03-.55-.9-1.25-1.83-2-.99-.8-2.01-1.62-2.25-2.43l-.03-.11.11.03c.35.09.74.17.86.18.1-1.73.67-2.01,1.01-2.17.08-.04.14-.07.18-.11.09-.09.26-.37.26-.37l.06-.1.05.11c.43.92,1,1,1.61,1.09.55.08,1.16.17,1.7.9-.04-.27-.09-.67-.05-.98.1-.7.43-1.31.58-1.32.03,0,.07.02.08.07.18.94.7,1.65,1.2,2.34.9,1.25,1.76,2.44.06,4.61-.14.18-.23.47-.12.7.1.2.39.44,1.22.4,2.35-.12,5.08-.57,7.85-4.37l.11-.15.08,2.29h0c-.65,1.26-5.4,3.17-6.34,3.54.93.36,5.55,2.21,6.26,3.52h0s.08,2.32.08,2.32l-.12-.17c-2.77-3.77-5.52-4.22-7.87-4.34-.63-.03-1.05.1-1.19.38-.12.24-.03.54.11.72,1.69,2.15.84,3.35-.05,4.61-.49.69-1.01,1.41-1.18,2.35,0,.05-.05.07-.08.07Zm-.49-2.63l.12.05s-.15.76-.08,1.25c.09.56.31,1.02.42,1.16.19-.92.69-1.63,1.18-2.32.91-1.28,1.69-2.38.06-4.46-.17-.21-.28-.57-.13-.86.12-.23.44-.49,1.31-.45,2.35.12,5.08.56,7.85,4.23l-.07-1.86c-.78-1.39-6.29-3.49-6.34-3.51l-.16-.06.16-.06c.06-.02,5.71-2.2,6.42-3.51l-.07-1.9c-2.76,3.71-5.49,4.15-7.84,4.27-.89.04-1.22-.24-1.34-.47-.14-.29-.03-.64.13-.84,1.64-2.09.85-3.18-.07-4.45-.49-.68-1-1.39-1.2-2.31-.11.15-.34.6-.42,1.16-.06.49.1,1.24.1,1.25l-.12.05c-.55-.92-1.17-1.01-1.78-1.1-.59-.09-1.2-.18-1.65-1.06-.06.09-.15.23-.22.29-.05.05-.13.09-.22.13-.32.15-.86.41-.95,2.11v.03s-.03.03-.03.03c-.02.02-.08.07-.88-.13.28.74,1.24,1.51,2.17,2.26.95.76,1.84,1.48,1.87,2.09,0,.19-.06.36-.21.5-.21.21-.41.3-.6.27-.38-.06-.66-.61-.99-1.24-.43-.85-.97-1.9-1.94-2.06.02.16.17.65.33,1.09l.03.09h-.1c-.86-.05-1.36-.89-1.55-1.68l-.15.43h-.02c-.52.3-.34,1.31-.19,2.2.11.66.21,1.23.01,1.44-.04.05-.1.07-.17.08-.28,0-.72-.41-1.15-.82-.27-.26-.53-.51-.7-.59-.1-.05-.31-.09-.56-.14-.64-.12-1.51-.29-1.7-.81-.1-.28.01-.63.35-1.04.03-.04.07-.04.09-.03.05.02.04.07.03.14-.05.3-.06.66.3.73.17.03.3,0,.4-.08.13-.11.2-.33.2-.61-.01-.17-.19-.49-.5-.66-.21-.12-.56-.22-1.02.01-.08.04-.62.48-.67,1.13-.05.64.35,1.31,1.19,1.97l-.07.1c-.06-.04-1.41-.84-2.89.71-.33.35-.68.72-1.17,1.04.5.34.92.75,1.22,1.06,1.46,1.53,2.88.7,2.89.69l.07.1c-.83.66-1.24,1.33-1.19,1.96.05.72.67,1.16.68,1.17.49.24.85.12,1.07-.01.29-.18.45-.48.45-.63,0-.14-.02-.46-.2-.61-.1-.08-.23-.11-.4-.08-.35.06-.35.4-.29.72.01.08.02.13-.03.15-.02,0-.06.01-.09-.04-.33-.41-.45-.76-.34-1.04.19-.52,1.05-.69,1.68-.81.24-.05.45-.09.55-.14.17-.08.42-.33.7-.59.42-.4.86-.82,1.14-.82,0,0,0,0,0,0,.07,0,.13.03.17.08.2.21.1.78-.01,1.44-.15.89-.33,1.9.19,2.19h.02s.17.44.17.44c.15-.69.59-1.63,1.53-1.68h.1s-.03.08-.03.08c-.16.44-.31.93-.33,1.09.97-.17,1.51-1.22,1.93-2.07.32-.63.59-1.18.98-1.24.19-.03.39.05.61.26.15.15.22.33.21.52-.03.62-.93,1.35-1.89,2.12-.92.74-1.87,1.51-2.16,2.25.79-.2.85-.15.88-.13l.02.02v.04c.1,1.69.62,1.93.97,2.08.09.04.16.07.22.13.07.06.17.21.24.3.46-.9,1.04-.99,1.65-1.09.6-.09,1.22-.19,1.78-1.11Zm-4.99-.32s0,0,0,0c0,0,0,0,0,0Zm-.03-12.96s0,0,0,0c0,0,0,0,0,0Z"></path><path class="cls-1" d="m26.56,66.22c-.97-2.01.26-3.29,1.57-4.65,1.08-1.13,2.21-2.3,2.15-3.98h-4.19c0,.57-.42,1.06-.9,1.63-.63.74-1.42,1.67-1.6,3.14l-.13-.02c.18-1.51.98-2.45,1.63-3.21.49-.57.87-1.02.87-1.55h-10.82v-.13h10.81c-.06-.53-.5-1.08-.99-1.72-.66-.84-1.41-1.8-1.56-3.04l.13-.02c.15,1.2.88,2.14,1.54,2.97.51.65.96,1.22,1.02,1.79h4.19c-.11-1.51-1.15-2.66-2.16-3.77-1.33-1.46-2.58-2.84-1.57-4.85l.11.06c-.97,1.94.25,3.28,1.55,4.71,1.03,1.13,2.09,2.3,2.2,3.86h4.33v.13h-4.33c.06,1.74-1.08,2.92-2.18,4.07-1.27,1.32-2.47,2.58-1.54,4.51l-.11.06Z"></path><path class="cls-5" d="m24.58,25.86s-4.9,10.83-7.08,5.64c0,0,.62.24,1.1-.24.43-.43.38-.84-.11-1.43-.53-.65-2.07-.36-2.37.41-.7,1.78.96,4.13,2.48,4.01,3.99-.27,4.42-4.53,7.06-8.16.14-.24-1.07-.22-1.07-.22h0Z"></path><path class="cls-1" d="m18.48,34.3c-.65,0-1.35-.42-1.88-1.15-.54-.73-.96-1.89-.54-2.96.15-.38.62-.69,1.2-.78.54-.08,1.04.05,1.29.36.52.63.56,1.07.11,1.52-.37.37-.82.34-1.04.29.37.82.84,1.24,1.39,1.25,0,0,.01,0,.02,0,2.31,0,5.48-6.94,5.51-7.01l.02-.04h.04c.24,0,1.01,0,1.13.18.02.04.02.09,0,.13-.82,1.13-1.42,2.3-2,3.44-1.25,2.45-2.33,4.57-5.11,4.76-.04,0-.07,0-.11,0Zm-.92-4.78c-.1,0-.19,0-.29.02-.53.08-.96.36-1.1.7-.4,1.02,0,2.13.53,2.83.53.72,1.26,1.14,1.88,1.09,2.71-.18,3.77-2.27,5.01-4.69.58-1.14,1.18-2.31,2-3.45-.04-.07-.48-.12-.97-.12-.12.26-.88,1.9-1.89,3.51-1.46,2.35-2.71,3.54-3.72,3.54,0,0-.01,0-.02,0-.63,0-1.16-.5-1.56-1.45l-.06-.14.14.05s.59.22,1.04-.23c.4-.4.37-.76-.12-1.35-.18-.21-.5-.33-.87-.33Z"></path><path class="cls-5" d="m24.65,13.41s-4.9-10.83-7.08-5.64c0,0,.62-.24,1.1.24.43.43.38.84-.11,1.43-.53.65-2.07.36-2.37-.41-.7-1.78.96-4.13,2.48-4.01,3.96.29,4.42,4.53,7.06,8.19.15.22-1.07.19-1.07.19h0Z"></path><path class="cls-1" d="m24.81,13.47c-.06,0-.12,0-.16,0h-.04s-.02-.04-.02-.04c-.03-.07-3.2-7.01-5.51-7.01,0,0-.01,0-.02,0-.55,0-1.02.43-1.39,1.25.22-.05.67-.08,1.04.29.45.45.41.89-.11,1.52-.25.3-.74.44-1.29.36-.57-.09-1.04-.39-1.2-.78-.42-1.07,0-2.23.54-2.96.57-.77,1.31-1.19,2-1.14,2.77.2,3.86,2.33,5.11,4.79.58,1.13,1.17,2.3,1.99,3.43.04.05.02.1.01.12-.08.15-.62.17-.97.17Zm-.12-.13c.47,0,.9-.03.97-.09-.82-1.14-1.42-2.31-2-3.44-1.24-2.43-2.31-4.52-5.01-4.72-.63-.05-1.35.37-1.89,1.09-.52.7-.93,1.81-.53,2.83.14.34.57.62,1.1.7.5.08.95-.04,1.17-.31.49-.58.52-.95.12-1.35-.45-.45-1.03-.23-1.04-.23l-.14.05.06-.14c.4-.95.92-1.44,1.56-1.45,0,0,.01,0,.02,0,1.01,0,2.26,1.19,3.72,3.54,1,1.61,1.76,3.24,1.89,3.51Z"></path><path class="cls-5" d="m41.09,15.96c-.7,1.35-6.46,3.55-6.46,3.55,0,0,5.61,2.13,6.39,3.55l.08,2.08c-2.86-3.88-5.71-4.25-7.92-4.37-1.59-.08-1.42.84-1.13,1.21,2.56,3.26-.75,4.2-1.24,6.91-.03.14-.41-.46-.53-1.24-.08-.51.08-1.27.08-1.27-1.16,1.89-2.59.38-3.48,2.26,0,0-.19-.29-.29-.38-.27-.24-1.08-.11-1.21-2.26,0-.08-.94.17-.94.17.53-1.78,5.06-3.74,3.88-4.93-1.35-1.29-1.43,2.78-3.53,3.07-.11.03.32-1.18.32-1.18-.99.05-1.42,1.18-1.51,1.85l-.24-.62c-.94-.53.22-3.19-.19-3.64-.33-.36-1.46,1.1-1.94,1.35-.48.24-3.21.24-1.87,1.89.1.14-.27-.75.36-.86.7-.11.67.7.67.76,0,.33-.62,1.18-1.61.7-.05-.03-1.87-1.35.51-3.24,0,0-1.46.89-2.97-.7-.33-.33-.76-.76-1.29-1.1.53-.33.91-.72,1.24-1.08,1.54-1.59,2.97-.72,2.97-.72-2.37-1.87-.57-3.19-.51-3.21.99-.48,1.59.36,1.61.7,0,.08.03.89-.67.76-.62-.11-.27-.99-.36-.86-1.35,1.65,1.4,1.65,1.89,1.89.48.24,1.61,1.7,1.94,1.35.43-.46-.75-3.12.19-3.64l.22-.62c.11.67.55,1.8,1.54,1.85,0,0-.43-1.21-.32-1.18,2.08.27,2.21,4.37,3.53,3.05,1.18-1.16-3.36-3.12-3.88-4.9,0,0,.94.24.94.17.11-2.16.94-2.04,1.18-2.28.1-.1.27-.38.27-.38.89,1.89,2.35.36,3.48,2.26,0,0-.17-.76-.1-1.27.11-.79.51-1.37.53-1.24.53,2.72,3.83,3.62,1.27,6.89-.29.36-.43,1.29,1.16,1.21,2.21-.11,5.06-.51,7.9-4.39l.08,2.12h0Z"></path><path class="cls-1" d="m30.78,28.98h0c-.15,0-.47-.67-.58-1.32-.05-.32,0-.73.03-1-.55.74-1.16.84-1.71.92-.6.09-1.17.18-1.6,1.09l-.05.1-.06-.1c-.05-.08-.2-.3-.28-.37-.04-.04-.11-.07-.19-.11-.35-.16-.92-.42-1.03-2.15-.12,0-.52.09-.86.18l-.11.03.03-.11c.24-.81,1.26-1.63,2.24-2.42.93-.75,1.81-1.46,1.84-2.03,0-.16-.05-.29-.18-.42-.19-.18-.35-.26-.5-.23-.32.05-.59.57-.89,1.17-.45.89-1.01,2-2.08,2.15h-.03s-.03-.02-.03-.02c-.03-.03-.09-.1.28-1.15-.9.12-1.28,1.21-1.35,1.79h-.12s-.23-.59-.23-.59c-.57-.35-.39-1.41-.23-2.34.1-.59.19-1.14.05-1.3-.02-.02-.05-.03-.08-.03-.22,0-.69.43-1.06.78-.28.27-.54.52-.73.61-.11.06-.32.1-.58.15-.6.12-1.42.28-1.59.73-.07.2,0,.46.2.76-.02-.25,0-.65.42-.72.21-.03.38,0,.5.11.22.19.25.52.25.71,0,.21-.19.54-.51.74-.25.15-.65.28-1.19.02,0,0-.66-.45-.74-1.22-.06-.62.25-1.24.93-1.87-.54.16-1.6.26-2.67-.86-.32-.32-.76-.76-1.28-1.09l-.08-.05.09-.05c.52-.32.89-.7,1.23-1.07,1.09-1.12,2.14-1.04,2.68-.88-.71-.64-1.02-1.28-.93-1.91.1-.7.68-1.13.74-1.15.52-.25.91-.14,1.14,0,.33.19.54.53.55.76,0,.34-.08.59-.25.72-.13.11-.3.14-.5.1-.42-.08-.45-.46-.42-.72-.2.3-.27.55-.2.75.16.45,1,.61,1.61.73.27.05.47.09.59.15.18.09.45.34.73.61.37.35.82.78,1.05.78,0,0,0,0,0,0,.03,0,.06-.01.08-.04.16-.17.06-.73-.04-1.34-.16-.92-.34-1.97.23-2.31l.21-.6h.12c.13.78.57,1.69,1.38,1.8-.37-1.05-.31-1.12-.28-1.15l.02-.03h.05c1.06.14,1.63,1.25,2.08,2.14.31.6.57,1.12.89,1.17.15.02.31-.05.49-.24.13-.12.18-.26.18-.41-.03-.55-.9-1.25-1.83-2-.99-.8-2.01-1.62-2.25-2.43l-.03-.11.11.03c.35.09.74.17.86.18.1-1.73.67-2.01,1.01-2.17.08-.04.14-.07.18-.11.09-.09.26-.37.26-.37l.06-.1.05.11c.43.92,1,1,1.61,1.09.55.08,1.16.17,1.7.9-.04-.27-.09-.67-.05-.98.1-.7.43-1.31.58-1.32.03,0,.07.02.08.07.18.94.7,1.65,1.2,2.34.9,1.25,1.76,2.44.06,4.61-.15.18-.23.48-.11.72.1.2.4.43,1.22.39,2.35-.12,5.08-.57,7.85-4.37l.11-.15.08,2.32h0c-.65,1.26-5.4,3.17-6.34,3.54.93.36,5.55,2.21,6.26,3.52h0s.08,2.32.08,2.32l-.12-.17c-2.77-3.77-5.52-4.22-7.87-4.34-.64-.03-1.06.1-1.2.38-.12.24-.02.54.12.72,1.69,2.15.84,3.35-.05,4.61-.49.69-1.01,1.41-1.18,2.35,0,.05-.05.07-.08.07Zm-.49-2.63l.12.05s-.15.76-.08,1.25c.09.56.31,1.02.42,1.16.19-.92.69-1.63,1.18-2.32.91-1.28,1.69-2.38.06-4.46-.17-.21-.28-.57-.14-.86.12-.23.44-.49,1.32-.45,2.35.12,5.08.56,7.85,4.23l-.07-1.86c-.78-1.39-6.29-3.49-6.34-3.51l-.16-.06.16-.06c.06-.02,5.71-2.2,6.42-3.51l-.07-1.92c-2.76,3.71-5.49,4.15-7.84,4.27-.89.05-1.22-.22-1.34-.46-.14-.28-.04-.64.13-.85,1.64-2.09.85-3.18-.07-4.45-.49-.68-1-1.39-1.2-2.31-.11.15-.34.6-.42,1.16-.06.49.1,1.24.1,1.25l-.12.05c-.55-.92-1.17-1.01-1.78-1.1-.59-.09-1.2-.18-1.65-1.06-.06.09-.15.23-.22.29-.05.05-.13.09-.22.13-.32.15-.86.41-.95,2.11v.03s-.03.03-.03.03c-.02.02-.08.07-.88-.13.28.74,1.24,1.51,2.17,2.26.95.76,1.84,1.48,1.87,2.09,0,.19-.06.36-.21.5-.21.21-.41.3-.6.27-.38-.06-.66-.61-.99-1.24-.43-.85-.97-1.9-1.94-2.06.02.16.17.65.33,1.09l.03.09h-.1c-.86-.05-1.36-.89-1.55-1.68l-.15.43h-.02c-.51.3-.34,1.31-.19,2.2.11.66.21,1.23.01,1.44-.04.05-.1.07-.17.08-.28,0-.72-.41-1.15-.82-.27-.26-.53-.51-.7-.59-.1-.05-.31-.09-.56-.14-.64-.12-1.51-.29-1.7-.81-.1-.28.01-.63.35-1.04.03-.04.07-.04.09-.03.05.02.04.07.03.14-.05.3-.06.66.3.73.17.03.3,0,.4-.08.13-.11.2-.33.2-.61-.01-.16-.18-.48-.49-.66-.21-.12-.56-.22-1.03.01-.08.04-.62.48-.67,1.13-.05.64.35,1.31,1.19,1.97l-.07.1c-.06-.03-1.41-.82-2.89.71-.33.35-.68.72-1.17,1.04.5.34.92.75,1.22,1.06,1.46,1.53,2.83.72,2.89.69l.07.1c-.83.66-1.23,1.33-1.19,1.96.05.72.67,1.16.68,1.17.49.24.85.12,1.07-.01.29-.18.45-.48.45-.63,0-.14-.02-.46-.2-.61-.1-.08-.23-.11-.4-.08-.35.06-.35.4-.29.72.01.08.02.13-.03.15-.02,0-.06.01-.09-.04-.33-.41-.45-.76-.34-1.04.19-.52,1.05-.69,1.68-.81.24-.05.45-.09.55-.14.17-.08.42-.33.7-.59.43-.41.87-.82,1.15-.82.07,0,.13.03.17.08.19.21.1.74-.02,1.41-.15.86-.33,1.93.19,2.22h.02s.17.44.17.44c.15-.69.59-1.63,1.53-1.68h.1s-.03.08-.03.08c-.16.44-.31.93-.33,1.09.97-.17,1.51-1.22,1.93-2.07.32-.63.59-1.18.98-1.24.19-.03.39.05.61.26.15.15.22.33.21.52-.03.62-.93,1.35-1.89,2.12-.92.74-1.87,1.51-2.16,2.25.79-.2.85-.15.88-.13l.02.02v.04c.1,1.69.62,1.93.97,2.08.09.04.16.07.22.13.07.06.17.21.24.3.45-.88,1.03-.97,1.65-1.06.6-.09,1.23-.19,1.79-1.1Zm-4.99-.34s0,0,0,0c0,0,0,0,0,0Zm-.03-12.96s0,0,0,0c0,0,0,0,0,0Z"></path><path class="cls-1" d="m26.41,28.22c-.97-2.01.26-3.29,1.57-4.65,1.08-1.13,2.21-2.3,2.15-3.98h-4.2c0,.57-.42,1.06-.9,1.63-.63.74-1.42,1.67-1.6,3.14l-.13-.02c.18-1.51.98-2.45,1.63-3.21.49-.57.87-1.02.87-1.55h-10.79v-.13h10.78c-.06-.53-.5-1.08-.99-1.72-.66-.84-1.41-1.8-1.56-3.04l.13-.02c.15,1.2.88,2.14,1.54,2.97.51.65.96,1.22,1.02,1.79h4.2c-.11-1.51-1.15-2.66-2.16-3.77-1.33-1.46-2.58-2.84-1.57-4.85l.11.06c-.97,1.94.25,3.28,1.55,4.71,1.03,1.13,2.09,2.3,2.2,3.86h4.33v.13h-4.33c.06,1.74-1.08,2.92-2.18,4.07-1.27,1.32-2.47,2.58-1.54,4.51l-.11.06Z"></path><path class="cls-5" d="m32.79,37.55c-.62-1.7-2.42-2.18-3.45-2.21-1.16-.05-2.96,1.54-4.06,2.21-.99.6-2.75-.19-3.05-.89-.62-1.54.36-1.83.84-1.75,0,0-.57,1.1.38.96.6-.1.76-.99.65-1.35-.19-.72-1.21-.65-1.61-.53-1.32.38-1.1,2.23-.65,2.93.65,1.05,2.28,1.21,3.31,1.05,1.56-.24,2.86-1.85,3.8-1.8.24,0,.51.86.27.91-1.59.29-1.37,1.42-1.37,1.42v.03s-.22,1.1,1.37,1.4c.24.05-.08.94-.32.94-.94.05-2.16-1.61-3.74-1.83-1.03-.14-2.67,0-3.31,1.05-.43.7-.65,2.54.65,2.93.41.11,1.42.19,1.64-.53.1-.36-.05-1.27-.65-1.35-.96-.14-.38.96-.38.96-.48.1-1.46-.22-.84-1.75.29-.7,2.07-1.49,3.05-.89,1.1.67,2.91,2.26,4.06,2.21,1.03-.05,2.83-.51,3.45-2.21v-1.92h-.03Z"></path><path class="cls-1" d="m23.05,43.17c-.24,0-.46-.04-.59-.07-.42-.13-.73-.42-.89-.85-.27-.7-.1-1.68.21-2.17.69-1.12,2.45-1.21,3.38-1.08.86.12,1.6.64,2.25,1.1.57.4,1.06.75,1.48.73.11,0,.31-.35.34-.65,0-.09,0-.16-.03-.16-.58-.11-1-.34-1.23-.68-.26-.39-.19-.78-.19-.79h0s-.08-.42.2-.82c.23-.34.65-.57,1.23-.68.03,0,.05-.09.04-.2-.03-.28-.2-.59-.29-.59-.43-.02-.95.32-1.55.73-.66.44-1.41.95-2.24,1.07-.92.14-2.67.06-3.38-1.08-.32-.49-.5-1.45-.24-2.16.16-.44.48-.74.92-.87.27-.08.89-.15,1.31.09.2.11.32.28.38.49.08.24.03.7-.17,1.04-.13.22-.32.35-.53.39-.27.04-.45-.01-.55-.15-.17-.23-.02-.65.06-.83-.24-.01-.54.07-.71.29-.23.29-.22.77.03,1.39.14.34.67.71,1.28.91.65.21,1.26.19,1.67-.06.29-.18.63-.42.98-.67,1.05-.74,2.24-1.59,3.11-1.55,1.24.03,2.9.63,3.5,2.22h.04v2c-.57,1.56-2.19,2.18-3.51,2.25-.88.04-2.06-.8-3.11-1.55-.36-.25-.7-.49-.99-.67-.41-.25-1.01-.27-1.66-.06-.62.2-1.15.58-1.29.92-.26.63-.26,1.12-.02,1.41.18.22.47.29.7.27-.08-.17-.24-.59-.07-.83.1-.14.28-.19.55-.15.2.03.37.14.5.34.21.32.27.82.2,1.09-.15.52-.68.65-1.13.65Zm1.42-4.1c-.91,0-2.07.23-2.58,1.07-.29.47-.45,1.4-.2,2.06.15.4.42.66.81.78.34.09,1.35.21,1.56-.49.06-.2.03-.67-.18-.98-.11-.17-.25-.26-.41-.28-.22-.03-.37,0-.43.1-.14.19.04.62.12.77l.04.07-.08.02c-.27.06-.67-.01-.91-.3-.19-.23-.35-.69,0-1.54.16-.38.71-.77,1.37-.99.69-.22,1.33-.2,1.77.07.29.18.63.42.99.67.98.7,2.2,1.56,3.03,1.53.44-.02,2.68-.23,3.39-2.16v-1.84h-.03v-.06c-.36-.97-1.46-2.11-3.39-2.16-.83-.04-2.05.83-3.04,1.53-.36.26-.7.5-.99.67-.44.27-1.09.29-1.78.07-.66-.21-1.2-.61-1.36-.99-.34-.84-.19-1.28-.01-1.51.23-.29.63-.37.92-.33h.09s-.04.09-.04.09c-.08.15-.25.58-.11.78.07.1.21.13.43.1.18-.03.33-.14.44-.33.18-.29.22-.72.15-.93-.05-.18-.16-.32-.32-.42-.36-.2-.92-.16-1.21-.07-.4.12-.68.38-.83.79-.25.67-.08,1.59.22,2.05.58.95,2.09,1.2,3.25,1.03.8-.12,1.54-.62,2.19-1.05.62-.42,1.15-.77,1.62-.75h0c.22,0,.39.46.42.7.03.26-.08.32-.14.34-.54.1-.93.31-1.14.62-.24.35-.18.72-.18.73v.04s-.06.37.17.71c.21.31.6.52,1.15.62.06.01.16.07.13.3-.03.26-.23.76-.46.76-.46.03-.97-.33-1.56-.75-.64-.45-1.37-.97-2.2-1.08-.19-.03-.42-.04-.67-.04Z"></path><path class="cls-5" d="m40.75,36.42c-.22,1.13-3.07,2.11-3.07,2.11,0,0,2.81,1.46,3.19,2.64l-.08,1.37c-.91-3.1-4.39-3.34-4.39-3.34.75,1.05,1.4,2.5-.38,3.94,0,0,.53-1.35.27-1.65,0,0-.24.84-1.24,1.61-.41.33-1.54.27-2.04.57l.43-1.37c-.53,1.1-2.02,1.24-2.02,1.24-.1-.38-.05-1.29.43-1.99.86-1.32.65-2.28.65-2.28-.75,1.65-3.69,1.8-4.25,1.4-.08-.05.65-.76.65-.76-.27.05-1-.48-.99-.62.03-.22.51-.67.6-.81,0,0-.55-.46-.57-.67-.03-.14.72-.67.99-.62,0,0-.75-.72-.65-.76.55-.41,3.5-.27,4.25,1.4,0,0,.22-.94-.67-2.28-.46-.7-.51-1.64-.41-1.99,0,0,1.51.14,2.02,1.24l-.43-1.37c.51.29,1.64.24,2.04.57,1,.76,1.24,1.61,1.24,1.61.27-.32-.27-1.65-.27-1.65,1.78,1.43,1.13,2.88.38,3.94,0,0,3.5-.24,4.39-3.34l-.06,1.89h0Z"></path><path class="cls-1" d="m32.88,43.81l.34-1.09c-.65.77-1.76.88-1.81.88h-.05s-.01-.05-.01-.05c-.11-.41-.04-1.34.44-2.05.61-.93.67-1.69.66-2.03-.35.58-1.02,1.02-1.91,1.26-1.01.27-2.02.2-2.33-.03l-.02-.02v-.04c-.02-.08.18-.32.56-.7-.25-.06-.59-.29-.75-.44-.15-.14-.16-.2-.16-.24.02-.16.21-.38.44-.64.05-.06.1-.12.14-.16-.14-.12-.52-.47-.55-.68,0-.05.03-.12.12-.21.16-.15.52-.41.79-.47-.6-.59-.58-.68-.57-.71,0-.02.02-.04.04-.05.31-.23,1.31-.29,2.31-.03.91.23,1.58.68,1.93,1.27,0-.34-.06-1.09-.68-2.03-.45-.68-.53-1.64-.41-2.05v-.05s.07,0,.07,0c.05,0,1.17.12,1.81.87l-.34-1.07.14.08c.23.13.61.19.97.25.44.07.85.14,1.08.32.76.58,1.09,1.2,1.21,1.49.05-.33-.16-1.02-.33-1.45l-.09-.23.19.15c1.78,1.44,1.16,2.9.47,3.91.65-.09,3.43-.61,4.2-3.28l.12.02-.06,1.9c-.2,1.02-2.4,1.89-2.98,2.11.56.3,2.75,1.55,3.09,2.61h0s-.08,1.39-.08,1.39h-.12c-.79-2.66-3.55-3.18-4.2-3.26.69,1.01,1.31,2.47-.47,3.91l-.19.15.09-.22c.17-.43.38-1.13.33-1.45-.12.28-.45.9-1.21,1.49-.22.18-.63.25-1.06.32-.37.06-.75.12-.99.26l-.14.09Zm.49-1.54l.12.05-.39,1.23c.25-.1.58-.16.89-.21.4-.06.81-.13,1-.29.97-.75,1.22-1.57,1.22-1.58l.03-.11.08.09c.22.25-.03,1.07-.17,1.49,1.52-1.36.9-2.68.19-3.69l-.08-.11h.13s3.29.27,4.34,3.08l.06-1.03c-.38-1.14-3.12-2.58-3.15-2.59l-.13-.07.14-.05s2.82-.98,3.03-2.05l.05-1.46c-1.07,2.72-4.28,2.97-4.31,2.97h-.13s.08-.1.08-.1c.72-1.01,1.33-2.34-.18-3.69.15.41.39,1.22.17,1.48l-.08.09-.03-.11s-.25-.84-1.22-1.58c-.2-.17-.62-.23-1.02-.3-.31-.05-.63-.1-.88-.2l.39,1.23-.12.05c-.43-.94-1.64-1.16-1.91-1.2-.07.35-.03,1.22.41,1.89.89,1.35.69,2.29.68,2.33l-.04.18-.08-.17c-.39-.87-1.39-1.24-1.94-1.39-.93-.24-1.88-.19-2.19,0,.06.11.36.42.63.68l.15.15-.21-.04c-.11-.02-.36.09-.61.27-.22.15-.3.26-.31.29.02.14.35.46.55.63l.04.04-.03.05s-.1.12-.18.22c-.16.18-.39.44-.41.57,0,.03.11.15.34.31.24.17.47.27.58.25l.21-.04-.15.15c-.27.26-.56.58-.62.69.32.19,1.27.23,2.2-.01.55-.15,1.54-.52,1.93-1.38l.08-.17.04.18s.21,1.01-.66,2.33c-.44.64-.52,1.48-.44,1.89.27-.04,1.46-.26,1.91-1.2Zm-5.1-1.66s0,0,0,0c0,0,0,0,0,0Z"></path><path class="cls-5" d="m24.22,38.92c-.96.03-2.28.7-3.48.53-.86-.11-2.4-1.16-2.4-1.16,0,0,1.56-.81,2.35-.99,1.27-.29,2.54.81,3.5.84.17,0,.22.75.03.77h0Z"></path><path class="cls-1" d="m21.13,39.54c-.13,0-.27,0-.4-.03-.87-.11-2.36-1.12-2.43-1.17l-.09-.06.09-.05c.06-.03,1.58-.82,2.36-1,.78-.18,1.55.15,2.24.44.46.2.9.38,1.28.39.17,0,.2.32.21.42.01.22-.02.46-.17.48h0c-.39.01-.84.13-1.31.25-.56.15-1.18.31-1.78.31Zm-2.66-1.24c.34.22,1.56.99,2.28,1.09.69.1,1.42-.09,2.13-.28.48-.13.94-.24,1.33-.26.01,0,.04-.04.06-.15.03-.23-.03-.48-.08-.5-.4-.01-.85-.2-1.32-.4-.67-.28-1.43-.61-2.16-.44-.66.15-1.89.76-2.24.94Z"></path><path class="cls-5" d="m24.25,36.98c.53-.11.43,1.51.43,1.51,0,.24.08,1.43-.43,1.54-.57-.08-.41-1.54-.41-1.54,0,0-.08-1.54.41-1.51h0Z"></path><path class="cls-1" d="m24.25,40.09h-.01c-.63-.08-.47-1.55-.46-1.61,0-.04-.05-1.17.26-1.48.06-.06.13-.09.21-.09.09-.02.17,0,.24.06.33.28.27,1.39.26,1.51,0,.02,0,.05,0,.08,0,.39.03,1.41-.48,1.51h-.01Zm-.01-3.05s-.08.02-.11.05c-.23.23-.24,1.08-.22,1.39-.04.4-.07,1.4.34,1.47.4-.1.38-1.06.37-1.38,0-.04,0-.07,0-.09.02-.33.02-1.21-.22-1.41-.04-.03-.08-.05-.14-.03h0s0,0,0,0c0,0,0,0,0,0Z"></path><path class="cls-5" d="m27.81,38.49l9.94.08m-4.39,3.91l1.42-3.96m.01,0l-1.4-3.88"></path><polygon class="cls-1" points="33.42 42.5 33.3 42.45 34.68 38.61 27.81 38.55 27.81 38.43 34.71 38.48 33.34 34.65 33.46 34.61 34.85 38.48 37.75 38.5 37.75 38.63 34.82 38.61 33.42 42.5"></polygon><path class="cls-5" d="m41.04,88.14c-.99-2.64-4.53-2.35-4.53-2.35,0,0,3.55.03,4.47-3.07l.06,5.42Z"></path><path class="cls-1" d="m40.98,88.16c-.84-2.23-3.57-2.33-4.29-2.31-.11,0-.18,0-.18,0v-.13s.07,0,.18,0c.72-.05,3.46-.4,4.23-3.02l.12.02.06,5.42-.12.02Zm-3.55-2.41c1.07.1,2.79.51,3.54,2.07l-.06-4.73c-.71,1.84-2.42,2.45-3.49,2.66Z"></path><path class="cls-5" d="m41.04,103.91c-.99,2.64-4.53,2.35-4.53,2.35,0,0,3.55-.03,4.47,3.07l.06-5.42Z"></path><path class="cls-1" d="m40.92,109.35c-.77-2.62-3.5-2.97-4.23-3.02-.11,0-.18,0-.18,0v-.13s.07,0,.19,0c.72.01,3.45-.09,4.29-2.31l.12.02-.06,5.42-.12.02Zm-3.49-3.05c1.07.21,2.77.82,3.49,2.66l.06-4.73c-.76,1.56-2.47,1.97-3.54,2.07Z"></path><path class="cls-5" d="m32.85,106.34s1.46,1.18,2.45.94c0,0-1.13,1.08-.19,1.94,0,0,.29-1.13,1.64-1.32,1.13-.17,1.59-1.1,1.59-1.56v.03c.03-.46-.43-1.37-1.59-1.56-1.35-.22-1.64-1.32-1.64-1.32-.94.84.19,1.94.19,1.94-.98-.24-2.45.91-2.45.91h0Z"></path><path class="cls-1" d="m35.15,109.34l-.08-.07c-.26-.24-.39-.51-.39-.82,0-.46.28-.87.46-1.08-.99.08-2.26-.94-2.32-.98l-.06-.05.06-.05c.06-.05,1.34-1.04,2.32-.96-.17-.21-.47-.64-.46-1.1,0-.3.14-.57.39-.8l.08-.07.03.1s.3,1.07,1.59,1.27c1.21.2,1.67,1.16,1.64,1.63h0c-.02.49-.5,1.43-1.64,1.6-1.29.18-1.58,1.26-1.59,1.27l-.03.1Zm.37-2.18l-.17.16s-.55.53-.54,1.12c0,.24.1.46.28.66.11-.29.52-1.11,1.66-1.27,1.08-.16,1.53-1.05,1.53-1.5h0c0-.42-.44-1.29-1.53-1.47-1.13-.18-1.54-.99-1.65-1.27-.18.19-.28.4-.28.64-.01.59.54,1.14.54,1.15l.17.16-.23-.06c-.82-.2-2.04.64-2.33.85.29.22,1.5,1.08,2.33.88l.23-.06Z"></path><path class="cls-5" d="m40.91,65.31c-.99,2.64-4.53,2.35-4.53,2.35,0,0,3.55-.03,4.47,3.07l.06-5.42Z"></path><path class="cls-1" d="m40.79,70.75c-.77-2.62-3.51-2.97-4.23-3.02-.11,0-.18,0-.18,0v-.13s.07,0,.19,0c.72.01,3.45-.09,4.29-2.31l.12.02-.06,5.42-.12.02Zm-3.49-3.05c1.07.21,2.77.82,3.49,2.66l.06-4.73c-.76,1.56-2.47,1.97-3.54,2.07Z"></path><path class="cls-5" d="m41.04,50.03c-.99-2.64-4.53-2.35-4.53-2.35,0,0,3.55.03,4.47-3.07l.06,5.42Z"></path><path class="cls-1" d="m40.98,50.05c-.84-2.23-3.57-2.33-4.29-2.31-.11,0-.18,0-.18,0v-.13s.07,0,.18,0c.72-.05,3.46-.4,4.23-3.02l.12.02.06,5.42-.12.02Zm-3.55-2.41c1.07.1,2.79.51,3.54,2.07l-.06-4.73c-.71,1.84-2.42,2.45-3.49,2.66Z"></path><path class="cls-5" d="m41.04,26.96c-.99,2.64-4.53,2.35-4.53,2.35,0,0,3.55-.03,4.47,3.07l.06-5.42Z"></path><path class="cls-1" d="m40.92,32.4c-.77-2.62-3.5-2.97-4.23-3.02-.11,0-.18,0-.18,0v-.13s.07,0,.19,0c.72.01,3.45-.09,4.29-2.31l.12.02-.06,5.42-.12.02Zm-3.49-3.05c1.07.21,2.77.82,3.49,2.66l.06-4.73c-.76,1.56-2.47,1.97-3.54,2.07Z"></path><path class="cls-5" d="m41.04,11.79c-.99-2.64-4.53-2.35-4.53-2.35,0,0,3.55.03,4.47-3.07l.06,5.42Z"></path><path class="cls-1" d="m40.98,11.82c-.84-2.23-3.57-2.33-4.29-2.31-.11,0-.18,0-.18,0v-.13s.07,0,.18,0c.72-.05,3.46-.4,4.23-3.02l.12.02.06,5.42-.12.02Zm-3.55-2.41c1.07.1,2.79.51,3.54,2.07l-.06-4.73c-.71,1.84-2.42,2.45-3.49,2.66Z"></path><rect class="cls-5" x="40.8" y="4.03" width="1.32" height="107.95"></rect><path class="cls-1" d="m42.18,112.04h-1.45V3.96h1.45v108.08Zm-1.32-.13h1.19V4.09h-1.19v107.82Z"></path><path class="cls-5" d="m32.93,85.62s1.46,1.18,2.45.94c0,0-1.13,1.08-.19,1.94,0,0,.29-1.13,1.64-1.32,1.13-.17,1.59-1.1,1.59-1.56v.03c.03-.46-.43-1.37-1.59-1.56-1.35-.22-1.64-1.32-1.64-1.32-.94.84.19,1.94.19,1.94-.99-.24-2.45.91-2.45.91h0Z"></path><path class="cls-1" d="m35.22,88.62l-.08-.07c-.26-.24-.39-.51-.39-.82,0-.46.28-.87.46-1.08-.99.08-2.26-.94-2.32-.98l-.06-.05.06-.05c.06-.04,1.33-1.04,2.32-.96-.17-.21-.47-.64-.46-1.1,0-.3.14-.57.39-.8l.08-.07.03.1s.3,1.07,1.59,1.27c1.21.2,1.67,1.16,1.64,1.63h0c-.02.49-.5,1.43-1.64,1.6-1.29.18-1.58,1.26-1.59,1.27l-.03.1Zm.37-2.18l-.17.16s-.55.53-.54,1.12c0,.24.1.46.28.66.11-.29.52-1.11,1.66-1.27,1.08-.16,1.53-1.05,1.53-1.5h0c0-.42-.44-1.29-1.53-1.47-1.13-.18-1.54-.99-1.65-1.27-.18.19-.28.4-.28.64-.01.59.54,1.14.54,1.15l.17.16-.22-.05c-.83-.2-2.04.64-2.33.85.29.22,1.5,1.08,2.33.88l.23-.06Z"></path><path class="cls-5" d="m32.85,67.7s1.46,1.18,2.45.94c0,0-1.13,1.08-.19,1.94,0,0,.29-1.13,1.64-1.32,1.13-.17,1.59-1.1,1.59-1.56v.03c.03-.46-.43-1.37-1.59-1.56-1.35-.22-1.64-1.32-1.64-1.32-.94.84.19,1.94.19,1.94-.98-.24-2.45.91-2.45.91h0Z"></path><path class="cls-1" d="m35.15,70.7l-.08-.07c-.26-.24-.39-.51-.39-.82,0-.46.28-.87.46-1.08-.99.08-2.26-.94-2.32-.98l-.06-.05.06-.05c.06-.05,1.34-1.04,2.32-.96-.17-.21-.47-.64-.46-1.1,0-.3.14-.57.39-.8l.08-.07.03.1s.3,1.07,1.59,1.27c1.21.2,1.67,1.16,1.64,1.63h0c-.02.49-.5,1.43-1.64,1.6-1.29.18-1.57,1.23-1.59,1.27l-.03.1Zm.37-2.18l-.17.16s-.55.53-.54,1.12c0,.24.1.46.28.66.11-.29.52-1.11,1.66-1.27,1.08-.16,1.53-1.05,1.53-1.5h0c0-.42-.44-1.29-1.53-1.47-1.13-.18-1.54-.99-1.65-1.27-.18.19-.28.4-.28.64-.01.59.54,1.14.54,1.15l.17.16-.23-.06c-.82-.2-2.04.64-2.33.85.29.22,1.5,1.08,2.33.88l.23-.06Z"></path><path class="cls-5" d="m32.93,47.71s1.46,1.18,2.45.94c0,0-1.13,1.08-.19,1.94,0,0,.29-1.13,1.64-1.32,1.13-.17,1.59-1.1,1.59-1.56v.03c.03-.46-.43-1.37-1.59-1.56-1.35-.22-1.64-1.32-1.64-1.32-.94.84.19,1.94.19,1.94-.99-.24-2.45.91-2.45.91h0Z"></path><path class="cls-1" d="m35.22,50.7l-.08-.07c-.26-.24-.39-.51-.39-.82,0-.46.28-.87.46-1.08-.99.08-2.26-.94-2.32-.98l-.06-.05.06-.05c.06-.05,1.33-1.04,2.32-.96-.17-.21-.47-.64-.46-1.1,0-.3.14-.57.39-.8l.08-.07.03.1s.3,1.07,1.59,1.27c1.21.2,1.67,1.16,1.64,1.63h0c-.02.49-.5,1.43-1.64,1.6-1.29.18-1.57,1.23-1.59,1.27l-.03.1Zm.37-2.18l-.17.16s-.55.53-.54,1.12c0,.24.1.46.28.66.11-.29.52-1.11,1.66-1.27,1.08-.16,1.53-1.05,1.53-1.5h0c0-.42-.44-1.29-1.53-1.47-1.13-.18-1.54-.99-1.65-1.27-.18.19-.28.4-.28.64-.01.59.54,1.14.54,1.15l.17.16-.22-.05c-.83-.2-2.04.64-2.33.85.29.22,1.5,1.08,2.33.88l.23-.06Z"></path><path class="cls-5" d="m32.93,29.32s1.46,1.18,2.45.94c0,0-1.13,1.08-.19,1.94,0,0,.29-1.13,1.64-1.32,1.13-.17,1.59-1.1,1.59-1.56v.03c.03-.46-.43-1.37-1.59-1.56-1.35-.22-1.64-1.32-1.64-1.32-.94.84.19,1.94.19,1.94-.99-.24-2.45.91-2.45.91h0Z"></path><path class="cls-1" d="m35.22,32.32l-.08-.07c-.26-.24-.39-.51-.39-.82,0-.46.28-.87.46-1.08-.99.08-2.26-.94-2.32-.98l-.06-.05.06-.05c.06-.05,1.33-1.04,2.32-.96-.17-.21-.47-.64-.46-1.1,0-.3.14-.57.39-.8l.08-.07.03.1s.3,1.07,1.59,1.27c1.21.2,1.67,1.16,1.64,1.63h0c-.02.49-.5,1.43-1.64,1.6-1.29.18-1.57,1.23-1.59,1.27l-.03.1Zm.37-2.18l-.17.16s-.55.53-.54,1.12c0,.24.1.46.28.66.11-.29.52-1.11,1.66-1.27,1.08-.16,1.53-1.05,1.53-1.5h0c0-.44-.42-1.29-1.53-1.47-1.13-.18-1.54-.99-1.65-1.27-.18.19-.28.4-.28.64-.01.59.54,1.14.54,1.15l.17.16-.22-.05c-.83-.2-2.04.64-2.33.85.29.22,1.5,1.08,2.33.88l.23-.06Z"></path><path class="cls-5" d="m33.02,9.39s1.46,1.18,2.45.94c0,0-1.13,1.08-.19,1.94,0,0,.29-1.13,1.64-1.32,1.13-.17,1.59-1.1,1.59-1.56v.03c.03-.46-.43-1.37-1.59-1.56-1.35-.22-1.64-1.32-1.64-1.32-.94.84.19,1.94.19,1.94-.98-.23-2.45.91-2.45.91h0Z"></path><path class="cls-1" d="m35.31,12.39l-.08-.07c-.26-.24-.39-.51-.39-.82,0-.46.28-.87.46-1.08-.99.08-2.26-.94-2.32-.98l-.06-.05.06-.05c.06-.04,1.34-1.03,2.32-.95-.17-.21-.47-.64-.46-1.1,0-.3.14-.57.39-.8l.08-.07.03.1s.3,1.07,1.59,1.27c1.21.2,1.67,1.16,1.64,1.63h0c-.02.49-.5,1.43-1.64,1.6-1.29.18-1.58,1.26-1.59,1.27l-.03.1Zm.37-2.18l-.17.16s-.55.53-.54,1.12c0,.24.1.46.28.66.11-.29.52-1.11,1.66-1.27,1.08-.16,1.53-1.05,1.53-1.5h0c0-.42-.44-1.29-1.53-1.47-1.13-.18-1.54-.99-1.65-1.27-.18.19-.28.4-.28.64-.01.59.54,1.14.54,1.15l.16.16-.22-.05c-.82-.19-2.04.64-2.33.85.29.22,1.5,1.08,2.33.88l.23-.06Z"></path><path class="cls-4" d="m49.53,105.81c0,.99-.81,1.8-1.8,1.8s-1.8-.79-1.8-1.8.81-1.8,1.8-1.8,1.8.81,1.8,1.8h0Z"></path><path class="cls-1" d="m47.73,107.67c-1.05,0-1.87-.82-1.87-1.87s.84-1.87,1.87-1.87,1.87.82,1.87,1.87-.84,1.87-1.87,1.87Zm0-3.61c-.96,0-1.74.78-1.74,1.74s.76,1.74,1.74,1.74,1.74-.78,1.74-1.74-.76-1.74-1.74-1.74Z"></path><path class="cls-4" d="m49.53,81.9c0,.99-.81,1.8-1.8,1.8s-1.8-.79-1.8-1.8.81-1.8,1.8-1.8c1.02.03,1.8.81,1.8,1.8h0Z"></path><path class="cls-1" d="m47.73,83.77c-1.05,0-1.87-.82-1.87-1.87s.84-1.87,1.87-1.87c1.05.03,1.87.85,1.87,1.87s-.84,1.87-1.87,1.87Zm0-3.61c-.96,0-1.74.78-1.74,1.74s.76,1.74,1.74,1.74,1.74-.78,1.74-1.74-.76-1.71-1.74-1.74Z"></path><path class="cls-4" d="m49.53,58.03c0,.99-.81,1.8-1.8,1.8s-1.8-.79-1.8-1.8.81-1.8,1.8-1.8c1.02,0,1.8.79,1.8,1.8h0Z"></path><path class="cls-1" d="m47.73,59.89c-1.05,0-1.87-.82-1.87-1.87s.84-1.87,1.87-1.87,1.87.82,1.87,1.87-.84,1.87-1.87,1.87Zm0-3.61c-.96,0-1.74.78-1.74,1.74s.76,1.74,1.74,1.74,1.74-.78,1.74-1.74-.76-1.74-1.74-1.74Z"></path><path class="cls-4" d="m49.53,34.12c0,.99-.81,1.8-1.8,1.8s-1.8-.79-1.8-1.8.81-1.8,1.8-1.8c1.02,0,1.8.81,1.8,1.8h0Z"></path><path class="cls-1" d="m47.73,35.99c-1.05,0-1.87-.82-1.87-1.87s.84-1.87,1.87-1.87,1.87.82,1.87,1.87-.84,1.87-1.87,1.87Zm0-3.61c-.96,0-1.74.78-1.74,1.74s.76,1.74,1.74,1.74,1.74-.78,1.74-1.74-.76-1.74-1.74-1.74Z"></path><path class="cls-4" d="m49.53,10.25c0,.99-.81,1.8-1.8,1.8s-1.8-.79-1.8-1.8.81-1.8,1.8-1.8,1.8.79,1.8,1.8h0Z"></path><path class="cls-1" d="m47.73,12.11c-1.05,0-1.87-.82-1.87-1.87s.84-1.87,1.87-1.87,1.87.82,1.87,1.87-.84,1.87-1.87,1.87Zm0-3.61c-.96,0-1.74.78-1.74,1.74s.76,1.74,1.74,1.74,1.74-.78,1.74-1.74-.76-1.74-1.74-1.74Z"></path><polygon class="cls-5" points="44.76 22.29 47.73 19.31 50.71 22.29 47.73 25.24 44.76 22.29"></polygon><path class="cls-1" d="m47.73,25.33l-3.06-3.03,3.06-3.07,3.07,3.07-3.07,3.03Zm-2.88-3.03l2.88,2.86,2.89-2.86-2.89-2.89-2.88,2.89Z"></path><polygon class="cls-3" points="44.97 22.29 45.86 23.19 46.8 23.19 46.8 24.13 47.72 25.02 47.75 25.02 48.64 24.13 48.64 23.19 49.58 23.19 50.5 22.29 50.5 22.27 49.58 21.35 48.64 21.35 48.64 20.41 47.75 19.52 47.72 19.52 46.8 20.41 46.8 21.35 45.86 21.35 44.97 22.27 44.97 22.29"></polygon><path class="cls-1" d="m47.78,25.08h-.09l-.95-.93v-.9h-.9l-.93-.94v-.08l.93-.95h.9v-.9l.95-.93h.09l.93.93v.9h.9l.95.95v.08l-.95.94h-.9v.9l-.93.93Zm-.91-.98l.87.85.84-.84v-.98h.98l.86-.85-.86-.86h-.98v-.98l-.84-.84-.87.85v.98h-.98l-.84.86.84.85h.98v.98Z"></path><path class="cls-5" d="m46.49,19.91c.14.14,0,.51-.32.79-.32.32-.67.46-.79.32-.14-.14,0-.48.32-.79.28-.32.65-.46.79-.32h0Z"></path><path class="cls-1" d="m45.52,21.13s-.01,0-.02,0c-.07,0-.13-.03-.17-.08-.04-.04-.07-.11-.07-.19,0-.19.15-.45.39-.68.2-.23.46-.38.67-.39.09,0,.16.02.21.07h0c.05.05.08.12.07.21,0,.2-.16.47-.39.67-.24.24-.51.39-.69.39Zm.82-1.21s0,0,0,0c-.14,0-.37.11-.58.35-.22.21-.35.44-.36.59,0,.05.01.08.04.11.02.02.04.03.08.04.12,0,.37-.1.62-.35.24-.21.35-.44.35-.58,0-.05-.01-.09-.04-.12-.02-.02-.06-.04-.11-.04Z"></path><path class="cls-5" d="m48.99,19.91c-.14.14,0,.51.32.79.32.32.67.46.79.32.14-.14,0-.48-.32-.79-.29-.32-.65-.46-.79-.32h0Z"></path><path class="cls-1" d="m49.96,21.13c-.19,0-.46-.15-.7-.39-.23-.2-.38-.46-.39-.67,0-.09.02-.16.07-.21.05-.05.12-.08.2-.07.2,0,.46.15.68.39.24.23.39.49.39.68,0,.08-.02.15-.07.2-.03.04-.09.07-.16.07,0,0-.01,0-.02,0Zm-.82-1.21s-.08.01-.1.04c-.03.03-.04.06-.04.12,0,.14.11.37.35.58.25.25.5.36.62.36.03,0,.06-.01.07-.03.03-.03.04-.06.04-.11,0-.16-.14-.39-.35-.59-.19-.21-.43-.35-.59-.35,0,0,0,0,0,0Z"></path><path class="cls-5" d="m48.99,24.64c-.14-.14,0-.48.32-.79.32-.32.67-.46.79-.32.14.14,0,.51-.32.79-.29.29-.65.43-.79.32h0Z"></path><path class="cls-1" d="m49.12,24.74c-.07,0-.13-.02-.17-.05h0c-.05-.05-.07-.12-.07-.2,0-.19.15-.45.39-.68.25-.25.53-.4.71-.39.07,0,.13.03.17.08.05.05.07.12.07.2,0,.2-.16.47-.39.67-.23.23-.5.37-.7.37Zm-.09-.15c.1.08.42-.04.7-.32.24-.21.35-.44.35-.58,0-.05-.01-.09-.04-.12-.02-.02-.04-.03-.08-.04-.12,0-.37.1-.62.35-.21.2-.35.44-.35.59,0,.04.01.08.03.1Z"></path><path class="cls-5" d="m46.49,24.64c-.14.14-.51,0-.79-.32-.32-.32-.46-.67-.32-.79.14-.14.51,0,.79.32.29.28.44.65.32.79h0Z"></path><path class="cls-1" d="m46.33,24.76s0,0-.01,0c-.2,0-.47-.16-.67-.39-.24-.24-.4-.52-.39-.71,0-.07.03-.13.08-.17.05-.05.12-.07.2-.07.2,0,.47.16.67.39.28.27.49.68.32.87h0s-.12.07-.2.07Zm-.8-1.21s-.08.01-.11.04c-.02.02-.03.04-.04.08,0,.12.1.37.35.62.21.24.44.35.58.35.05,0,.09,0,.11-.03.09-.1-.03-.42-.32-.7-.21-.24-.44-.35-.58-.35,0,0,0,0,0,0Z"></path><path class="cls-5" d="m46.8,18.9c0-.14.33-.29.75-.33.08,0,.19-.1.19-.1,0,0,.11.1.17.1.43.03.76.17.76.33,0,.19-.43.33-.96.33-.5.01-.9-.17-.9-.33h0Z"></path><path class="cls-1" d="m47.65,19.3c-.35,0-.69-.1-.84-.24-.05-.05-.08-.1-.08-.16,0-.21.42-.36.81-.39.04,0,.11-.05.15-.09l.04-.04.04.04s.11.08.13.09c.4.02.82.16.82.39,0,.27-.53.39-1.03.39-.02,0-.03,0-.05,0Zm.09-.74s-.12.08-.19.08c-.44.04-.69.2-.69.27,0,.02.01.04.04.06.11.11.42.21.8.2.53,0,.9-.14.9-.27,0-.09-.24-.24-.7-.27h0s-.11-.04-.16-.08Z"></path><path class="cls-5" d="m48.69,25.64c0,.14-.33.29-.75.33-.08,0-.19.1-.19.1,0,0-.11-.1-.17-.1-.43-.03-.76-.17-.76-.33,0-.19.43-.33.96-.33.47,0,.9.17.9.33h0Z"></path><path class="cls-1" d="m47.75,26.16l-.04-.04s-.11-.08-.13-.09c-.4-.02-.82-.16-.82-.39,0-.27.53-.39,1.03-.39.46,0,.96.16.96.39,0,.21-.42.36-.81.39-.04,0-.11.05-.15.09l-.04.04Zm-.16-.25s.11.04.16.08c.05-.04.12-.08.19-.08.44-.04.69-.2.69-.27,0-.09-.35-.27-.84-.27-.53,0-.9.14-.9.27,0,.09.24.24.7.27h0Z"></path><path class="cls-5" d="m44.33,23.22c-.14,0-.29-.33-.33-.75,0-.08-.1-.19-.1-.19,0,0,.1-.11.1-.17.03-.43.17-.76.33-.76.19,0,.33.43.33.94.03.5-.14.93-.33.93h0Z"></path><path class="cls-1" d="m44.33,23.28c-.21,0-.36-.42-.39-.81,0-.04-.05-.11-.09-.15l-.04-.04.04-.04s.08-.11.09-.13c.02-.4.16-.82.39-.82.26,0,.39.5.39,1,.02.38-.07.75-.22.91-.05.05-.11.08-.17.08Zm-.35-1s.08.12.08.19c.04.44.2.69.27.69.03,0,.06-.02.08-.04.11-.11.21-.43.19-.82,0-.5-.14-.88-.27-.88-.09,0-.24.24-.27.7,0,.05-.04.11-.08.16Z"></path><path class="cls-5" d="m51.14,21.33c.14,0,.29.33.33.75,0,.08.1.19.1.19,0,0-.1.11-.1.17-.03.43-.17.76-.33.76-.19,0-.33-.43-.33-.94-.01-.5.14-.93.33-.93h0Z"></path><path class="cls-1" d="m51.14,23.26c-.26,0-.39-.5-.39-1-.01-.39.08-.76.23-.91.05-.05.11-.08.16-.08.21,0,.36.42.39.81,0,.04.05.11.09.15l.04.04-.04.04s-.08.11-.09.13c-.02.4-.16.82-.39.82Zm0-1.87s-.05.01-.07.04c-.1.11-.2.42-.19.82,0,.5.14.88.27.88.09,0,.24-.24.27-.7,0-.05.04-.11.08-.16-.04-.05-.08-.12-.08-.19-.04-.44-.2-.69-.27-.69Z"></path><path class="cls-5" d="m47.21,50.18c0,.29.24.53.53.53s.55-.24.55-.53-.24-.53-.55-.53c-.29-.03-.53.22-.53.53h0Z"></path><path class="cls-1" d="m47.74,50.78c-.33,0-.6-.27-.6-.6,0-.18.07-.34.19-.46.11-.1.26-.15.41-.14h0c.33,0,.6.27.6.6s-.28.6-.61.6Zm-.04-1.07c-.11,0-.2.04-.28.11-.1.09-.15.22-.15.36,0,.26.21.47.47.47s.48-.22.48-.47-.22-.47-.48-.47c-.01,0-.03,0-.04,0Z"></path><path class="cls-5" d="m47.21,41.75c0,.29.24.53.53.53s.55-.24.55-.53-.24-.53-.55-.53c-.29-.03-.53.22-.53.53h0Z"></path><path class="cls-1" d="m47.74,42.35c-.33,0-.6-.27-.6-.6,0-.18.07-.34.19-.46.11-.1.26-.15.41-.14h0c.33,0,.6.27.6.6s-.28.6-.61.6Zm-.04-1.07c-.11,0-.2.04-.28.11-.1.09-.15.22-.15.36,0,.26.21.47.47.47s.48-.22.48-.47-.22-.47-.48-.47c-.01,0-.03,0-.04,0Z"></path><path class="cls-5" d="m49.72,45.98c0,1.94-.89,3.53-2.02,3.53s-2.02-1.59-2.02-3.53.89-3.55,2.02-3.55,2.02,1.59,2.02,3.55h0Z"></path><path class="cls-1" d="m47.7,49.57c-1.15,0-2.08-1.61-2.08-3.59s.93-3.62,2.08-3.62,2.08,1.59,2.08,3.62-.91,3.59-2.08,3.59Zm0-7.08c-1.08,0-1.95,1.57-1.95,3.49s.88,3.47,1.95,3.47,1.95-1.55,1.95-3.47-.88-3.49-1.95-3.49Z"></path><path class="cls-2" d="m49.42,45.93c0-1.68-.67-3.05-1.51-3.21-.05,0-.17.22-.17.22,0,0-.11-.22-.17-.22-.84.17-1.51,1.54-1.51,3.21v.05c0,1.68.67,3.05,1.51,3.21.05,0,.17-.22.17-.22,0,0,.11.22.17.22.84-.17,1.51-1.54,1.51-3.21v-.05h0Z"></path><path class="cls-1" d="m47.58,49.25c-.9-.18-1.57-1.58-1.57-3.28v-.05c0-1.69.67-3.1,1.56-3.27.03,0,.08,0,.18.15.09-.15.14-.15.16-.15.9.18,1.57,1.58,1.57,3.28v.05c0,1.69-.67,3.1-1.56,3.27-.03,0-.08,0-.18-.15-.09.15-.14.15-.17.15Zm.17-.41l.06.11c.04.08.09.16.12.18.8-.17,1.44-1.55,1.44-3.15v-.05c0-1.59-.63-2.96-1.44-3.14-.03.03-.08.1-.12.18l-.06.11-.06-.11c-.04-.08-.09-.16-.12-.18-.8.17-1.44,1.55-1.44,3.15v.05c0,1.59.63,2.96,1.44,3.14.03-.03.08-.1.12-.18l.06-.11Z"></path><path class="cls-5" d="m50.37,45.98c0-.14-.11-.27-.27-.27-.14,0-.27.11-.27.27,0,.14.11.27.27.27.15-.01.27-.13.27-.27h0Z"></path><path class="cls-1" d="m50.11,46.31c-.19,0-.33-.15-.33-.33s.15-.33.33-.33.33.15.33.33c0,.17-.14.31-.32.33h0Zm0-.53c-.1,0-.2.08-.2.2,0,.1.08.2.2.2.11,0,.2-.1.2-.2,0-.1-.08-.2-.2-.2Z"></path><path class="cls-5" d="m45.62,45.98c0-.14-.11-.27-.27-.27s-.27.11-.27.27c0,.14.11.27.27.27s.27-.13.27-.27h0Z"></path><path class="cls-1" d="m45.36,46.31c-.18,0-.33-.15-.33-.33s.14-.33.33-.33.33.15.33.33-.15.33-.33.33Zm0-.53c-.12,0-.2.09-.2.2,0,.1.08.2.2.2s.2-.1.2-.2-.08-.2-.2-.2Z"></path><path class="cls-5" d="m49.47,49.09c0-.14-.11-.27-.27-.27s-.27.11-.27.27c0,.14.11.27.27.27s.27-.11.27-.27h0Z"></path><path class="cls-1" d="m49.2,49.42c-.18,0-.33-.15-.33-.33s.14-.33.33-.33.33.15.33.33-.14.33-.33.33Zm0-.53c-.12,0-.2.09-.2.2,0,.1.08.2.2.2s.2-.09.2-.2c0-.1-.08-.2-.2-.2Z"></path><path class="cls-5" d="m46.54,49.09c0-.14-.11-.27-.27-.27-.14,0-.27.11-.27.27,0,.14.11.27.27.27.14,0,.27-.11.27-.27h0Z"></path><path class="cls-1" d="m46.27,49.42c-.18,0-.33-.15-.33-.33s.15-.33.33-.33.33.15.33.33-.15.33-.33.33Zm0-.53c-.1,0-.2.08-.2.2,0,.1.08.2.2.2.1,0,.2-.08.2-.2,0-.1-.08-.2-.2-.2Z"></path><path class="cls-5" d="m45.81,47.6c0-.29-.24-.53-.53-.53s-.55.24-.55.53.24.53.55.53.53-.24.53-.53h0Z"></path><path class="cls-1" d="m45.28,48.2c-.34,0-.61-.27-.61-.6s.28-.6.61-.6.6.27.6.6-.27.6-.6.6Zm0-1.07c-.26,0-.48.22-.48.47s.22.47.48.47.47-.21.47-.47-.21-.47-.47-.47Z"></path><path class="cls-5" d="m50.74,47.58c0-.29-.24-.53-.53-.53s-.53.24-.53.53.24.53.53.53c.29,0,.53-.24.53-.53h0Z"></path><path class="cls-1" d="m50.2,48.17c-.33,0-.6-.27-.6-.6s.27-.6.6-.6.6.27.6.6-.27.6-.6.6Zm0-1.07c-.26,0-.47.21-.47.47s.21.47.47.47.47-.21.47-.47-.21-.47-.47-.47Z"></path><path class="cls-5" d="m46,42.83c0,.14.11.27.27.27.14,0,.27-.11.27-.27s-.11-.27-.27-.27c-.14-.03-.27.1-.27.27h0Z"></path><path class="cls-1" d="m46.27,43.16c-.18,0-.33-.15-.33-.33,0-.11.04-.2.12-.27.06-.05.14-.07.22-.06,0,0,0,0,0,0,.18,0,.32.14.32.33s-.15.33-.33.33Zm-.03-.54s-.07.01-.1.04c-.05.04-.07.1-.07.17,0,.1.08.2.2.2.1,0,.2-.08.2-.2s-.09-.2-.2-.2c-.01,0-.02,0-.03,0Z"></path><path class="cls-5" d="m48.94,42.83c0,.14.11.27.27.27s.27-.11.27-.27-.11-.27-.27-.27c-.15-.03-.27.1-.27.27h0Z"></path><path class="cls-1" d="m49.2,43.16c-.18,0-.33-.15-.33-.33,0-.11.04-.21.12-.27.06-.05.14-.07.23-.06.18,0,.32.14.32.33s-.14.33-.33.33Zm-.04-.54s-.07.01-.1.03c-.04.04-.07.1-.07.17,0,.1.08.2.2.2s.2-.09.2-.2-.09-.2-.2-.2c-.01,0-.02,0-.04,0Z"></path><path class="cls-5" d="m49.66,44.32c0,.29.24.53.53.53s.53-.24.53-.53-.24-.53-.53-.53-.53.23-.53.53h0Z"></path><path class="cls-1" d="m50.19,44.91c-.33,0-.6-.27-.6-.6s.26-.6.6-.6.6.27.6.6-.27.6-.6.6Zm0-1.07c-.26,0-.47.21-.47.47s.21.47.47.47.47-.21.47-.47-.21-.47-.47-.47Z"></path><path class="cls-5" d="m44.73,44.32c0,.29.24.53.55.53s.53-.24.53-.53-.24-.53-.53-.53c-.3.01-.55.25-.55.53h0Z"></path><path class="cls-1" d="m45.28,44.91c-.34,0-.61-.27-.61-.6s.27-.58.61-.6h0c.33,0,.6.27.6.6s-.27.6-.6.6Zm0-1.07c-.26.01-.48.22-.48.47s.22.47.48.47.47-.21.47-.47-.21-.47-.47-.47Z"></path><path class="cls-5" d="m47.21,97.57c0,.29.24.53.53.53s.55-.24.55-.53-.24-.53-.55-.53c-.29.01-.53.25-.53.53h0Z"></path><path class="cls-1" d="m47.74,98.16c-.33,0-.6-.27-.6-.6s.27-.58.59-.6h0c.34,0,.61.27.61.6s-.28.6-.61.6Zm0-1.07c-.25.01-.47.23-.47.47,0,.26.21.47.47.47s.48-.22.48-.47-.22-.47-.48-.47Z"></path><path class="cls-5" d="m47.21,89.15c0,.29.24.53.53.53s.55-.24.55-.53-.24-.53-.55-.53c-.29,0-.53.24-.53.53h0Z"></path><path class="cls-1" d="m47.74,89.75c-.33,0-.6-.27-.6-.6s.27-.6.6-.6.61.27.61.6-.28.6-.61.6Zm0-1.07c-.26,0-.47.21-.47.47s.21.47.47.47.48-.22.48-.47-.22-.47-.48-.47Z"></path><path class="cls-5" d="m49.72,93.38c0,1.94-.89,3.55-2.02,3.55s-2.02-1.59-2.02-3.55.89-3.53,2.02-3.53,2.02,1.57,2.02,3.53h0Z"></path><path class="cls-1" d="m47.7,97c-1.15,0-2.08-1.62-2.08-3.62s.91-3.59,2.08-3.59,2.08,1.58,2.08,3.59-.93,3.62-2.08,3.62Zm0-7.08c-1.08,0-1.95,1.55-1.95,3.47s.88,3.49,1.95,3.49,1.95-1.57,1.95-3.49-.88-3.47-1.95-3.47Z"></path><path class="cls-2" d="m49.42,93.35c0-1.68-.67-3.05-1.51-3.21-.05,0-.17.22-.17.22,0,0-.11-.22-.17-.22-.84.17-1.51,1.54-1.51,3.21v.05c0,1.68.67,3.05,1.51,3.21.05,0,.17-.22.17-.22,0,0,.11.22.17.22.84-.17,1.51-1.54,1.51-3.21v-.05h0Z"></path><path class="cls-1" d="m47.58,96.68c-.9-.18-1.57-1.58-1.57-3.28v-.05c0-1.69.67-3.1,1.56-3.27.03,0,.08,0,.18.15.09-.15.14-.15.16-.15.9.18,1.57,1.58,1.57,3.28v.05c0,1.69-.67,3.1-1.56,3.27-.03,0-.08,0-.18-.15-.09.15-.14.15-.17.15Zm.17-.41l.06.11c.04.08.09.16.12.18.8-.17,1.44-1.55,1.44-3.15v-.05c0-1.59-.63-2.96-1.44-3.14-.03.03-.08.1-.12.18l-.06.11-.06-.11c-.04-.08-.09-.16-.12-.18-.8.17-1.44,1.55-1.44,3.15v.05c0,1.59.63,2.96,1.44,3.14.03-.03.08-.1.12-.18l.06-.11Zm.18-6.06h0Z"></path><path class="cls-5" d="m50.37,93.38c0-.14-.11-.27-.27-.27-.14,0-.27.11-.27.27,0,.14.11.27.27.27.15-.01.27-.13.27-.27h0Z"></path><path class="cls-1" d="m50.11,93.71c-.19,0-.33-.15-.33-.33s.15-.33.33-.33.33.15.33.33-.14.31-.32.33h0Zm0-.53c-.1,0-.2.08-.2.2,0,.1.08.2.2.2.11,0,.2-.1.2-.2,0-.1-.08-.2-.2-.2Z"></path><path class="cls-5" d="m45.62,93.38c0-.14-.11-.27-.27-.27s-.27.11-.27.27c0,.14.11.27.27.27s.27-.13.27-.27h0Z"></path><path class="cls-1" d="m45.36,93.71c-.18,0-.33-.15-.33-.33s.14-.33.33-.33.33.15.33.33-.15.33-.33.33Zm0-.53c-.12,0-.2.09-.2.2,0,.1.08.2.2.2s.2-.1.2-.2-.08-.2-.2-.2Z"></path><path class="cls-5" d="m49.47,96.49c0-.14-.11-.27-.27-.27s-.27.11-.27.27.11.27.27.27.27-.11.27-.27h0Z"></path><path class="cls-1" d="m49.2,96.82c-.19,0-.33-.14-.33-.33s.14-.33.33-.33.33.15.33.33-.14.33-.33.33Zm0-.53c-.12,0-.2.09-.2.2s.09.2.2.2.2-.09.2-.2c0-.1-.08-.2-.2-.2Z"></path><path class="cls-5" d="m46.54,96.49c0-.14-.11-.27-.27-.27-.14,0-.27.11-.27.27s.11.27.27.27c.14,0,.27-.11.27-.27h0Z"></path><path class="cls-1" d="m46.27,96.82c-.19,0-.33-.14-.33-.33s.15-.33.33-.33.33.15.33.33-.15.33-.33.33Zm0-.53c-.1,0-.2.08-.2.2s.09.2.2.2c.1,0,.2-.08.2-.2,0-.1-.08-.2-.2-.2Z"></path><path class="cls-5" d="m45.81,95c0-.29-.24-.53-.53-.53s-.55.24-.55.53.24.53.55.53.53-.24.53-.53h0Z"></path><path class="cls-1" d="m45.28,95.6c-.34,0-.61-.27-.61-.6s.28-.6.61-.6.6.27.6.6-.27.6-.6.6Zm0-1.07c-.26,0-.48.22-.48.47s.22.47.48.47.47-.21.47-.47-.21-.47-.47-.47Z"></path><path class="cls-5" d="m50.74,94.98c0-.29-.24-.53-.53-.53s-.53.24-.53.53.24.53.53.53.53-.22.53-.53h0Z"></path><path class="cls-1" d="m50.2,95.57c-.33,0-.6-.27-.6-.6s.27-.6.6-.6.6.27.6.6-.26.6-.6.6Zm0-1.07c-.26,0-.47.21-.47.47s.21.47.47.47.47-.2.47-.47-.21-.47-.47-.47Z"></path><path class="cls-5" d="m46,90.23c0,.14.11.27.27.27.14,0,.27-.11.27-.27,0-.14-.11-.27-.27-.27-.14,0-.27.13-.27.27h0Z"></path><path class="cls-1" d="m46.27,90.56c-.18,0-.33-.15-.33-.33s.15-.33.33-.33.33.15.33.33-.15.33-.33.33Zm0-.53c-.1,0-.2.1-.2.2,0,.1.08.2.2.2.1,0,.2-.08.2-.2,0-.1-.08-.2-.2-.2Z"></path><path class="cls-5" d="m48.94,90.23c0,.14.11.27.27.27s.27-.11.27-.27c0-.14-.11-.27-.27-.27s-.27.13-.27.27h0Z"></path><path class="cls-1" d="m49.2,90.56c-.18,0-.33-.15-.33-.33s.15-.33.33-.33.33.15.33.33-.14.33-.33.33Zm0-.53c-.12,0-.2.1-.2.2s.08.2.2.2.2-.09.2-.2c0-.1-.08-.2-.2-.2Z"></path><path class="cls-5" d="m49.66,91.72c0,.29.24.53.53.53s.53-.24.53-.53-.24-.53-.53-.53-.53.24-.53.53h0Z"></path><path class="cls-1" d="m50.19,92.31c-.33,0-.6-.27-.6-.6s.27-.6.6-.6.6.27.6.6-.27.6-.6.6Zm0-1.07c-.26,0-.47.21-.47.47s.21.47.47.47.47-.21.47-.47-.21-.47-.47-.47Z"></path><path class="cls-5" d="m44.73,91.74c0,.29.24.53.55.53s.53-.24.53-.53-.24-.53-.53-.53c-.3-.01-.55.22-.55.53h0Z"></path><path class="cls-1" d="m45.28,92.34c-.34,0-.61-.27-.61-.6,0-.17.06-.33.18-.44.11-.11.27-.17.43-.16h0c.33,0,.59.27.59.6s-.27.6-.6.6Zm-.02-1.07c-.12,0-.24.04-.32.12-.09.09-.14.21-.14.35,0,.26.22.47.48.47s.47-.21.47-.47-.21-.47-.47-.47c0,0-.01,0-.02,0Z"></path><polygon class="cls-5" points="50.71 70 47.73 72.98 44.76 70 47.73 67.03 50.71 70"></polygon><path class="cls-1" d="m47.73,73.07l-3.06-3.07,3.06-3.06,3.07,3.06-3.07,3.07Zm-2.88-3.07l2.88,2.89,2.89-2.89-2.89-2.88-2.88,2.88Z"></path><polygon class="cls-3" points="44.97 70.05 45.86 70.94 46.8 70.94 46.8 71.87 47.72 72.76 47.75 72.76 48.64 71.87 48.64 70.94 49.58 70.94 50.5 70.05 50.5 70 49.58 69.11 48.64 69.11 48.64 68.17 47.75 67.27 47.72 67.27 46.8 68.17 46.8 69.11 45.86 69.11 44.97 70 44.97 70.05"></polygon><path class="cls-1" d="m47.78,72.83h-.09l-.95-.93v-.9h-.9l-.93-.93v-.1l.93-.93h.9v-.9l.95-.94h.09l.93.94v.9h.9l.95.93v.1l-.95.93h-.9v.9l-.93.93Zm-.91-.98l.87.85.84-.84v-.98h.98l.87-.85-.87-.85h-.98v-.98l-.84-.86-.87.86v.98h-.98l-.85.85.85.85h.98v.98Z"></path><path class="cls-5" d="m46.49,67.67c.14.14,0,.48-.32.79-.32.32-.67.46-.79.32-.14-.14,0-.48.32-.79.28-.32.65-.47.79-.32h0Z"></path><path class="cls-1" d="m45.52,68.89s-.01,0-.02,0c-.07,0-.13-.03-.17-.08-.04-.04-.07-.11-.07-.19,0-.19.15-.45.39-.68.21-.24.47-.39.67-.39.09,0,.16.03.2.08.05.05.07.12.07.2,0,.19-.15.45-.39.68-.24.24-.51.39-.7.39Zm.82-1.22h0c-.16,0-.4.14-.58.36-.22.21-.35.44-.36.59,0,.05.01.08.04.11.02.02.04.03.08.04.12.01.37-.1.62-.35.21-.2.35-.44.35-.59,0-.05-.01-.08-.04-.11h0s-.06-.04-.11-.04Z"></path><path class="cls-5" d="m48.99,67.65c.14-.14.51,0,.79.32.32.32.46.67.32.79-.14.14-.51,0-.79-.32-.32-.28-.47-.65-.32-.79h0Z"></path><path class="cls-1" d="m49.94,68.87s0,0-.01,0c-.2,0-.47-.16-.67-.39-.23-.21-.39-.47-.39-.67,0-.08.03-.16.08-.2.05-.05.12-.07.21-.07.2,0,.47.16.67.39.24.24.4.52.39.71,0,.07-.03.13-.08.17-.04.04-.11.07-.19.07Zm-.8-1.21s-.08.01-.11.04h0s-.04.06-.04.11c0,.16.14.4.36.58.21.24.45.35.58.36.05,0,.09-.01.12-.04.02-.02.03-.04.04-.08,0-.12-.1-.37-.35-.62-.21-.24-.44-.35-.58-.35,0,0,0,0,0,0Z"></path><path class="cls-5" d="m48.99,72.37c-.14-.14,0-.48.32-.79s.67-.46.79-.32c.14.14,0,.48-.32.79s-.65.47-.79.32h0Z"></path><path class="cls-1" d="m49.13,72.49s0,0-.01,0c-.07,0-.13-.03-.18-.08-.05-.05-.07-.12-.07-.2,0-.19.15-.45.39-.68.26-.25.54-.4.72-.39.07,0,.12.03.16.07.04.04.07.11.07.19,0,.19-.15.45-.39.68-.26.25-.51.39-.69.39Zm.83-1.21c-.15,0-.39.14-.61.35-.21.2-.35.44-.35.59,0,.05.01.08.04.11h0s.05.04.09.04c.14,0,.37-.13.61-.36.21-.2.35-.44.35-.59,0-.05-.01-.08-.04-.11-.02-.02-.04-.03-.07-.03,0,0,0,0-.01,0Z"></path><path class="cls-5" d="m46.49,72.37c-.14.14-.51,0-.81-.32-.32-.32-.46-.67-.32-.79.14-.14.51,0,.79.32.34.32.47.67.34.79h0Z"></path><path class="cls-1" d="m46.33,72.49h0c-.2,0-.48-.16-.7-.39-.25-.25-.4-.53-.39-.71,0-.07.03-.13.08-.17.05-.05.12-.07.2-.07.2,0,.47.16.67.39.25.23.41.51.41.7,0,.07-.02.13-.07.17-.05.05-.12.07-.2.07Zm-.83-1.21s-.08.01-.11.04c-.02.02-.03.04-.04.08,0,.12.1.37.35.62.2.21.45.35.61.35.05,0,.09-.01.11-.04h0s.03-.06.03-.08c0-.13-.11-.37-.37-.61-.21-.24-.44-.35-.58-.35,0,0,0,0,0,0Z"></path><path class="cls-5" d="m46.8,66.63c0-.14.33-.29.75-.33.08,0,.19-.1.19-.1,0,0,.11.1.17.1.43.03.76.17.76.33,0,.19-.43.33-.96.33-.5.01-.9-.13-.9-.33h0Z"></path><path class="cls-1" d="m47.64,67.03c-.37,0-.68-.08-.82-.22-.05-.05-.08-.11-.08-.18,0-.21.42-.36.81-.39.04,0,.11-.05.15-.09l.04-.04.04.04s.11.08.13.09c.4.02.82.16.82.39,0,.27-.53.39-1.03.39-.02,0-.04,0-.07,0Zm.1-.74s-.12.08-.19.08c-.44.04-.69.2-.69.27,0,.03.01.06.04.09.12.12.44.19.79.18.53,0,.9-.14.9-.27,0-.09-.24-.24-.7-.27h0s-.11-.04-.16-.08Z"></path><path class="cls-5" d="m48.69,73.41c0,.14-.33.29-.75.33-.08,0-.19.1-.19.1,0,0-.11-.1-.17-.1-.43-.03-.76-.17-.76-.33,0-.19.43-.33.96-.33.47-.01.9.13.9.33h0Z"></path><path class="cls-1" d="m47.75,73.93l-.04-.04s-.11-.08-.13-.09c-.4-.02-.82-.16-.82-.39,0-.27.53-.39,1.03-.39.38,0,.74.08.88.22.05.05.08.11.08.17,0,.21-.42.36-.81.39-.04,0-.11.05-.15.09l-.04.04Zm-.16-.25s.11.04.16.08c.05-.04.12-.08.19-.08.44-.04.69-.2.69-.27,0-.03-.01-.05-.04-.08-.12-.12-.45-.19-.79-.19-.53,0-.9.14-.9.27,0,.09.24.24.7.27h0Z"></path><path class="cls-5" d="m44.33,70.96c-.14,0-.29-.33-.33-.75,0-.08-.1-.19-.1-.19,0,0,.1-.11.1-.17.03-.43.17-.76.33-.76.19,0,.33.43.33.94.03.52-.14.93-.33.93h0Z"></path><path class="cls-1" d="m44.33,71.02c-.21,0-.36-.42-.39-.81,0-.04-.05-.11-.09-.15l-.04-.04.04-.04s.08-.11.09-.13c.02-.4.16-.82.39-.82.26,0,.39.5.39,1,.02.39-.07.75-.22.9-.05.06-.11.09-.18.09Zm-.35-1s.08.12.08.19c.04.44.2.69.27.69.03,0,.05-.02.08-.05.1-.11.2-.41.18-.81,0-.5-.14-.88-.27-.88-.09,0-.24.24-.27.7,0,.05-.04.11-.08.16Z"></path><path class="cls-5" d="m51.14,69.08c.14,0,.29.33.33.75,0,.08.1.19.1.19,0,0-.1.11-.1.17-.03.43-.17.76-.33.76-.19,0-.33-.43-.33-.94-.01-.52.14-.93.33-.93h0Z"></path><path class="cls-1" d="m51.14,71.01c-.26,0-.39-.5-.39-1,0-.4.08-.76.22-.91.05-.05.11-.08.17-.08.21,0,.36.42.39.81,0,.04.05.11.09.15l.04.04-.04.04s-.08.11-.09.13c-.02.4-.16.82-.39.82Zm0-1.87s-.05.01-.08.04c-.1.1-.2.4-.19.82,0,.5.14.88.27.88.09,0,.24-.24.27-.7,0-.05.04-.11.08-.16-.04-.05-.08-.12-.08-.19-.04-.44-.2-.69-.27-.69Z"></path></g></svg>